G75*
%MOIN*%
%OFA0B0*%
%FSLAX24Y24*%
%IPPOS*%
%LPD*%
%AMOC8*
5,1,8,0,0,1.08239X$1,22.5*
%
%ADD10C,0.0570*%
%ADD11C,0.0709*%
%ADD12C,0.0720*%
%ADD13C,0.1417*%
%ADD14C,0.0638*%
%ADD15C,0.1654*%
%ADD16C,0.1559*%
%ADD17C,0.0661*%
%ADD18C,0.1032*%
%ADD19R,0.0475X0.0475*%
%ADD20OC8,0.0475*%
%ADD21C,0.0475*%
D10*
X022847Y014437D03*
X023634Y014437D03*
X024421Y014437D03*
X025209Y014437D03*
X025996Y014437D03*
X026784Y014437D03*
X027571Y014437D03*
X028358Y014437D03*
X029146Y014437D03*
X029933Y014437D03*
X030721Y014437D03*
X031508Y014437D03*
X032295Y014437D03*
X033083Y014437D03*
X033870Y014437D03*
X034658Y014437D03*
X035445Y014437D03*
X036232Y014437D03*
X037020Y014437D03*
X037807Y014437D03*
X037807Y027035D03*
X037020Y027035D03*
X036232Y027035D03*
X035445Y027035D03*
X034658Y027035D03*
X033870Y027035D03*
X033083Y027035D03*
X032295Y027035D03*
X031508Y027035D03*
X030721Y027035D03*
X029933Y027035D03*
X029146Y027035D03*
X028358Y027035D03*
X027571Y027035D03*
X026784Y027035D03*
X025996Y027035D03*
X025209Y027035D03*
X024421Y027035D03*
X023634Y027035D03*
X022847Y027035D03*
D11*
X006229Y003245D03*
X007229Y003245D03*
X006548Y019761D03*
X002548Y019761D03*
X003184Y028523D03*
X007184Y028523D03*
D12*
X012875Y028024D03*
X013875Y028024D03*
X014875Y028024D03*
X015875Y028024D03*
X016875Y028024D03*
X017875Y028024D03*
X042123Y028052D03*
X042123Y027052D03*
X042123Y026052D03*
X042123Y025052D03*
X042123Y024052D03*
X042123Y023052D03*
X042123Y022052D03*
X042123Y021052D03*
X042226Y010381D03*
X043226Y010381D03*
X041226Y010381D03*
X041286Y008606D03*
X042286Y008606D03*
X043286Y008606D03*
X016764Y010850D03*
X015764Y010850D03*
X014764Y010850D03*
X014694Y009555D03*
X013694Y009555D03*
X012694Y009555D03*
X011694Y009555D03*
X012281Y010775D03*
X008169Y009529D03*
X007169Y009529D03*
X006169Y009529D03*
X005169Y009529D03*
X016659Y008157D03*
X016659Y007157D03*
X016659Y006157D03*
D13*
X018532Y006745D03*
X024710Y006737D03*
D14*
X023879Y008158D03*
X022883Y008158D03*
X021883Y008158D03*
X020883Y008158D03*
X019883Y008158D03*
X020383Y009158D03*
X019383Y009158D03*
X021383Y009158D03*
X022383Y009158D03*
X023367Y009158D03*
X013678Y007548D03*
X012662Y007548D03*
X011682Y007540D03*
X010690Y007532D03*
X011182Y006536D03*
X010186Y006532D03*
X012182Y006532D03*
X013174Y006532D03*
D15*
X019383Y005536D03*
X023887Y005536D03*
D16*
X014182Y004032D03*
X009694Y004032D03*
D17*
X038662Y004973D03*
X040434Y004973D03*
D18*
X035501Y005640D03*
X033612Y004459D03*
X033612Y006822D03*
D19*
X037904Y008582D03*
X038824Y009087D03*
X039819Y006749D03*
X041769Y011542D03*
X039488Y012827D03*
X041566Y015412D03*
X042317Y017236D03*
X038247Y015658D03*
X031233Y016241D03*
X031064Y019309D03*
X029729Y022112D03*
X030532Y022130D03*
X032298Y023450D03*
X030269Y023739D03*
X034175Y026135D03*
X036403Y026153D03*
X034838Y028736D03*
X038824Y020929D03*
X025510Y012741D03*
X024284Y012732D03*
X022388Y011993D03*
X022875Y010437D03*
X024336Y010263D03*
X020197Y010054D03*
X018356Y011685D03*
X019545Y011967D03*
X017070Y015043D03*
X013539Y018150D03*
X011569Y017810D03*
X008932Y017781D03*
X008088Y018843D03*
X008433Y020731D03*
X010128Y022031D03*
X010092Y023457D03*
X010746Y024126D03*
X008978Y024815D03*
X006464Y025136D03*
X007403Y026909D03*
X007948Y026913D03*
X009093Y026923D03*
X012249Y025743D03*
X012912Y025981D03*
X013626Y025780D03*
X013614Y025141D03*
X014490Y024665D03*
X015001Y024661D03*
X015554Y024539D03*
X016412Y024549D03*
X016419Y025091D03*
X017421Y025091D03*
X019025Y024344D03*
X018024Y022522D03*
X017508Y021859D03*
X018335Y020376D03*
X015257Y022089D03*
X014306Y020501D03*
X014438Y019711D03*
X012537Y021683D03*
X013902Y023625D03*
X014684Y023897D03*
X015899Y023688D03*
X018110Y026382D03*
X017439Y027210D03*
X019659Y028157D03*
X013326Y027335D03*
X004365Y022272D03*
X002781Y023593D03*
X003365Y024282D03*
X003647Y026996D03*
X003481Y018180D03*
X003996Y015377D03*
X002546Y014380D03*
X004272Y013029D03*
X009040Y012734D03*
X010283Y011761D03*
X011190Y012208D03*
X011970Y011896D03*
X009733Y013947D03*
X011440Y014986D03*
X012250Y014331D03*
X009903Y007176D03*
X008476Y006170D03*
X006078Y007402D03*
X002594Y006919D03*
X001980Y006424D03*
X017442Y002848D03*
D20*
X019678Y014575D03*
X020174Y014527D03*
X020646Y014518D03*
X021135Y014501D03*
X021586Y014489D03*
X022078Y014477D03*
X019683Y015095D03*
X019696Y015602D03*
X019689Y016088D03*
X019698Y016571D03*
X019696Y017054D03*
X019679Y017547D03*
X019679Y018040D03*
X019659Y018525D03*
X019652Y019013D03*
X019633Y019515D03*
X019627Y020022D03*
X019627Y020535D03*
X019633Y021075D03*
X019644Y021599D03*
X019655Y022100D03*
X019649Y022596D03*
X019644Y023086D03*
X019655Y023593D03*
X019666Y024083D03*
X019667Y024570D03*
X019667Y025067D03*
X019663Y025558D03*
X019990Y025934D03*
X020458Y025966D03*
X020947Y025960D03*
X021442Y025960D03*
X021923Y025950D03*
X022412Y025955D03*
X022906Y025942D03*
X023404Y025935D03*
X023901Y025935D03*
X024399Y025935D03*
X024890Y025935D03*
X025386Y025921D03*
X025867Y025827D03*
X025882Y025348D03*
X025876Y024859D03*
X025891Y024369D03*
X025883Y023886D03*
X025901Y023381D03*
X025916Y022896D03*
X025923Y022408D03*
X025919Y021931D03*
X025911Y021436D03*
X025930Y020938D03*
X025947Y020416D03*
X025947Y019917D03*
X025947Y019396D03*
X025947Y018857D03*
X025947Y018328D03*
X025947Y017790D03*
X025947Y017284D03*
X025947Y016762D03*
X025930Y016240D03*
X025913Y015718D03*
X025896Y015146D03*
D21*
X027965Y011536D03*
M02*
