G75*
%MOIN*%
%OFA0B0*%
%FSLAX24Y24*%
%IPPOS*%
%LPD*%
%AMOC8*
5,1,8,0,0,1.08239X$1,22.5*
%
%ADD10C,0.0475*%
%ADD11C,0.0591*%
%ADD12C,0.0600*%
%ADD13C,0.1181*%
%ADD14C,0.0531*%
%ADD15C,0.0860*%
%ADD16R,0.0396X0.0396*%
%ADD17OC8,0.0396*%
%ADD18C,0.0160*%
%ADD19C,0.0080*%
%ADD20C,0.0120*%
%ADD21C,0.0320*%
%ADD22C,0.0396*%
%ADD23C,0.0560*%
%ADD24C,0.0400*%
D10*
X022847Y014437D03*
X023634Y014437D03*
X024421Y014437D03*
X025209Y014437D03*
X025996Y014437D03*
X026784Y014437D03*
X027571Y014437D03*
X028358Y014437D03*
X029146Y014437D03*
X029933Y014437D03*
X030721Y014437D03*
X031508Y014437D03*
X032295Y014437D03*
X033083Y014437D03*
X033870Y014437D03*
X034658Y014437D03*
X035445Y014437D03*
X036232Y014437D03*
X037020Y014437D03*
X037807Y014437D03*
X037807Y027035D03*
X037020Y027035D03*
X036232Y027035D03*
X035445Y027035D03*
X034658Y027035D03*
X033870Y027035D03*
X033083Y027035D03*
X032295Y027035D03*
X031508Y027035D03*
X030721Y027035D03*
X029933Y027035D03*
X029146Y027035D03*
X028358Y027035D03*
X027571Y027035D03*
X026784Y027035D03*
X025996Y027035D03*
X025209Y027035D03*
X024421Y027035D03*
X023634Y027035D03*
X022847Y027035D03*
D11*
X007184Y028523D03*
X003184Y028523D03*
X002548Y019761D03*
X006548Y019761D03*
X006229Y003245D03*
X007229Y003245D03*
D12*
X007169Y009529D03*
X006169Y009529D03*
X005169Y009529D03*
X008169Y009529D03*
X011694Y009555D03*
X012694Y009555D03*
X013694Y009555D03*
X014694Y009555D03*
X016659Y008157D03*
X016659Y007157D03*
X016659Y006157D03*
X016764Y010850D03*
X015764Y010850D03*
X014764Y010850D03*
X012281Y010775D03*
X012875Y028024D03*
X013875Y028024D03*
X014875Y028024D03*
X015875Y028024D03*
X016875Y028024D03*
X017875Y028024D03*
X042123Y028052D03*
X042123Y027052D03*
X042123Y026052D03*
X042123Y025052D03*
X042123Y024052D03*
X042123Y023052D03*
X042123Y022052D03*
X042123Y021052D03*
X042226Y010381D03*
X043226Y010381D03*
X041226Y010381D03*
X041286Y008606D03*
X042286Y008606D03*
X043286Y008606D03*
D13*
X024710Y006737D03*
X018532Y006745D03*
D14*
X019883Y008158D03*
X020883Y008158D03*
X021883Y008158D03*
X022883Y008158D03*
X023879Y008158D03*
X023367Y009158D03*
X022383Y009158D03*
X021383Y009158D03*
X020383Y009158D03*
X019383Y009158D03*
X013678Y007548D03*
X012662Y007548D03*
X011682Y007540D03*
X010690Y007532D03*
X011182Y006536D03*
X010186Y006532D03*
X012182Y006532D03*
X013174Y006532D03*
D15*
X033612Y006822D03*
X035501Y005640D03*
X033612Y004459D03*
D16*
X039819Y006749D03*
X037904Y008582D03*
X038824Y009087D03*
X041769Y011542D03*
X039488Y012827D03*
X041566Y015412D03*
X042317Y017236D03*
X038247Y015658D03*
X031233Y016241D03*
X031064Y019309D03*
X029729Y022112D03*
X030532Y022130D03*
X032298Y023450D03*
X030269Y023739D03*
X034175Y026135D03*
X036403Y026153D03*
X034838Y028736D03*
X038824Y020929D03*
X025510Y012741D03*
X024284Y012732D03*
X022388Y011993D03*
X022875Y010437D03*
X024336Y010263D03*
X020197Y010054D03*
X018356Y011685D03*
X019545Y011967D03*
X017070Y015043D03*
X013539Y018150D03*
X011569Y017810D03*
X008932Y017781D03*
X008088Y018843D03*
X008433Y020731D03*
X010128Y022031D03*
X010092Y023457D03*
X010746Y024126D03*
X008978Y024815D03*
X006464Y025136D03*
X007403Y026909D03*
X007948Y026913D03*
X009093Y026923D03*
X012249Y025743D03*
X012912Y025981D03*
X013626Y025780D03*
X013614Y025141D03*
X014490Y024665D03*
X015001Y024661D03*
X015554Y024539D03*
X016412Y024549D03*
X016419Y025091D03*
X017421Y025091D03*
X019025Y024344D03*
X018024Y022522D03*
X017508Y021859D03*
X018335Y020376D03*
X015257Y022089D03*
X014306Y020501D03*
X014438Y019711D03*
X012537Y021683D03*
X013902Y023625D03*
X014684Y023897D03*
X015899Y023688D03*
X018110Y026382D03*
X017439Y027210D03*
X019659Y028157D03*
X013326Y027335D03*
X004365Y022272D03*
X002781Y023593D03*
X003365Y024282D03*
X003647Y026996D03*
X003481Y018180D03*
X003996Y015377D03*
X002546Y014380D03*
X004272Y013029D03*
X009040Y012734D03*
X010283Y011761D03*
X011190Y012208D03*
X011970Y011896D03*
X009733Y013947D03*
X011440Y014986D03*
X012250Y014331D03*
X009903Y007176D03*
X008476Y006170D03*
X006078Y007402D03*
X002594Y006919D03*
X001980Y006424D03*
X017442Y002848D03*
D17*
X019678Y014575D03*
X020174Y014527D03*
X020646Y014518D03*
X021135Y014501D03*
X021586Y014489D03*
X022078Y014477D03*
X019683Y015095D03*
X019696Y015602D03*
X019689Y016088D03*
X019698Y016571D03*
X019696Y017054D03*
X019679Y017547D03*
X019679Y018040D03*
X019659Y018525D03*
X019652Y019013D03*
X019633Y019515D03*
X019627Y020022D03*
X019627Y020535D03*
X019633Y021075D03*
X019644Y021599D03*
X019655Y022100D03*
X019649Y022596D03*
X019644Y023086D03*
X019655Y023593D03*
X019666Y024083D03*
X019667Y024570D03*
X019667Y025067D03*
X019663Y025558D03*
X019990Y025934D03*
X020458Y025966D03*
X020947Y025960D03*
X021442Y025960D03*
X021923Y025950D03*
X022412Y025955D03*
X022906Y025942D03*
X023404Y025935D03*
X023901Y025935D03*
X024399Y025935D03*
X024890Y025935D03*
X025386Y025921D03*
X025867Y025827D03*
X025882Y025348D03*
X025876Y024859D03*
X025891Y024369D03*
X025883Y023886D03*
X025901Y023381D03*
X025916Y022896D03*
X025923Y022408D03*
X025919Y021931D03*
X025911Y021436D03*
X025930Y020938D03*
X025947Y020416D03*
X025947Y019917D03*
X025947Y019396D03*
X025947Y018857D03*
X025947Y018328D03*
X025947Y017790D03*
X025947Y017284D03*
X025947Y016762D03*
X025930Y016240D03*
X025913Y015718D03*
X025896Y015146D03*
D18*
X001245Y001886D02*
X001245Y001316D01*
X043993Y001316D01*
X043993Y029102D01*
X001245Y029102D01*
X001245Y022337D01*
X001289Y022350D01*
X001334Y022369D01*
X001350Y022369D01*
X002204Y022634D01*
X002250Y022653D01*
X002265Y022653D01*
X002279Y022657D01*
X002328Y022653D01*
X004368Y022653D01*
X004423Y022630D01*
X004630Y022630D01*
X004723Y022537D01*
X004723Y022008D01*
X004630Y021914D01*
X004101Y021914D01*
X004007Y022008D01*
X004007Y022013D01*
X002362Y022013D01*
X001720Y021814D01*
X001761Y014041D01*
X001778Y013640D01*
X001781Y013633D01*
X001781Y013577D01*
X001783Y013521D01*
X001780Y013514D01*
X001752Y007373D01*
X001759Y007353D01*
X001779Y007306D01*
X001779Y007293D01*
X001783Y007282D01*
X001780Y007230D01*
X001784Y006782D01*
X002244Y006782D01*
X002338Y006689D01*
X002338Y006160D01*
X002244Y006066D01*
X001785Y006066D01*
X001785Y002351D01*
X002921Y001977D01*
X016960Y001977D01*
X017144Y002083D01*
X017131Y002537D01*
X017084Y002584D01*
X017084Y003112D01*
X017178Y003206D01*
X017706Y003206D01*
X017800Y003112D01*
X017800Y003102D01*
X022291Y003102D01*
X022291Y005935D01*
X022290Y005995D01*
X022291Y005999D01*
X022291Y006003D01*
X022314Y006058D01*
X022336Y006114D01*
X022339Y006117D01*
X022340Y006120D01*
X022382Y006163D01*
X023865Y007712D01*
X023844Y007712D01*
X023774Y007723D01*
X023708Y007745D01*
X023645Y007777D01*
X023588Y007818D01*
X023539Y007868D01*
X023498Y007924D01*
X023466Y007987D01*
X023444Y008054D01*
X023433Y008123D01*
X023433Y008149D01*
X023870Y008149D01*
X023870Y008167D01*
X023870Y008604D01*
X023844Y008604D01*
X023774Y008593D01*
X023708Y008571D01*
X023645Y008539D01*
X023588Y008498D01*
X023539Y008448D01*
X023498Y008392D01*
X023466Y008329D01*
X023444Y008262D01*
X023433Y008193D01*
X023433Y008167D01*
X023870Y008167D01*
X023887Y008167D01*
X023887Y008604D01*
X023914Y008604D01*
X023983Y008593D01*
X024050Y008571D01*
X024112Y008539D01*
X024169Y008498D01*
X024219Y008448D01*
X024260Y008392D01*
X024292Y008329D01*
X024314Y008262D01*
X024325Y008193D01*
X024325Y008193D01*
X027620Y011638D01*
X027662Y011739D01*
X027763Y011840D01*
X027894Y011894D01*
X028037Y011894D01*
X028168Y011840D01*
X028269Y011739D01*
X028324Y011607D01*
X028324Y011465D01*
X028269Y011333D01*
X028168Y011232D01*
X028085Y011198D01*
X024536Y007488D01*
X024559Y007494D01*
X024630Y007503D01*
X024630Y006817D01*
X024790Y006817D01*
X025476Y006817D01*
X025467Y006887D01*
X025441Y006985D01*
X025402Y007078D01*
X025352Y007166D01*
X025290Y007246D01*
X025219Y007317D01*
X025139Y007379D01*
X025051Y007429D01*
X024958Y007468D01*
X024860Y007494D01*
X024790Y007503D01*
X024790Y006817D01*
X024790Y006657D01*
X025476Y006657D01*
X025467Y006586D01*
X025441Y006489D01*
X025402Y006395D01*
X025352Y006308D01*
X025290Y006228D01*
X025219Y006156D01*
X025139Y006095D01*
X025051Y006044D01*
X024958Y006006D01*
X024860Y005979D01*
X024790Y005970D01*
X024790Y006657D01*
X024630Y006657D01*
X024630Y006164D01*
X024708Y006085D01*
X024856Y005729D01*
X024856Y005343D01*
X024708Y004987D01*
X024436Y004715D01*
X024079Y004567D01*
X023694Y004567D01*
X023338Y004715D01*
X023065Y004987D01*
X022931Y005311D01*
X022931Y002718D01*
X022883Y002601D01*
X022792Y002511D01*
X022675Y002462D01*
X017773Y002462D01*
X017788Y001928D01*
X017794Y001882D01*
X017790Y001865D01*
X017790Y001848D01*
X017774Y001804D01*
X017762Y001759D01*
X017751Y001745D01*
X017745Y001729D01*
X017713Y001695D01*
X017684Y001657D01*
X017669Y001649D01*
X017658Y001636D01*
X017615Y001617D01*
X017243Y001401D01*
X017227Y001385D01*
X017188Y001369D01*
X017152Y001348D01*
X017130Y001345D01*
X017110Y001337D01*
X017067Y001337D01*
X017025Y001331D01*
X017004Y001337D01*
X002882Y001337D01*
X002830Y001333D01*
X002819Y001337D01*
X002806Y001337D01*
X002759Y001356D01*
X001414Y001799D01*
X001401Y001799D01*
X001354Y001819D01*
X001304Y001835D01*
X001295Y001843D01*
X001284Y001848D01*
X001247Y001884D01*
X001245Y001886D01*
X001245Y001829D02*
X001324Y001829D01*
X001245Y001670D02*
X001806Y001670D01*
X002288Y001512D02*
X001245Y001512D01*
X001245Y001353D02*
X002767Y001353D01*
X002890Y001987D02*
X016978Y001987D01*
X017142Y002146D02*
X002408Y002146D01*
X001927Y002304D02*
X017137Y002304D01*
X017133Y002463D02*
X001785Y002463D01*
X001785Y002621D02*
X017084Y002621D01*
X017084Y002780D02*
X001785Y002780D01*
X001785Y002938D02*
X005892Y002938D01*
X005843Y002987D02*
X005971Y002859D01*
X006139Y002789D01*
X006320Y002789D01*
X006487Y002859D01*
X006615Y002987D01*
X006685Y003154D01*
X006685Y003335D01*
X006615Y003503D01*
X006487Y003631D01*
X006320Y003700D01*
X006139Y003700D01*
X005971Y003631D01*
X005843Y003503D01*
X005774Y003335D01*
X005774Y003154D01*
X005843Y002987D01*
X005798Y003097D02*
X001785Y003097D01*
X001785Y003255D02*
X005774Y003255D01*
X005806Y003414D02*
X001785Y003414D01*
X001785Y003572D02*
X005913Y003572D01*
X006546Y003572D02*
X006913Y003572D01*
X006971Y003631D02*
X006843Y003503D01*
X006774Y003335D01*
X006774Y003154D01*
X006843Y002987D01*
X006971Y002859D01*
X007139Y002789D01*
X007320Y002789D01*
X007487Y002859D01*
X007615Y002987D01*
X007685Y003154D01*
X007685Y003335D01*
X007615Y003503D01*
X007487Y003631D01*
X007320Y003700D01*
X007139Y003700D01*
X006971Y003631D01*
X006806Y003414D02*
X006652Y003414D01*
X006685Y003255D02*
X006774Y003255D01*
X006798Y003097D02*
X006661Y003097D01*
X006566Y002938D02*
X006892Y002938D01*
X007566Y002938D02*
X017084Y002938D01*
X017084Y003097D02*
X007661Y003097D01*
X007685Y003255D02*
X009156Y003255D01*
X009167Y003244D02*
X009509Y003102D01*
X009879Y003102D01*
X010220Y003244D01*
X010482Y003506D01*
X010623Y003847D01*
X010623Y004217D01*
X010482Y004559D01*
X010220Y004820D01*
X009879Y004962D01*
X009509Y004962D01*
X009167Y004820D01*
X008906Y004559D01*
X008764Y004217D01*
X008764Y003847D01*
X008906Y003506D01*
X009167Y003244D01*
X008998Y003414D02*
X007652Y003414D01*
X007546Y003572D02*
X008878Y003572D01*
X008813Y003731D02*
X001785Y003731D01*
X001785Y003889D02*
X008764Y003889D01*
X008764Y004048D02*
X001785Y004048D01*
X001785Y004206D02*
X008764Y004206D01*
X008825Y004365D02*
X001785Y004365D01*
X001785Y004523D02*
X008891Y004523D01*
X009029Y004682D02*
X001785Y004682D01*
X001785Y004840D02*
X009215Y004840D01*
X010172Y004840D02*
X013703Y004840D01*
X013655Y004820D02*
X013394Y004559D01*
X013252Y004217D01*
X013252Y003847D01*
X013394Y003506D01*
X013655Y003244D01*
X013997Y003102D01*
X014367Y003102D01*
X014709Y003244D01*
X014970Y003506D01*
X015112Y003847D01*
X015112Y004217D01*
X014970Y004559D01*
X014709Y004820D01*
X014367Y004962D01*
X013997Y004962D01*
X013655Y004820D01*
X013517Y004682D02*
X010359Y004682D01*
X010497Y004523D02*
X013379Y004523D01*
X013314Y004365D02*
X010562Y004365D01*
X010623Y004206D02*
X013252Y004206D01*
X013252Y004048D02*
X010623Y004048D01*
X010623Y003889D02*
X013252Y003889D01*
X013301Y003731D02*
X010575Y003731D01*
X010509Y003572D02*
X013366Y003572D01*
X013486Y003414D02*
X010390Y003414D01*
X010231Y003255D02*
X013644Y003255D01*
X014720Y003255D02*
X022291Y003255D01*
X022291Y003414D02*
X014878Y003414D01*
X014998Y003572D02*
X022291Y003572D01*
X022291Y003731D02*
X015063Y003731D01*
X015112Y003889D02*
X022291Y003889D01*
X022291Y004048D02*
X015112Y004048D01*
X015112Y004206D02*
X022291Y004206D01*
X022291Y004365D02*
X015051Y004365D01*
X014985Y004523D02*
X022291Y004523D01*
X022291Y004682D02*
X019852Y004682D01*
X019932Y004715D02*
X020204Y004987D01*
X020352Y005343D01*
X020352Y005729D01*
X020204Y006085D01*
X019932Y006357D01*
X019576Y006505D01*
X019266Y006505D01*
X019290Y006594D01*
X019299Y006665D01*
X018612Y006665D01*
X018612Y006136D01*
X018561Y006085D01*
X018414Y005729D01*
X018414Y005343D01*
X018561Y004987D01*
X018834Y004715D01*
X019190Y004567D01*
X019576Y004567D01*
X019932Y004715D01*
X020057Y004840D02*
X022291Y004840D01*
X022291Y004999D02*
X020209Y004999D01*
X020275Y005157D02*
X022291Y005157D01*
X022291Y005316D02*
X020340Y005316D01*
X020352Y005474D02*
X022291Y005474D01*
X022291Y005633D02*
X020352Y005633D01*
X020326Y005791D02*
X022291Y005791D01*
X022291Y005950D02*
X020260Y005950D01*
X020181Y006108D02*
X022334Y006108D01*
X022482Y006267D02*
X020023Y006267D01*
X019769Y006425D02*
X022633Y006425D01*
X022785Y006584D02*
X019287Y006584D01*
X019299Y006825D02*
X019290Y006895D01*
X019264Y006993D01*
X019225Y007086D01*
X019174Y007174D01*
X019113Y007254D01*
X019042Y007325D01*
X018961Y007387D01*
X018874Y007437D01*
X018781Y007476D01*
X018683Y007502D01*
X018612Y007511D01*
X018612Y006825D01*
X018452Y006825D01*
X018452Y006665D01*
X017766Y006665D01*
X017775Y006594D01*
X017801Y006496D01*
X017840Y006403D01*
X017890Y006316D01*
X017952Y006236D01*
X018023Y006164D01*
X018103Y006103D01*
X018191Y006052D01*
X018284Y006013D01*
X018382Y005987D01*
X018452Y005978D01*
X018452Y006665D01*
X018612Y006665D01*
X018612Y006825D01*
X019299Y006825D01*
X019288Y006901D02*
X023088Y006901D01*
X023240Y007059D02*
X019236Y007059D01*
X019141Y007218D02*
X023392Y007218D01*
X023543Y007376D02*
X018975Y007376D01*
X018612Y007376D02*
X018452Y007376D01*
X018452Y007511D02*
X018382Y007502D01*
X018284Y007476D01*
X018191Y007437D01*
X018103Y007387D01*
X018023Y007325D01*
X017952Y007254D01*
X017890Y007174D01*
X017840Y007086D01*
X017801Y006993D01*
X017775Y006895D01*
X017766Y006825D01*
X018452Y006825D01*
X018452Y007511D01*
X018452Y007218D02*
X018612Y007218D01*
X018612Y007059D02*
X018452Y007059D01*
X018452Y006901D02*
X018612Y006901D01*
X018612Y006742D02*
X022937Y006742D01*
X023531Y006437D02*
X023951Y006876D01*
X023943Y006817D01*
X024630Y006817D01*
X024630Y006657D01*
X023943Y006657D01*
X023952Y006586D01*
X023974Y006505D01*
X023694Y006505D01*
X023531Y006437D01*
X023671Y006584D02*
X023953Y006584D01*
X023822Y006742D02*
X024630Y006742D01*
X024630Y006584D02*
X024790Y006584D01*
X024790Y006742D02*
X033022Y006742D01*
X033022Y006704D02*
X033111Y006487D01*
X033277Y006321D01*
X033494Y006232D01*
X033729Y006232D01*
X033946Y006321D01*
X034112Y006487D01*
X034202Y006704D01*
X034202Y006939D01*
X034112Y007156D01*
X033946Y007322D01*
X033729Y007412D01*
X033494Y007412D01*
X033277Y007322D01*
X033111Y007156D01*
X033022Y006939D01*
X033022Y006704D01*
X033072Y006584D02*
X025466Y006584D01*
X025414Y006425D02*
X033174Y006425D01*
X033410Y006267D02*
X025320Y006267D01*
X025156Y006108D02*
X035107Y006108D01*
X035104Y006106D02*
X035036Y006038D01*
X034980Y005960D01*
X034936Y005875D01*
X034906Y005783D01*
X034891Y005688D01*
X034891Y005640D01*
X034891Y005592D01*
X034906Y005498D01*
X034936Y005406D01*
X034980Y005321D01*
X035036Y005243D01*
X035104Y005175D01*
X035182Y005119D01*
X035267Y005075D01*
X035358Y005045D01*
X035453Y005030D01*
X035501Y005030D01*
X035501Y005640D01*
X035501Y005640D01*
X034891Y005640D01*
X035501Y005640D01*
X035501Y005640D01*
X035501Y005030D01*
X035549Y005030D01*
X035644Y005045D01*
X035735Y005075D01*
X035821Y005119D01*
X035899Y005175D01*
X035967Y005243D01*
X036023Y005321D01*
X036067Y005406D01*
X036096Y005498D01*
X036111Y005592D01*
X036111Y005640D01*
X035501Y005640D01*
X035501Y005640D01*
X035501Y006250D01*
X035453Y006250D01*
X035358Y006235D01*
X035267Y006206D01*
X035182Y006162D01*
X035104Y006106D01*
X034974Y005950D02*
X024764Y005950D01*
X024790Y006108D02*
X024685Y006108D01*
X024630Y006267D02*
X024790Y006267D01*
X024790Y006425D02*
X024630Y006425D01*
X024630Y006901D02*
X024790Y006901D01*
X024790Y007059D02*
X024630Y007059D01*
X024630Y007218D02*
X024790Y007218D01*
X024790Y007376D02*
X024630Y007376D01*
X024580Y007535D02*
X043993Y007535D01*
X043993Y007693D02*
X024732Y007693D01*
X024884Y007852D02*
X043993Y007852D01*
X043993Y008010D02*
X025035Y008010D01*
X025187Y008169D02*
X041139Y008169D01*
X041195Y008146D02*
X041378Y008146D01*
X041547Y008216D01*
X041676Y008345D01*
X041746Y008514D01*
X041746Y008697D01*
X041676Y008866D01*
X041547Y008995D01*
X041378Y009066D01*
X041195Y009066D01*
X041026Y008995D01*
X040896Y008866D01*
X040826Y008697D01*
X040826Y008514D01*
X040896Y008345D01*
X041026Y008216D01*
X041195Y008146D01*
X041433Y008169D02*
X042139Y008169D01*
X042195Y008146D02*
X042378Y008146D01*
X042547Y008216D01*
X042676Y008345D01*
X042746Y008514D01*
X042746Y008697D01*
X042676Y008866D01*
X042547Y008995D01*
X042526Y009004D01*
X042526Y009064D01*
X042490Y009152D01*
X041949Y009693D01*
X041882Y009760D01*
X041793Y009797D01*
X040799Y009797D01*
X040579Y010017D01*
X040579Y020401D01*
X040542Y020489D01*
X039424Y021607D01*
X039424Y021607D01*
X039390Y021641D01*
X041913Y021641D01*
X041862Y021662D02*
X042031Y021592D01*
X042214Y021592D01*
X042383Y021662D01*
X042512Y021792D01*
X042583Y021961D01*
X042583Y022144D01*
X042512Y022313D01*
X042383Y022442D01*
X042214Y022512D01*
X042031Y022512D01*
X041862Y022442D01*
X041733Y022313D01*
X041716Y022272D01*
X033787Y022272D01*
X032657Y023403D01*
X032657Y023714D01*
X032563Y023808D01*
X032034Y023808D01*
X031940Y023714D01*
X031940Y023185D01*
X032034Y023092D01*
X032345Y023092D01*
X033605Y021832D01*
X041716Y021832D01*
X041733Y021792D01*
X041862Y021662D01*
X041938Y021497D02*
X041871Y021463D01*
X041810Y021418D01*
X041756Y021365D01*
X041712Y021304D01*
X041678Y021236D01*
X041654Y021165D01*
X041643Y021090D01*
X041643Y021072D01*
X042103Y021072D01*
X042103Y021532D01*
X042085Y021532D01*
X042010Y021520D01*
X041938Y021497D01*
X041910Y021483D02*
X039549Y021483D01*
X039390Y021641D02*
X039357Y021674D01*
X039356Y021675D01*
X039312Y021693D01*
X039268Y021711D01*
X039268Y021711D01*
X039268Y021711D01*
X039221Y021711D01*
X039173Y021711D01*
X039173Y021711D01*
X026934Y021684D01*
X026916Y024153D01*
X026928Y025599D01*
X026928Y025600D01*
X026928Y025647D01*
X026928Y025694D01*
X026928Y026369D01*
X026892Y026457D01*
X026824Y026524D01*
X026736Y026561D01*
X023059Y026561D01*
X023059Y026693D01*
X023072Y026698D01*
X023184Y026810D01*
X023240Y026947D01*
X023297Y026810D01*
X023409Y026698D01*
X023555Y026638D01*
X023713Y026638D01*
X023859Y026698D01*
X023971Y026810D01*
X024028Y026947D01*
X024084Y026810D01*
X024196Y026698D01*
X024342Y026638D01*
X024500Y026638D01*
X024647Y026698D01*
X024758Y026810D01*
X024806Y026925D01*
X024822Y026875D01*
X024852Y026817D01*
X024890Y026763D01*
X024937Y026717D01*
X024990Y026678D01*
X025049Y026648D01*
X025111Y026628D01*
X025176Y026618D01*
X025209Y026618D01*
X025242Y026618D01*
X025307Y026628D01*
X025369Y026648D01*
X025428Y026678D01*
X025481Y026717D01*
X025527Y026763D01*
X025566Y026817D01*
X025596Y026875D01*
X025602Y026896D01*
X025609Y026875D01*
X025639Y026817D01*
X025678Y026763D01*
X025724Y026717D01*
X025777Y026678D01*
X025836Y026648D01*
X025898Y026628D01*
X025963Y026618D01*
X025996Y026618D01*
X025996Y027035D01*
X025996Y027035D01*
X025209Y027035D01*
X025209Y026618D01*
X025209Y027035D01*
X025209Y027035D01*
X025209Y027035D01*
X025626Y027035D01*
X025996Y027035D01*
X025996Y027035D01*
X025996Y026618D01*
X026029Y026618D01*
X026094Y026628D01*
X026156Y026648D01*
X026215Y026678D01*
X026268Y026717D01*
X026315Y026763D01*
X026353Y026817D01*
X026383Y026875D01*
X026399Y026925D01*
X026447Y026810D01*
X026558Y026698D01*
X026705Y026638D01*
X026863Y026638D01*
X027009Y026698D01*
X027121Y026810D01*
X027177Y026947D01*
X027234Y026810D01*
X027346Y026698D01*
X027492Y026638D01*
X027650Y026638D01*
X027796Y026698D01*
X027908Y026810D01*
X027965Y026947D01*
X028021Y026810D01*
X028133Y026698D01*
X028279Y026638D01*
X028437Y026638D01*
X028584Y026698D01*
X028695Y026810D01*
X028752Y026947D01*
X028809Y026810D01*
X028921Y026698D01*
X029067Y026638D01*
X029159Y026638D01*
X029159Y024752D01*
X029288Y024623D01*
X029509Y024402D01*
X029509Y022470D01*
X029464Y022470D01*
X029371Y022377D01*
X029371Y021848D01*
X029464Y021754D01*
X029993Y021754D01*
X030087Y021848D01*
X030087Y022377D01*
X029993Y022470D01*
X029949Y022470D01*
X029949Y023437D01*
X030005Y023381D01*
X030312Y023381D01*
X030312Y022488D01*
X030268Y022488D01*
X030174Y022394D01*
X030174Y021866D01*
X030268Y021772D01*
X030797Y021772D01*
X030890Y021866D01*
X030890Y022394D01*
X030797Y022488D01*
X030752Y022488D01*
X030752Y023567D01*
X030627Y023692D01*
X030627Y023997D01*
X030792Y023832D01*
X041716Y023832D01*
X041733Y023792D01*
X041862Y023662D01*
X042031Y023592D01*
X042214Y023592D01*
X042383Y023662D01*
X042512Y023792D01*
X042583Y023961D01*
X042583Y024144D01*
X042512Y024313D01*
X042383Y024442D01*
X042214Y024512D01*
X042031Y024512D01*
X041862Y024442D01*
X041733Y024313D01*
X041716Y024272D01*
X030974Y024272D01*
X030114Y025132D01*
X030114Y026680D01*
X030158Y026698D01*
X030270Y026810D01*
X030327Y026947D01*
X030384Y026810D01*
X030476Y026718D01*
X030476Y025777D01*
X030604Y025648D01*
X031406Y024846D01*
X041710Y024846D01*
X041733Y024792D01*
X041862Y024662D01*
X042031Y024592D01*
X042214Y024592D01*
X042383Y024662D01*
X042512Y024792D01*
X042583Y024961D01*
X042583Y025144D01*
X042512Y025313D01*
X042383Y025442D01*
X042214Y025512D01*
X042031Y025512D01*
X041862Y025442D01*
X041733Y025313D01*
X041722Y025286D01*
X037450Y025286D01*
X037515Y025351D01*
X037725Y025560D01*
X038989Y025560D01*
X039118Y025689D01*
X039261Y025832D01*
X041716Y025832D01*
X041733Y025792D01*
X041862Y025662D01*
X042031Y025592D01*
X042214Y025592D01*
X042383Y025662D01*
X042512Y025792D01*
X042583Y025961D01*
X042583Y026144D01*
X042512Y026313D01*
X042383Y026442D01*
X042214Y026512D01*
X042031Y026512D01*
X041862Y026442D01*
X041733Y026313D01*
X041716Y026272D01*
X039100Y026272D01*
X039181Y026353D01*
X039181Y026832D01*
X041716Y026832D01*
X041733Y026792D01*
X041862Y026662D01*
X042031Y026592D01*
X042214Y026592D01*
X042383Y026662D01*
X042512Y026792D01*
X042583Y026961D01*
X042583Y027144D01*
X042512Y027313D01*
X042383Y027442D01*
X042214Y027512D01*
X042031Y027512D01*
X041862Y027442D01*
X041733Y027313D01*
X041716Y027272D01*
X038989Y027272D01*
X038880Y027163D01*
X038880Y027731D01*
X038981Y027832D01*
X041716Y027832D01*
X041733Y027792D01*
X041862Y027662D01*
X042031Y027592D01*
X042214Y027592D01*
X042383Y027662D01*
X042512Y027792D01*
X042583Y027961D01*
X042583Y028144D01*
X042512Y028313D01*
X042383Y028442D01*
X042214Y028512D01*
X042031Y028512D01*
X041862Y028442D01*
X041733Y028313D01*
X041716Y028272D01*
X038799Y028272D01*
X038569Y028042D01*
X038440Y027914D01*
X038440Y026936D01*
X038356Y026852D01*
X038162Y026852D01*
X038205Y026956D01*
X038205Y027114D01*
X038144Y027261D01*
X038049Y027356D01*
X038049Y027795D01*
X038012Y027883D01*
X037945Y027951D01*
X037656Y028239D01*
X037568Y028275D01*
X034627Y028275D01*
X033862Y029041D01*
X033773Y029077D01*
X011274Y029077D01*
X011186Y029041D01*
X011119Y028973D01*
X010635Y028490D01*
X010568Y028422D01*
X010550Y028379D01*
X010543Y028372D01*
X010506Y028284D01*
X010506Y024485D01*
X010482Y024485D01*
X010388Y024391D01*
X010388Y023862D01*
X010482Y023768D01*
X011010Y023768D01*
X011104Y023862D01*
X011104Y024391D01*
X011010Y024485D01*
X010986Y024485D01*
X010986Y028153D01*
X010993Y028168D01*
X011422Y028597D01*
X018475Y028597D01*
X018439Y028561D01*
X018310Y028432D01*
X018310Y028176D01*
X018265Y028285D01*
X018135Y028414D01*
X017966Y028484D01*
X017783Y028484D01*
X017614Y028414D01*
X017485Y028285D01*
X017415Y028116D01*
X017415Y027933D01*
X017485Y027764D01*
X017614Y027634D01*
X017783Y027564D01*
X017805Y027564D01*
X017772Y027531D01*
X017643Y027402D01*
X017643Y027063D01*
X016910Y027063D01*
X017011Y027164D01*
X017140Y027293D01*
X017140Y027639D01*
X017265Y027764D01*
X017335Y027933D01*
X017335Y028116D01*
X017265Y028285D01*
X017135Y028414D01*
X016966Y028484D01*
X016783Y028484D01*
X016614Y028414D01*
X016485Y028285D01*
X016415Y028116D01*
X016415Y027933D01*
X016485Y027764D01*
X016614Y027634D01*
X016700Y027599D01*
X016700Y027475D01*
X016365Y027140D01*
X014349Y027140D01*
X014220Y027011D01*
X014145Y026936D01*
X014145Y025408D01*
X014099Y025361D01*
X013972Y025361D01*
X013972Y025406D01*
X013923Y025454D01*
X013984Y025516D01*
X013984Y026045D01*
X013891Y026138D01*
X013846Y026138D01*
X013846Y026880D01*
X014193Y027227D01*
X015909Y027227D01*
X016138Y027456D01*
X016138Y027637D01*
X016265Y027764D01*
X016335Y027933D01*
X016335Y028116D01*
X016265Y028285D01*
X016135Y028414D01*
X015966Y028484D01*
X015783Y028484D01*
X015614Y028414D01*
X015485Y028285D01*
X015415Y028116D01*
X015415Y027933D01*
X015485Y027764D01*
X015582Y027667D01*
X015196Y027667D01*
X015241Y027712D01*
X015285Y027773D01*
X015320Y027840D01*
X015343Y027912D01*
X015355Y027986D01*
X015355Y028004D01*
X014895Y028004D01*
X014895Y028044D01*
X015355Y028044D01*
X015355Y028062D01*
X015343Y028137D01*
X015320Y028208D01*
X015285Y028276D01*
X015241Y028337D01*
X015188Y028390D01*
X015126Y028435D01*
X015059Y028469D01*
X014987Y028492D01*
X014913Y028504D01*
X014895Y028504D01*
X014895Y028044D01*
X014855Y028044D01*
X014855Y028004D01*
X014395Y028004D01*
X014395Y027986D01*
X014407Y027912D01*
X014430Y027840D01*
X014464Y027773D01*
X014509Y027712D01*
X014554Y027667D01*
X014168Y027667D01*
X014265Y027764D01*
X014335Y027933D01*
X014335Y028116D01*
X014265Y028285D01*
X014135Y028414D01*
X013966Y028484D01*
X013783Y028484D01*
X013614Y028414D01*
X013485Y028285D01*
X013415Y028116D01*
X013415Y027933D01*
X013485Y027764D01*
X013614Y027634D01*
X013783Y027564D01*
X013909Y027564D01*
X013882Y027538D01*
X013406Y027062D01*
X013406Y026138D01*
X013362Y026138D01*
X013271Y026047D01*
X013271Y026245D01*
X013177Y026339D01*
X013152Y026339D01*
X013152Y027651D01*
X013265Y027764D01*
X013335Y027933D01*
X013335Y028116D01*
X013265Y028285D01*
X013135Y028414D01*
X012966Y028484D01*
X012783Y028484D01*
X012614Y028414D01*
X012485Y028285D01*
X012415Y028116D01*
X012415Y027933D01*
X012485Y027764D01*
X012614Y027634D01*
X012672Y027610D01*
X012672Y026339D01*
X012648Y026339D01*
X012554Y026245D01*
X012554Y026059D01*
X012513Y026101D01*
X011984Y026101D01*
X011891Y026007D01*
X011891Y025478D01*
X011984Y025385D01*
X012029Y025385D01*
X012029Y023985D01*
X012467Y023547D01*
X012596Y023418D01*
X013544Y023418D01*
X013544Y023361D01*
X013637Y023267D01*
X014108Y023267D01*
X014108Y022802D01*
X013319Y022013D01*
X013319Y018508D01*
X013274Y018508D01*
X013180Y018415D01*
X013180Y017886D01*
X013274Y017792D01*
X013803Y017792D01*
X013875Y017864D01*
X013875Y017268D01*
X013650Y017043D01*
X010629Y017043D01*
X010500Y016914D01*
X010098Y016513D01*
X010098Y013056D01*
X009874Y013056D01*
X009745Y012927D01*
X009359Y012542D01*
X009359Y011304D01*
X008990Y010934D01*
X007222Y010934D01*
X007093Y010805D01*
X006949Y010661D01*
X006949Y009936D01*
X006908Y009919D01*
X006779Y009790D01*
X006709Y009621D01*
X006709Y009438D01*
X006779Y009269D01*
X006908Y009139D01*
X007077Y009069D01*
X007260Y009069D01*
X007429Y009139D01*
X007559Y009269D01*
X007629Y009438D01*
X007629Y009621D01*
X007559Y009790D01*
X007429Y009919D01*
X007389Y009936D01*
X007389Y010478D01*
X007404Y010494D01*
X009172Y010494D01*
X009670Y010992D01*
X009799Y011121D01*
X009799Y012359D01*
X010056Y012616D01*
X010345Y012616D01*
X010409Y012680D01*
X010538Y012809D01*
X010538Y016330D01*
X010811Y016603D01*
X013832Y016603D01*
X014186Y016957D01*
X014315Y017086D01*
X014315Y019353D01*
X014703Y019353D01*
X014797Y019447D01*
X014797Y019843D01*
X014892Y019965D01*
X014918Y019991D01*
X014918Y015798D01*
X015047Y015669D01*
X015560Y015156D01*
X015560Y011264D01*
X015503Y011240D01*
X015374Y011111D01*
X015304Y010942D01*
X015304Y010759D01*
X015374Y010590D01*
X015503Y010460D01*
X015544Y010443D01*
X015544Y009278D01*
X015068Y009278D01*
X015084Y009294D02*
X015154Y009463D01*
X015154Y009646D01*
X015084Y009815D01*
X014955Y009945D01*
X014786Y010015D01*
X014603Y010015D01*
X014434Y009945D01*
X014304Y009815D01*
X014234Y009646D01*
X014234Y009463D01*
X014304Y009294D01*
X014434Y009165D01*
X014603Y009095D01*
X014786Y009095D01*
X014955Y009165D01*
X015084Y009294D01*
X015143Y009437D02*
X015544Y009437D01*
X015544Y009595D02*
X015154Y009595D01*
X015110Y009754D02*
X015544Y009754D01*
X015544Y009912D02*
X014987Y009912D01*
X014855Y010390D02*
X015024Y010460D01*
X015153Y010590D01*
X015224Y010759D01*
X015224Y010942D01*
X015153Y011111D01*
X015024Y011240D01*
X014855Y011310D01*
X014672Y011310D01*
X014503Y011240D01*
X014374Y011111D01*
X014304Y010942D01*
X014304Y010759D01*
X014374Y010590D01*
X014503Y010460D01*
X014672Y010390D01*
X014855Y010390D01*
X015110Y010546D02*
X015417Y010546D01*
X015326Y010705D02*
X015201Y010705D01*
X015224Y010863D02*
X015304Y010863D01*
X015337Y011022D02*
X015190Y011022D01*
X015084Y011180D02*
X015443Y011180D01*
X015560Y011339D02*
X009799Y011339D01*
X009799Y011497D02*
X015560Y011497D01*
X015560Y011656D02*
X012328Y011656D01*
X012328Y011632D02*
X012328Y012161D01*
X012234Y012254D01*
X012190Y012254D01*
X012190Y013959D01*
X012203Y013972D01*
X012514Y013972D01*
X012608Y014066D01*
X012608Y014595D01*
X012514Y014689D01*
X011986Y014689D01*
X011892Y014595D01*
X011892Y014284D01*
X011750Y014141D01*
X011750Y012254D01*
X011705Y012254D01*
X011611Y012161D01*
X011611Y011632D01*
X011705Y011538D01*
X012234Y011538D01*
X012328Y011632D01*
X012328Y011814D02*
X015560Y011814D01*
X015560Y011973D02*
X012328Y011973D01*
X012328Y012131D02*
X015560Y012131D01*
X015560Y012290D02*
X012190Y012290D01*
X012190Y012448D02*
X015560Y012448D01*
X015560Y012607D02*
X012190Y012607D01*
X012190Y012765D02*
X015560Y012765D01*
X015560Y012924D02*
X012190Y012924D01*
X012190Y013082D02*
X015560Y013082D01*
X015560Y013241D02*
X012190Y013241D01*
X012190Y013399D02*
X015560Y013399D01*
X015560Y013558D02*
X012190Y013558D01*
X012190Y013716D02*
X015560Y013716D01*
X015560Y013875D02*
X012190Y013875D01*
X012575Y014033D02*
X015560Y014033D01*
X015560Y014192D02*
X012608Y014192D01*
X012608Y014350D02*
X015560Y014350D01*
X015560Y014509D02*
X012608Y014509D01*
X012536Y014667D02*
X015560Y014667D01*
X015560Y014826D02*
X011798Y014826D01*
X011798Y014721D02*
X011798Y015250D01*
X011704Y015344D01*
X011175Y015344D01*
X011081Y015250D01*
X011081Y014939D01*
X010970Y014828D01*
X010970Y012566D01*
X010926Y012566D01*
X010832Y012473D01*
X010832Y011944D01*
X010926Y011850D01*
X011455Y011850D01*
X011548Y011944D01*
X011548Y012473D01*
X011455Y012566D01*
X011410Y012566D01*
X011410Y014628D01*
X011704Y014628D01*
X011798Y014721D01*
X011743Y014667D02*
X011964Y014667D01*
X011892Y014509D02*
X011410Y014509D01*
X011410Y014350D02*
X011892Y014350D01*
X011800Y014192D02*
X011410Y014192D01*
X011410Y014033D02*
X011750Y014033D01*
X011750Y013875D02*
X011410Y013875D01*
X011410Y013716D02*
X011750Y013716D01*
X011750Y013558D02*
X011410Y013558D01*
X011410Y013399D02*
X011750Y013399D01*
X011750Y013241D02*
X011410Y013241D01*
X011410Y013082D02*
X011750Y013082D01*
X011750Y012924D02*
X011410Y012924D01*
X011410Y012765D02*
X011750Y012765D01*
X011750Y012607D02*
X011410Y012607D01*
X011548Y012448D02*
X011750Y012448D01*
X011750Y012290D02*
X011548Y012290D01*
X011548Y012131D02*
X011611Y012131D01*
X011611Y011973D02*
X011548Y011973D01*
X011611Y011814D02*
X009799Y011814D01*
X009799Y011656D02*
X011611Y011656D01*
X012020Y011165D02*
X011891Y011035D01*
X011821Y010866D01*
X011821Y010683D01*
X011891Y010514D01*
X012020Y010385D01*
X012189Y010315D01*
X012372Y010315D01*
X012541Y010385D01*
X012671Y010514D01*
X012741Y010683D01*
X012741Y010866D01*
X012671Y011035D01*
X012541Y011165D01*
X012372Y011235D01*
X012189Y011235D01*
X012020Y011165D01*
X012057Y011180D02*
X009799Y011180D01*
X009699Y011022D02*
X011885Y011022D01*
X011821Y010863D02*
X009541Y010863D01*
X009382Y010705D02*
X011821Y010705D01*
X011878Y010546D02*
X009224Y010546D01*
X009077Y011022D02*
X004632Y011022D01*
X004632Y011180D02*
X009236Y011180D01*
X009359Y011339D02*
X004632Y011339D01*
X004632Y011497D02*
X009359Y011497D01*
X009359Y011656D02*
X004632Y011656D01*
X004632Y011814D02*
X009359Y011814D01*
X009359Y011973D02*
X004632Y011973D01*
X004632Y012131D02*
X009359Y012131D01*
X009359Y012290D02*
X004632Y012290D01*
X004632Y012448D02*
X009359Y012448D01*
X009424Y012607D02*
X004632Y012607D01*
X004632Y012765D02*
X009583Y012765D01*
X009741Y012924D02*
X004632Y012924D01*
X004632Y013082D02*
X010098Y013082D01*
X010098Y013241D02*
X004630Y013241D01*
X004630Y013293D02*
X004536Y013387D01*
X004348Y013387D01*
X004343Y013389D01*
X004200Y013389D01*
X004195Y013387D01*
X004007Y013387D01*
X003914Y013293D01*
X003914Y013105D01*
X003912Y013101D01*
X003912Y007074D01*
X003966Y006942D01*
X005193Y005715D01*
X005294Y005614D01*
X005426Y005559D01*
X007335Y005559D01*
X007430Y005465D01*
X007531Y005363D01*
X007663Y005308D01*
X014981Y005308D01*
X015113Y005363D01*
X015560Y005810D01*
X016355Y005810D01*
X016398Y005767D01*
X016567Y005697D01*
X016750Y005697D01*
X016919Y005767D01*
X017049Y005897D01*
X017119Y006066D01*
X017119Y006249D01*
X017049Y006418D01*
X016919Y006547D01*
X016750Y006617D01*
X016567Y006617D01*
X016398Y006547D01*
X016381Y006530D01*
X015339Y006530D01*
X015207Y006475D01*
X015106Y006374D01*
X014760Y006028D01*
X009330Y006028D01*
X009330Y006903D01*
X009281Y007021D01*
X009191Y007111D01*
X008489Y007813D01*
X008489Y009199D01*
X008559Y009269D01*
X008629Y009438D01*
X008629Y009621D01*
X008559Y009790D01*
X008429Y009919D01*
X008260Y009989D01*
X008077Y009989D01*
X007908Y009919D01*
X007779Y009790D01*
X007709Y009621D01*
X007709Y009438D01*
X007779Y009269D01*
X007849Y009199D01*
X007849Y007617D01*
X007897Y007499D01*
X008690Y006707D01*
X008690Y006028D01*
X007884Y006028D01*
X007688Y006225D01*
X007556Y006279D01*
X005647Y006279D01*
X004632Y007295D01*
X004632Y013101D01*
X004630Y013105D01*
X004630Y013293D01*
X003914Y013241D02*
X001779Y013241D01*
X001780Y013399D02*
X010098Y013399D01*
X010098Y013558D02*
X001781Y013558D01*
X001775Y013716D02*
X010098Y013716D01*
X010098Y013875D02*
X001768Y013875D01*
X001761Y014033D02*
X002270Y014033D01*
X002281Y014022D02*
X002810Y014022D01*
X002904Y014116D01*
X002904Y014645D01*
X002829Y014719D01*
X002829Y016534D01*
X003686Y017391D01*
X003697Y017397D01*
X003720Y017424D01*
X003745Y017450D01*
X003750Y017461D01*
X003758Y017471D01*
X003768Y017505D01*
X003782Y017538D01*
X003782Y017550D01*
X003785Y017562D01*
X003782Y017598D01*
X003782Y017633D01*
X003777Y017645D01*
X003758Y017834D01*
X003839Y017916D01*
X003839Y018444D01*
X003746Y018538D01*
X003217Y018538D01*
X003123Y018444D01*
X003123Y017916D01*
X003217Y017822D01*
X003276Y017822D01*
X003291Y017675D01*
X002453Y016837D01*
X002386Y016769D01*
X002349Y016681D01*
X002349Y014738D01*
X002281Y014738D01*
X002188Y014645D01*
X002188Y014116D01*
X002281Y014022D01*
X002188Y014192D02*
X001760Y014192D01*
X001759Y014350D02*
X002188Y014350D01*
X002188Y014509D02*
X001758Y014509D01*
X001758Y014667D02*
X002210Y014667D01*
X002349Y014826D02*
X001757Y014826D01*
X001756Y014984D02*
X002349Y014984D01*
X002349Y015143D02*
X001755Y015143D01*
X001754Y015301D02*
X002349Y015301D01*
X002349Y015460D02*
X001753Y015460D01*
X001753Y015618D02*
X002349Y015618D01*
X002349Y015777D02*
X001752Y015777D01*
X001751Y015935D02*
X002349Y015935D01*
X002349Y016094D02*
X001750Y016094D01*
X001749Y016252D02*
X002349Y016252D01*
X002349Y016411D02*
X001748Y016411D01*
X001748Y016569D02*
X002349Y016569D01*
X002368Y016728D02*
X001747Y016728D01*
X001746Y016886D02*
X002503Y016886D01*
X002661Y017045D02*
X001745Y017045D01*
X001744Y017203D02*
X002820Y017203D01*
X002978Y017362D02*
X001743Y017362D01*
X001743Y017520D02*
X003137Y017520D01*
X003291Y017679D02*
X001742Y017679D01*
X001741Y017837D02*
X003202Y017837D01*
X003123Y017996D02*
X001740Y017996D01*
X001739Y018154D02*
X003123Y018154D01*
X003123Y018313D02*
X001738Y018313D01*
X001738Y018471D02*
X003150Y018471D01*
X003481Y018180D02*
X003542Y017586D01*
X002589Y016633D01*
X002589Y014423D01*
X002546Y014380D01*
X002904Y014350D02*
X010098Y014350D01*
X010098Y014192D02*
X002904Y014192D01*
X002821Y014033D02*
X010098Y014033D01*
X010538Y014033D02*
X010970Y014033D01*
X010970Y013875D02*
X010538Y013875D01*
X010538Y013716D02*
X010970Y013716D01*
X010970Y013558D02*
X010538Y013558D01*
X010538Y013399D02*
X010970Y013399D01*
X010970Y013241D02*
X010538Y013241D01*
X010538Y013082D02*
X010970Y013082D01*
X010970Y012924D02*
X010538Y012924D01*
X010494Y012765D02*
X010970Y012765D01*
X010970Y012607D02*
X010046Y012607D01*
X009888Y012448D02*
X010832Y012448D01*
X010832Y012290D02*
X009799Y012290D01*
X009799Y012131D02*
X010832Y012131D01*
X010832Y011973D02*
X009799Y011973D01*
X012017Y010388D02*
X007389Y010388D01*
X007389Y010229D02*
X015544Y010229D01*
X015544Y010071D02*
X007389Y010071D01*
X007436Y009912D02*
X007901Y009912D01*
X007764Y009754D02*
X007574Y009754D01*
X007629Y009595D02*
X007709Y009595D01*
X007709Y009437D02*
X007628Y009437D01*
X007563Y009278D02*
X007775Y009278D01*
X007849Y009120D02*
X007382Y009120D01*
X006956Y009120D02*
X006382Y009120D01*
X006429Y009139D02*
X006559Y009269D01*
X006629Y009438D01*
X006629Y009621D01*
X006559Y009790D01*
X006429Y009919D01*
X006260Y009989D01*
X006077Y009989D01*
X005908Y009919D01*
X005779Y009790D01*
X005709Y009621D01*
X005709Y009438D01*
X005779Y009269D01*
X005908Y009139D01*
X006077Y009069D01*
X006260Y009069D01*
X006429Y009139D01*
X006563Y009278D02*
X006775Y009278D01*
X006709Y009437D02*
X006628Y009437D01*
X006629Y009595D02*
X006709Y009595D01*
X006764Y009754D02*
X006574Y009754D01*
X006436Y009912D02*
X006901Y009912D01*
X006949Y010071D02*
X004632Y010071D01*
X004632Y010229D02*
X006949Y010229D01*
X006949Y010388D02*
X004632Y010388D01*
X004632Y010546D02*
X006949Y010546D01*
X006993Y010705D02*
X004632Y010705D01*
X004632Y010863D02*
X007151Y010863D01*
X005901Y009912D02*
X005458Y009912D01*
X005481Y009895D02*
X005420Y009940D01*
X005353Y009974D01*
X005281Y009997D01*
X005206Y010009D01*
X005189Y010009D01*
X005189Y009549D01*
X005649Y009549D01*
X005649Y009567D01*
X005637Y009642D01*
X005614Y009713D01*
X005579Y009781D01*
X005535Y009842D01*
X005481Y009895D01*
X005593Y009754D02*
X005764Y009754D01*
X005709Y009595D02*
X005644Y009595D01*
X005649Y009509D02*
X005189Y009509D01*
X005189Y009549D01*
X005149Y009549D01*
X005149Y010009D01*
X005131Y010009D01*
X005056Y009997D01*
X004984Y009974D01*
X004917Y009940D01*
X004856Y009895D01*
X004803Y009842D01*
X004758Y009781D01*
X004724Y009713D01*
X004700Y009642D01*
X004689Y009567D01*
X004689Y009549D01*
X005149Y009549D01*
X005149Y009509D01*
X005189Y009509D01*
X005189Y009049D01*
X005206Y009049D01*
X005281Y009061D01*
X005353Y009084D01*
X005420Y009119D01*
X005481Y009163D01*
X005535Y009216D01*
X005579Y009278D01*
X005775Y009278D01*
X005709Y009437D02*
X005640Y009437D01*
X005637Y009417D02*
X005649Y009491D01*
X005649Y009509D01*
X005637Y009417D02*
X005614Y009345D01*
X005579Y009278D01*
X005422Y009120D02*
X005956Y009120D01*
X005189Y009120D02*
X005149Y009120D01*
X005149Y009049D02*
X005149Y009509D01*
X004689Y009509D01*
X004689Y009491D01*
X004700Y009417D01*
X004724Y009345D01*
X004758Y009278D01*
X004632Y009278D01*
X004758Y009278D02*
X004803Y009216D01*
X004856Y009163D01*
X004917Y009119D01*
X004984Y009084D01*
X005056Y009061D01*
X005131Y009049D01*
X005149Y009049D01*
X005149Y009278D02*
X005189Y009278D01*
X005189Y009437D02*
X005149Y009437D01*
X005149Y009595D02*
X005189Y009595D01*
X005189Y009754D02*
X005149Y009754D01*
X005149Y009912D02*
X005189Y009912D01*
X004879Y009912D02*
X004632Y009912D01*
X004632Y009754D02*
X004744Y009754D01*
X004693Y009595D02*
X004632Y009595D01*
X004632Y009437D02*
X004697Y009437D01*
X004632Y009120D02*
X004916Y009120D01*
X004632Y008961D02*
X007849Y008961D01*
X007849Y008803D02*
X004632Y008803D01*
X004632Y008644D02*
X007849Y008644D01*
X007849Y008486D02*
X004632Y008486D01*
X004632Y008327D02*
X007849Y008327D01*
X007849Y008169D02*
X004632Y008169D01*
X004632Y008010D02*
X007849Y008010D01*
X007849Y007852D02*
X004632Y007852D01*
X004632Y007693D02*
X007849Y007693D01*
X007883Y007535D02*
X004632Y007535D01*
X004632Y007376D02*
X008021Y007376D01*
X008179Y007218D02*
X004709Y007218D01*
X004867Y007059D02*
X008338Y007059D01*
X008496Y006901D02*
X005026Y006901D01*
X005184Y006742D02*
X008655Y006742D01*
X008690Y006584D02*
X005343Y006584D01*
X005501Y006425D02*
X008690Y006425D01*
X008690Y006267D02*
X007587Y006267D01*
X007804Y006108D02*
X008690Y006108D01*
X009330Y006108D02*
X010049Y006108D01*
X010082Y006097D02*
X010151Y006086D01*
X010177Y006086D01*
X010177Y006523D01*
X010195Y006523D01*
X010195Y006524D02*
X010195Y006541D01*
X010632Y006541D01*
X010632Y006567D01*
X010621Y006636D01*
X010599Y006703D01*
X010572Y006756D01*
X010794Y006756D01*
X010769Y006707D01*
X010747Y006640D01*
X010736Y006571D01*
X010736Y006545D01*
X011173Y006545D01*
X011173Y006527D01*
X011191Y006527D01*
X011191Y006545D01*
X011628Y006545D01*
X011628Y006571D01*
X011617Y006640D01*
X011595Y006707D01*
X011570Y006756D01*
X011814Y006756D01*
X011756Y006617D01*
X011756Y006447D01*
X011821Y006291D01*
X011941Y006171D01*
X012097Y006106D01*
X012267Y006106D01*
X012423Y006171D01*
X012543Y006291D01*
X012608Y006447D01*
X012608Y006617D01*
X012543Y006773D01*
X012423Y006893D01*
X012400Y006903D01*
X012281Y007022D01*
X012107Y007196D01*
X011940Y007196D01*
X012043Y007299D01*
X012108Y007455D01*
X012108Y007625D01*
X012043Y007781D01*
X011923Y007901D01*
X011767Y007966D01*
X011597Y007966D01*
X011441Y007901D01*
X011321Y007781D01*
X011256Y007625D01*
X011256Y007455D01*
X011321Y007299D01*
X011424Y007196D01*
X010984Y007196D01*
X011030Y007242D01*
X011071Y007298D01*
X011103Y007361D01*
X011125Y007428D01*
X011136Y007497D01*
X011136Y007524D01*
X010698Y007524D01*
X010698Y007541D01*
X010681Y007541D01*
X010681Y007978D01*
X010655Y007978D01*
X010586Y007967D01*
X010519Y007945D01*
X010456Y007913D01*
X010399Y007872D01*
X010350Y007822D01*
X010309Y007766D01*
X010277Y007703D01*
X010255Y007636D01*
X010244Y007567D01*
X010244Y007541D01*
X010681Y007541D01*
X010681Y007524D01*
X010244Y007524D01*
X010244Y007497D01*
X010252Y007450D01*
X010168Y007534D01*
X009639Y007534D01*
X009545Y007440D01*
X009545Y006911D01*
X009639Y006817D01*
X009842Y006817D01*
X009805Y006766D01*
X009773Y006703D01*
X009751Y006636D01*
X009740Y006567D01*
X009740Y006541D01*
X010177Y006541D01*
X010177Y006524D01*
X009740Y006524D01*
X009740Y006497D01*
X009751Y006428D01*
X009773Y006361D01*
X009805Y006298D01*
X009846Y006242D01*
X009896Y006192D01*
X009952Y006151D01*
X010015Y006119D01*
X010082Y006097D01*
X010177Y006108D02*
X010195Y006108D01*
X010195Y006086D02*
X010221Y006086D01*
X010290Y006097D01*
X010357Y006119D01*
X010420Y006151D01*
X010476Y006192D01*
X010526Y006242D01*
X010567Y006298D01*
X010599Y006361D01*
X010621Y006428D01*
X010632Y006497D01*
X010632Y006524D01*
X010195Y006524D01*
X010195Y006523D02*
X010195Y006086D01*
X010323Y006108D02*
X011057Y006108D01*
X011078Y006101D02*
X011147Y006090D01*
X011173Y006090D01*
X011173Y006527D01*
X010736Y006527D01*
X010736Y006501D01*
X010747Y006432D01*
X010769Y006365D01*
X010801Y006302D01*
X010842Y006246D01*
X010892Y006196D01*
X010948Y006155D01*
X011011Y006123D01*
X011078Y006101D01*
X011173Y006108D02*
X011191Y006108D01*
X011191Y006090D02*
X011217Y006090D01*
X011286Y006101D01*
X011353Y006123D01*
X011416Y006155D01*
X011472Y006196D01*
X011522Y006246D01*
X011563Y006302D01*
X011595Y006365D01*
X011617Y006432D01*
X011628Y006501D01*
X011628Y006527D01*
X011191Y006527D01*
X011191Y006090D01*
X011307Y006108D02*
X012093Y006108D01*
X012271Y006108D02*
X013085Y006108D01*
X013089Y006106D02*
X013259Y006106D01*
X013415Y006171D01*
X013535Y006291D01*
X013600Y006447D01*
X013600Y006617D01*
X013535Y006773D01*
X013415Y006893D01*
X013259Y006958D01*
X013089Y006958D01*
X012933Y006893D01*
X012813Y006773D01*
X012748Y006617D01*
X012748Y006447D01*
X012813Y006291D01*
X012933Y006171D01*
X013089Y006106D01*
X013263Y006108D02*
X014839Y006108D01*
X014998Y006267D02*
X013511Y006267D01*
X013591Y006425D02*
X015156Y006425D01*
X015541Y005791D02*
X016374Y005791D01*
X016943Y005791D02*
X018440Y005791D01*
X018414Y005633D02*
X015382Y005633D01*
X015224Y005474D02*
X018414Y005474D01*
X018425Y005316D02*
X014998Y005316D01*
X014661Y004840D02*
X018708Y004840D01*
X018557Y004999D02*
X001785Y004999D01*
X001785Y005157D02*
X018491Y005157D01*
X018914Y004682D02*
X014847Y004682D01*
X012838Y006267D02*
X012519Y006267D01*
X012598Y006425D02*
X012758Y006425D01*
X012748Y006584D02*
X012608Y006584D01*
X012556Y006742D02*
X012800Y006742D01*
X012951Y006901D02*
X012405Y006901D01*
X012244Y007059D02*
X016202Y007059D01*
X016199Y007066D02*
X016269Y006897D01*
X016398Y006767D01*
X016567Y006697D01*
X016750Y006697D01*
X016919Y006767D01*
X017049Y006897D01*
X017119Y007066D01*
X017119Y007249D01*
X017049Y007418D01*
X016919Y007547D01*
X016750Y007617D01*
X016567Y007617D01*
X016398Y007547D01*
X016269Y007418D01*
X016199Y007249D01*
X016199Y007066D01*
X016199Y007218D02*
X013970Y007218D01*
X013927Y007175D02*
X014470Y007717D01*
X016519Y007717D01*
X016567Y007697D01*
X016750Y007697D01*
X016919Y007767D01*
X017049Y007897D01*
X017119Y008066D01*
X017119Y008249D01*
X017049Y008418D01*
X016919Y008547D01*
X016750Y008617D01*
X016567Y008617D01*
X016519Y008597D01*
X015485Y008597D01*
X015502Y008613D01*
X015984Y009095D01*
X015984Y010443D01*
X016024Y010460D01*
X016153Y010590D01*
X016224Y010759D01*
X016224Y010942D01*
X016153Y011111D01*
X016024Y011240D01*
X016000Y011250D01*
X016000Y015339D01*
X015871Y015468D01*
X015871Y015468D01*
X015358Y015980D01*
X015358Y021731D01*
X015521Y021731D01*
X015615Y021825D01*
X015615Y022354D01*
X015521Y022447D01*
X015053Y022447D01*
X015203Y022624D01*
X015261Y022682D01*
X015261Y022693D01*
X015268Y022700D01*
X015261Y022782D01*
X015261Y023851D01*
X015881Y023851D01*
X017186Y023846D01*
X017251Y023832D01*
X017274Y023846D01*
X017302Y023846D01*
X017349Y023893D01*
X017405Y023928D01*
X017411Y023955D01*
X017431Y023974D01*
X017431Y024041D01*
X017590Y024733D01*
X017685Y024733D01*
X017779Y024827D01*
X017779Y025356D01*
X017685Y025449D01*
X017156Y025449D01*
X017063Y025356D01*
X017063Y024827D01*
X017142Y024748D01*
X017036Y024287D01*
X016770Y024288D01*
X016770Y024813D01*
X016676Y024907D01*
X016148Y024907D01*
X016054Y024813D01*
X016054Y024769D01*
X015912Y024769D01*
X015912Y024803D01*
X015818Y024897D01*
X015359Y024897D01*
X015359Y024926D01*
X015266Y025019D01*
X015221Y025019D01*
X015222Y026219D01*
X015222Y026310D01*
X015222Y026401D01*
X015222Y026415D01*
X015247Y026454D01*
X016706Y026437D01*
X016707Y026436D01*
X016797Y026436D01*
X016887Y026435D01*
X016888Y026436D01*
X016889Y026436D01*
X016953Y026499D01*
X017017Y026562D01*
X017017Y026563D01*
X017077Y026623D01*
X017752Y026623D01*
X017752Y026118D01*
X017804Y026065D01*
X017804Y022881D01*
X017759Y022881D01*
X017666Y022787D01*
X017666Y022258D01*
X017759Y022164D01*
X018288Y022164D01*
X018382Y022258D01*
X018382Y022787D01*
X018288Y022881D01*
X018244Y022881D01*
X018244Y026024D01*
X018374Y026024D01*
X018468Y026118D01*
X018468Y026646D01*
X018374Y026740D01*
X017954Y026740D01*
X018083Y026869D01*
X018083Y027185D01*
X018364Y027185D01*
X018493Y027313D01*
X018750Y027571D01*
X018750Y028250D01*
X018832Y028332D01*
X019301Y028332D01*
X019301Y027892D01*
X019395Y027799D01*
X019439Y027799D01*
X019439Y027331D01*
X018730Y026621D01*
X018601Y026493D01*
X018601Y024457D01*
X018667Y024391D01*
X018667Y024079D01*
X018761Y023986D01*
X019290Y023986D01*
X019384Y024079D01*
X019384Y024608D01*
X019290Y024702D01*
X019041Y024702D01*
X019041Y026310D01*
X019879Y027149D01*
X019879Y027799D01*
X019924Y027799D01*
X020017Y027892D01*
X020017Y028332D01*
X029297Y028332D01*
X029305Y028320D01*
X029305Y027400D01*
X029225Y027433D01*
X029067Y027433D01*
X028921Y027372D01*
X028809Y027261D01*
X028752Y027124D01*
X028695Y027261D01*
X028584Y027372D01*
X028437Y027433D01*
X028279Y027433D01*
X028133Y027372D01*
X028021Y027261D01*
X027965Y027124D01*
X027908Y027261D01*
X027796Y027372D01*
X027650Y027433D01*
X027492Y027433D01*
X027346Y027372D01*
X027234Y027261D01*
X027177Y027124D01*
X027121Y027261D01*
X027009Y027372D01*
X026863Y027433D01*
X026705Y027433D01*
X026558Y027372D01*
X026447Y027261D01*
X026399Y027146D01*
X026383Y027196D01*
X026353Y027254D01*
X026315Y027307D01*
X026268Y027354D01*
X026215Y027392D01*
X026156Y027422D01*
X026094Y027443D01*
X026029Y027453D01*
X025996Y027453D01*
X025963Y027453D01*
X025898Y027443D01*
X025836Y027422D01*
X025777Y027392D01*
X025724Y027354D01*
X025678Y027307D01*
X025639Y027254D01*
X025609Y027196D01*
X025602Y027175D01*
X025596Y027196D01*
X025566Y027254D01*
X025527Y027307D01*
X025481Y027354D01*
X025428Y027392D01*
X025369Y027422D01*
X025307Y027443D01*
X025242Y027453D01*
X025209Y027453D01*
X025209Y027035D01*
X025209Y027035D01*
X025209Y027453D01*
X025176Y027453D01*
X025111Y027443D01*
X025049Y027422D01*
X024990Y027392D01*
X024937Y027354D01*
X024890Y027307D01*
X024852Y027254D01*
X024822Y027196D01*
X024806Y027146D01*
X024758Y027261D01*
X024647Y027372D01*
X024500Y027433D01*
X024342Y027433D01*
X024196Y027372D01*
X024084Y027261D01*
X024028Y027124D01*
X023971Y027261D01*
X023859Y027372D01*
X023713Y027433D01*
X023555Y027433D01*
X023409Y027372D01*
X023297Y027261D01*
X023240Y027124D01*
X023184Y027261D01*
X023072Y027372D01*
X022926Y027433D01*
X022768Y027433D01*
X022621Y027372D01*
X022510Y027261D01*
X022449Y027114D01*
X022449Y026956D01*
X022510Y026810D01*
X022579Y026741D01*
X022579Y026273D01*
X022616Y026185D01*
X022683Y026117D01*
X022771Y026081D01*
X026448Y026081D01*
X026448Y025649D01*
X026437Y024201D01*
X026436Y024199D01*
X026436Y024153D01*
X026436Y024107D01*
X026437Y024106D01*
X026455Y021442D01*
X026455Y021395D01*
X026456Y021394D01*
X026456Y021394D01*
X026474Y021350D01*
X026492Y021307D01*
X026493Y021306D01*
X026527Y021272D01*
X026560Y021239D01*
X026560Y021239D01*
X026561Y021239D01*
X026605Y021221D01*
X026648Y021203D01*
X026649Y021203D01*
X026649Y021203D01*
X026696Y021203D01*
X038501Y021229D01*
X038466Y021194D01*
X038466Y020665D01*
X038559Y020571D01*
X038601Y020571D01*
X038594Y015933D01*
X038511Y016016D01*
X037982Y016016D01*
X037889Y015923D01*
X037889Y015394D01*
X037982Y015300D01*
X038007Y015300D01*
X038007Y014785D01*
X037886Y014834D01*
X037728Y014834D01*
X037582Y014774D01*
X037470Y014662D01*
X037414Y014525D01*
X037357Y014662D01*
X037245Y014774D01*
X037099Y014834D01*
X036941Y014834D01*
X036795Y014774D01*
X036683Y014662D01*
X036626Y014525D01*
X036569Y014662D01*
X036458Y014774D01*
X036311Y014834D01*
X036153Y014834D01*
X036007Y014774D01*
X035895Y014662D01*
X035839Y014525D01*
X035782Y014662D01*
X035670Y014774D01*
X035524Y014834D01*
X035366Y014834D01*
X035220Y014774D01*
X035108Y014662D01*
X035051Y014525D01*
X034995Y014662D01*
X034883Y014774D01*
X034737Y014834D01*
X034579Y014834D01*
X034432Y014774D01*
X034321Y014662D01*
X034264Y014525D01*
X034207Y014662D01*
X034095Y014774D01*
X033949Y014834D01*
X033791Y014834D01*
X033645Y014774D01*
X033533Y014662D01*
X033476Y014525D01*
X033420Y014662D01*
X033308Y014774D01*
X033162Y014834D01*
X033004Y014834D01*
X032858Y014774D01*
X032746Y014662D01*
X032689Y014525D01*
X032632Y014662D01*
X032521Y014774D01*
X032374Y014834D01*
X032216Y014834D01*
X032070Y014774D01*
X031958Y014662D01*
X031911Y014548D01*
X031895Y014597D01*
X031865Y014656D01*
X031826Y014709D01*
X031780Y014755D01*
X031727Y014794D01*
X031668Y014824D01*
X031606Y014844D01*
X031541Y014854D01*
X031508Y014854D01*
X031508Y014437D01*
X031508Y014437D01*
X031508Y014854D01*
X031475Y014854D01*
X031410Y014844D01*
X031348Y014824D01*
X031289Y014794D01*
X031236Y014755D01*
X031190Y014709D01*
X031151Y014656D01*
X031121Y014597D01*
X031105Y014548D01*
X031058Y014662D01*
X030946Y014774D01*
X030800Y014834D01*
X030642Y014834D01*
X030495Y014774D01*
X030384Y014662D01*
X030327Y014525D01*
X030270Y014662D01*
X030158Y014774D01*
X030012Y014834D01*
X029854Y014834D01*
X029708Y014774D01*
X029596Y014662D01*
X029539Y014525D01*
X029483Y014662D01*
X029371Y014774D01*
X029225Y014834D01*
X029067Y014834D01*
X028921Y014774D01*
X028809Y014662D01*
X028752Y014525D01*
X028695Y014662D01*
X028584Y014774D01*
X028437Y014834D01*
X028279Y014834D01*
X028133Y014774D01*
X028021Y014662D01*
X027965Y014525D01*
X027908Y014662D01*
X027796Y014774D01*
X027650Y014834D01*
X027492Y014834D01*
X027346Y014774D01*
X027234Y014662D01*
X027187Y014548D01*
X027170Y014597D01*
X027141Y014656D01*
X027102Y014709D01*
X027056Y014755D01*
X027002Y014794D01*
X026944Y014824D01*
X026881Y014844D01*
X026816Y014854D01*
X026784Y014854D01*
X026784Y014437D01*
X026784Y014437D01*
X026784Y014019D01*
X026816Y014019D01*
X026881Y014030D01*
X026944Y014050D01*
X027002Y014080D01*
X027056Y014118D01*
X027102Y014165D01*
X027141Y014218D01*
X027170Y014277D01*
X027187Y014326D01*
X027234Y014212D01*
X027346Y014100D01*
X027492Y014039D01*
X027650Y014039D01*
X027796Y014100D01*
X027908Y014212D01*
X027965Y014349D01*
X028021Y014212D01*
X028133Y014100D01*
X028279Y014039D01*
X028437Y014039D01*
X028584Y014100D01*
X028695Y014212D01*
X028752Y014349D01*
X028809Y014212D01*
X028921Y014100D01*
X029067Y014039D01*
X029225Y014039D01*
X029371Y014100D01*
X029483Y014212D01*
X029539Y014349D01*
X029596Y014212D01*
X029708Y014100D01*
X029854Y014039D01*
X030012Y014039D01*
X030158Y014100D01*
X030270Y014212D01*
X030327Y014349D01*
X030384Y014212D01*
X030495Y014100D01*
X030642Y014039D01*
X030800Y014039D01*
X030946Y014100D01*
X031058Y014212D01*
X031105Y014326D01*
X031121Y014277D01*
X031151Y014218D01*
X031190Y014165D01*
X031236Y014118D01*
X031289Y014080D01*
X031348Y014050D01*
X031410Y014030D01*
X031475Y014019D01*
X031508Y014019D01*
X031541Y014019D01*
X031606Y014030D01*
X031668Y014050D01*
X031727Y014080D01*
X031780Y014118D01*
X031826Y014165D01*
X031865Y014218D01*
X031895Y014277D01*
X031911Y014326D01*
X031958Y014212D01*
X032070Y014100D01*
X032216Y014039D01*
X032374Y014039D01*
X032521Y014100D01*
X032632Y014212D01*
X032689Y014349D01*
X032746Y014212D01*
X032858Y014100D01*
X033004Y014039D01*
X033162Y014039D01*
X033308Y014100D01*
X033420Y014212D01*
X033476Y014349D01*
X033533Y014212D01*
X033645Y014100D01*
X033791Y014039D01*
X033949Y014039D01*
X034095Y014100D01*
X034207Y014212D01*
X034264Y014349D01*
X034321Y014212D01*
X034432Y014100D01*
X034579Y014039D01*
X034737Y014039D01*
X034883Y014100D01*
X034995Y014212D01*
X035051Y014349D01*
X035108Y014212D01*
X035220Y014100D01*
X035366Y014039D01*
X035524Y014039D01*
X035670Y014100D01*
X035782Y014212D01*
X035839Y014349D01*
X035895Y014212D01*
X036007Y014100D01*
X036153Y014039D01*
X036311Y014039D01*
X036458Y014100D01*
X036569Y014212D01*
X036626Y014349D01*
X036683Y014212D01*
X036795Y014100D01*
X036941Y014039D01*
X037099Y014039D01*
X037245Y014100D01*
X037357Y014212D01*
X037414Y014349D01*
X037470Y014212D01*
X037582Y014100D01*
X037728Y014039D01*
X037886Y014039D01*
X038007Y014089D01*
X038007Y010052D01*
X037645Y009123D01*
X037628Y009081D01*
X037628Y009078D01*
X037627Y009076D01*
X037628Y009030D01*
X037628Y008928D01*
X037546Y008846D01*
X037546Y008317D01*
X037640Y008224D01*
X038168Y008224D01*
X038262Y008317D01*
X038262Y008846D01*
X038168Y008940D01*
X038108Y008940D01*
X038108Y008988D01*
X038469Y009918D01*
X038487Y009959D01*
X038487Y009962D01*
X038488Y009965D01*
X038487Y010010D01*
X038487Y015300D01*
X038511Y015300D01*
X038593Y015383D01*
X038584Y009445D01*
X038559Y009445D01*
X038466Y009352D01*
X038466Y008823D01*
X038559Y008729D01*
X039088Y008729D01*
X039182Y008823D01*
X039182Y009352D01*
X039088Y009445D01*
X039064Y009445D01*
X039081Y020571D01*
X039088Y020571D01*
X039182Y020665D01*
X039182Y021170D01*
X040099Y020253D01*
X040099Y009870D01*
X040135Y009782D01*
X040203Y009714D01*
X040564Y009353D01*
X040652Y009317D01*
X041646Y009317D01*
X041997Y008966D01*
X041896Y008866D01*
X041826Y008697D01*
X041826Y008514D01*
X041896Y008345D01*
X042026Y008216D01*
X042195Y008146D01*
X042433Y008169D02*
X043086Y008169D01*
X043102Y008161D02*
X043174Y008137D01*
X043248Y008126D01*
X043266Y008126D01*
X043266Y008586D01*
X042806Y008586D01*
X042806Y008568D01*
X042818Y008493D01*
X042841Y008421D01*
X042876Y008354D01*
X042920Y008293D01*
X042973Y008239D01*
X043035Y008195D01*
X043102Y008161D01*
X043266Y008169D02*
X043306Y008169D01*
X043306Y008126D02*
X043324Y008126D01*
X043399Y008137D01*
X043470Y008161D01*
X043538Y008195D01*
X043599Y008239D01*
X043652Y008293D01*
X043697Y008354D01*
X043731Y008421D01*
X043754Y008493D01*
X043766Y008568D01*
X043766Y008586D01*
X043306Y008586D01*
X043306Y008626D01*
X043266Y008626D01*
X043266Y009086D01*
X043248Y009086D01*
X043174Y009074D01*
X043102Y009050D01*
X043035Y009016D01*
X042973Y008972D01*
X042920Y008918D01*
X042876Y008857D01*
X042841Y008790D01*
X042818Y008718D01*
X042806Y008643D01*
X042806Y008626D01*
X043266Y008626D01*
X043266Y008586D01*
X043306Y008586D01*
X043306Y008126D01*
X043486Y008169D02*
X043993Y008169D01*
X043993Y008327D02*
X043677Y008327D01*
X043752Y008486D02*
X043993Y008486D01*
X043993Y008644D02*
X043766Y008644D01*
X043766Y008643D02*
X043754Y008718D01*
X043731Y008790D01*
X043697Y008857D01*
X043652Y008918D01*
X043599Y008972D01*
X043538Y009016D01*
X043470Y009050D01*
X043399Y009074D01*
X043324Y009086D01*
X043306Y009086D01*
X043306Y008626D01*
X043766Y008626D01*
X043766Y008643D01*
X043724Y008803D02*
X043993Y008803D01*
X043993Y008961D02*
X043609Y008961D01*
X043306Y008961D02*
X043266Y008961D01*
X043266Y008803D02*
X043306Y008803D01*
X043306Y008644D02*
X043266Y008644D01*
X043266Y008486D02*
X043306Y008486D01*
X043306Y008327D02*
X043266Y008327D01*
X042895Y008327D02*
X042658Y008327D01*
X042734Y008486D02*
X042820Y008486D01*
X042806Y008644D02*
X042746Y008644D01*
X042702Y008803D02*
X042848Y008803D01*
X042963Y008961D02*
X042581Y008961D01*
X042503Y009120D02*
X043993Y009120D01*
X043993Y009278D02*
X042364Y009278D01*
X042205Y009437D02*
X043993Y009437D01*
X043993Y009595D02*
X042047Y009595D01*
X041888Y009754D02*
X043993Y009754D01*
X043993Y009912D02*
X040684Y009912D01*
X040579Y010071D02*
X040886Y010071D01*
X040836Y010121D02*
X040965Y009991D01*
X041135Y009921D01*
X041318Y009921D01*
X041487Y009991D01*
X041616Y010121D01*
X041686Y010290D01*
X041686Y010473D01*
X041616Y010642D01*
X041487Y010771D01*
X041318Y010841D01*
X041135Y010841D01*
X040965Y010771D01*
X040836Y010642D01*
X040766Y010473D01*
X040766Y010290D01*
X040836Y010121D01*
X040791Y010229D02*
X040579Y010229D01*
X040579Y010388D02*
X040766Y010388D01*
X040796Y010546D02*
X040579Y010546D01*
X040579Y010705D02*
X040899Y010705D01*
X040579Y010863D02*
X042140Y010863D01*
X042140Y010841D02*
X042135Y010841D01*
X041965Y010771D01*
X041836Y010642D01*
X041766Y010473D01*
X041766Y010290D01*
X041836Y010121D01*
X041965Y009991D01*
X042135Y009921D01*
X042318Y009921D01*
X042487Y009991D01*
X042616Y010121D01*
X042686Y010290D01*
X042686Y010473D01*
X042620Y010633D01*
X042620Y011533D01*
X042583Y011621D01*
X042557Y011647D01*
X042557Y016878D01*
X042581Y016878D01*
X042675Y016971D01*
X042675Y017500D01*
X042581Y017594D01*
X042053Y017594D01*
X041959Y017500D01*
X041959Y016971D01*
X042053Y016878D01*
X042077Y016878D01*
X042077Y011500D01*
X042114Y011412D01*
X042140Y011386D01*
X042140Y010841D01*
X042140Y011022D02*
X040579Y011022D01*
X040579Y011180D02*
X042140Y011180D01*
X042140Y011339D02*
X040579Y011339D01*
X040579Y011497D02*
X042078Y011497D01*
X042077Y011656D02*
X040579Y011656D01*
X040579Y011814D02*
X042077Y011814D01*
X042077Y011973D02*
X040579Y011973D01*
X040579Y012131D02*
X042077Y012131D01*
X042077Y012290D02*
X040579Y012290D01*
X040579Y012448D02*
X042077Y012448D01*
X042077Y012607D02*
X040579Y012607D01*
X040579Y012765D02*
X042077Y012765D01*
X042077Y012924D02*
X040579Y012924D01*
X040579Y013082D02*
X042077Y013082D01*
X042077Y013241D02*
X040579Y013241D01*
X040579Y013399D02*
X042077Y013399D01*
X042077Y013558D02*
X040579Y013558D01*
X040579Y013716D02*
X042077Y013716D01*
X042077Y013875D02*
X040579Y013875D01*
X040579Y014033D02*
X042077Y014033D01*
X042077Y014192D02*
X040579Y014192D01*
X040579Y014350D02*
X042077Y014350D01*
X042077Y014509D02*
X040579Y014509D01*
X040579Y014667D02*
X042077Y014667D01*
X042077Y014826D02*
X040579Y014826D01*
X040579Y014984D02*
X042077Y014984D01*
X042077Y015143D02*
X040579Y015143D01*
X040579Y015301D02*
X042077Y015301D01*
X042077Y015460D02*
X040579Y015460D01*
X040579Y015618D02*
X042077Y015618D01*
X042077Y015777D02*
X040579Y015777D01*
X040579Y015935D02*
X042077Y015935D01*
X042077Y016094D02*
X040579Y016094D01*
X040579Y016252D02*
X042077Y016252D01*
X042077Y016411D02*
X040579Y016411D01*
X040579Y016569D02*
X042077Y016569D01*
X042077Y016728D02*
X040579Y016728D01*
X040579Y016886D02*
X042044Y016886D01*
X041959Y017045D02*
X040579Y017045D01*
X040579Y017203D02*
X041959Y017203D01*
X041959Y017362D02*
X040579Y017362D01*
X040579Y017520D02*
X041979Y017520D01*
X042317Y017236D02*
X042317Y011548D01*
X042380Y011485D01*
X042380Y010535D01*
X042226Y010381D01*
X041766Y010388D02*
X041686Y010388D01*
X041656Y010546D02*
X041796Y010546D01*
X041899Y010705D02*
X041553Y010705D01*
X041661Y010229D02*
X041791Y010229D01*
X041886Y010071D02*
X041566Y010071D01*
X041746Y009557D02*
X040700Y009557D01*
X040339Y009918D01*
X040339Y020353D01*
X039221Y021471D01*
X026695Y021443D01*
X026676Y024153D01*
X026688Y025648D01*
X026688Y026321D01*
X022819Y026321D01*
X022819Y026996D01*
X022808Y026996D01*
X022847Y027035D01*
X023209Y026872D02*
X023272Y026872D01*
X023394Y026713D02*
X023086Y026713D01*
X023213Y027189D02*
X023267Y027189D01*
X023384Y027347D02*
X023097Y027347D01*
X022596Y027347D02*
X019879Y027347D01*
X019879Y027189D02*
X022480Y027189D01*
X022449Y027030D02*
X019760Y027030D01*
X019602Y026872D02*
X022484Y026872D01*
X022579Y026713D02*
X019443Y026713D01*
X019285Y026555D02*
X022579Y026555D01*
X022579Y026396D02*
X019126Y026396D01*
X019041Y026238D02*
X022594Y026238D01*
X023874Y026713D02*
X024182Y026713D01*
X024059Y026872D02*
X023996Y026872D01*
X024001Y027189D02*
X024055Y027189D01*
X024171Y027347D02*
X023884Y027347D01*
X024672Y027347D02*
X024930Y027347D01*
X024820Y027189D02*
X024788Y027189D01*
X024784Y026872D02*
X024824Y026872D01*
X024942Y026713D02*
X024661Y026713D01*
X025209Y026713D02*
X025209Y026713D01*
X025209Y026872D02*
X025209Y026872D01*
X025209Y027030D02*
X025209Y027030D01*
X025209Y027189D02*
X025209Y027189D01*
X025209Y027347D02*
X025209Y027347D01*
X025487Y027347D02*
X025717Y027347D01*
X025607Y027189D02*
X025598Y027189D01*
X025594Y026872D02*
X025611Y026872D01*
X025730Y026713D02*
X025475Y026713D01*
X025996Y026713D02*
X025996Y026713D01*
X025996Y026872D02*
X025996Y026872D01*
X025996Y027030D02*
X025996Y027030D01*
X025996Y027035D02*
X025996Y027453D01*
X025996Y027035D01*
X025996Y027035D01*
X025996Y027189D02*
X025996Y027189D01*
X025996Y027347D02*
X025996Y027347D01*
X026275Y027347D02*
X026533Y027347D01*
X026417Y027189D02*
X026385Y027189D01*
X026381Y026872D02*
X026421Y026872D01*
X026544Y026713D02*
X026263Y026713D01*
X026751Y026555D02*
X029159Y026555D01*
X029159Y026396D02*
X026917Y026396D01*
X026928Y026238D02*
X029159Y026238D01*
X029159Y026079D02*
X026928Y026079D01*
X026928Y025921D02*
X029159Y025921D01*
X029159Y025762D02*
X026928Y025762D01*
X026928Y025694D02*
X026928Y025694D01*
X026928Y025604D02*
X029159Y025604D01*
X029159Y025445D02*
X026926Y025445D01*
X026925Y025287D02*
X029159Y025287D01*
X029159Y025128D02*
X026924Y025128D01*
X026923Y024970D02*
X029159Y024970D01*
X029159Y024811D02*
X026922Y024811D01*
X026920Y024653D02*
X029258Y024653D01*
X029417Y024494D02*
X026919Y024494D01*
X026918Y024336D02*
X029509Y024336D01*
X029509Y024177D02*
X026917Y024177D01*
X026917Y024019D02*
X029509Y024019D01*
X029509Y023860D02*
X026918Y023860D01*
X026920Y023702D02*
X029509Y023702D01*
X029509Y023543D02*
X026921Y023543D01*
X026922Y023385D02*
X029509Y023385D01*
X029509Y023226D02*
X026923Y023226D01*
X026924Y023068D02*
X029509Y023068D01*
X029509Y022909D02*
X026925Y022909D01*
X026926Y022751D02*
X029509Y022751D01*
X029509Y022592D02*
X026927Y022592D01*
X026928Y022434D02*
X029428Y022434D01*
X029371Y022275D02*
X026930Y022275D01*
X026931Y022117D02*
X029371Y022117D01*
X029371Y021958D02*
X026932Y021958D01*
X026933Y021800D02*
X029419Y021800D01*
X030039Y021800D02*
X030240Y021800D01*
X030174Y021958D02*
X030087Y021958D01*
X030087Y022117D02*
X030174Y022117D01*
X030174Y022275D02*
X030087Y022275D01*
X030030Y022434D02*
X030213Y022434D01*
X030312Y022592D02*
X029949Y022592D01*
X029949Y022751D02*
X030312Y022751D01*
X030312Y022909D02*
X029949Y022909D01*
X029949Y023068D02*
X030312Y023068D01*
X030312Y023226D02*
X029949Y023226D01*
X029949Y023385D02*
X030001Y023385D01*
X030627Y023702D02*
X031940Y023702D01*
X031940Y023543D02*
X030752Y023543D01*
X030752Y023385D02*
X031940Y023385D01*
X031940Y023226D02*
X030752Y023226D01*
X030752Y023068D02*
X032370Y023068D01*
X032528Y022909D02*
X030752Y022909D01*
X030752Y022751D02*
X032687Y022751D01*
X032845Y022592D02*
X030752Y022592D01*
X030851Y022434D02*
X033004Y022434D01*
X033162Y022275D02*
X030890Y022275D01*
X030890Y022117D02*
X033321Y022117D01*
X033479Y021958D02*
X030890Y021958D01*
X030824Y021800D02*
X041729Y021800D01*
X041727Y021324D02*
X039707Y021324D01*
X039866Y021166D02*
X041655Y021166D01*
X041643Y021032D02*
X041643Y021014D01*
X041654Y020940D01*
X041678Y020868D01*
X041712Y020801D01*
X041756Y020740D01*
X041810Y020686D01*
X041871Y020642D01*
X041938Y020607D01*
X042010Y020584D01*
X042085Y020572D01*
X042103Y020572D01*
X042103Y021032D01*
X042143Y021032D01*
X042143Y021072D01*
X042603Y021072D01*
X042603Y021090D01*
X042591Y021165D01*
X042567Y021236D01*
X042533Y021304D01*
X042489Y021365D01*
X042435Y021418D01*
X042374Y021463D01*
X042307Y021497D01*
X042235Y021520D01*
X042160Y021532D01*
X042143Y021532D01*
X042143Y021072D01*
X042103Y021072D01*
X042103Y021032D01*
X041643Y021032D01*
X041644Y021007D02*
X040024Y021007D01*
X040183Y020849D02*
X041688Y020849D01*
X041806Y020690D02*
X040341Y020690D01*
X040500Y020532D02*
X043993Y020532D01*
X043993Y020690D02*
X042439Y020690D01*
X042435Y020686D02*
X042489Y020740D01*
X042533Y020801D01*
X042567Y020868D01*
X042591Y020940D01*
X042603Y021014D01*
X042603Y021032D01*
X042143Y021032D01*
X042143Y020572D01*
X042160Y020572D01*
X042235Y020584D01*
X042307Y020607D01*
X042374Y020642D01*
X042435Y020686D01*
X042557Y020849D02*
X043993Y020849D01*
X043993Y021007D02*
X042601Y021007D01*
X042590Y021166D02*
X043993Y021166D01*
X043993Y021324D02*
X042518Y021324D01*
X042335Y021483D02*
X043993Y021483D01*
X043993Y021641D02*
X042332Y021641D01*
X042516Y021800D02*
X043993Y021800D01*
X043993Y021958D02*
X042581Y021958D01*
X042583Y022117D02*
X043993Y022117D01*
X043993Y022275D02*
X042528Y022275D01*
X042392Y022434D02*
X043993Y022434D01*
X043993Y022592D02*
X033467Y022592D01*
X033309Y022751D02*
X041774Y022751D01*
X041733Y022792D02*
X041862Y022662D01*
X042031Y022592D01*
X042214Y022592D01*
X042383Y022662D01*
X042512Y022792D01*
X042583Y022961D01*
X042583Y023144D01*
X042512Y023313D01*
X042383Y023442D01*
X042214Y023512D01*
X042031Y023512D01*
X041862Y023442D01*
X041733Y023313D01*
X041663Y023144D01*
X041663Y022961D01*
X041733Y022792D01*
X041684Y022909D02*
X033150Y022909D01*
X032992Y023068D02*
X041663Y023068D01*
X041697Y023226D02*
X032833Y023226D01*
X032675Y023385D02*
X041804Y023385D01*
X041823Y023702D02*
X032657Y023702D01*
X032657Y023543D02*
X043993Y023543D01*
X043993Y023385D02*
X042441Y023385D01*
X042548Y023226D02*
X043993Y023226D01*
X043993Y023068D02*
X042583Y023068D01*
X042561Y022909D02*
X043993Y022909D01*
X043993Y022751D02*
X042471Y022751D01*
X041853Y022434D02*
X033626Y022434D01*
X033784Y022275D02*
X041717Y022275D01*
X042103Y021483D02*
X042143Y021483D01*
X042143Y021324D02*
X042103Y021324D01*
X042103Y021166D02*
X042143Y021166D01*
X042143Y021007D02*
X042103Y021007D01*
X042103Y020849D02*
X042143Y020849D01*
X042143Y020690D02*
X042103Y020690D01*
X040579Y020373D02*
X043993Y020373D01*
X043993Y020215D02*
X040579Y020215D01*
X040579Y020056D02*
X043993Y020056D01*
X043993Y019898D02*
X040579Y019898D01*
X040579Y019739D02*
X043993Y019739D01*
X043993Y019581D02*
X040579Y019581D01*
X040579Y019422D02*
X043993Y019422D01*
X043993Y019264D02*
X040579Y019264D01*
X040579Y019105D02*
X043993Y019105D01*
X043993Y018947D02*
X040579Y018947D01*
X040579Y018788D02*
X043993Y018788D01*
X043993Y018630D02*
X040579Y018630D01*
X040579Y018471D02*
X043993Y018471D01*
X043993Y018313D02*
X040579Y018313D01*
X040579Y018154D02*
X043993Y018154D01*
X043993Y017996D02*
X040579Y017996D01*
X040579Y017837D02*
X043993Y017837D01*
X043993Y017679D02*
X040579Y017679D01*
X040099Y017679D02*
X039077Y017679D01*
X039077Y017837D02*
X040099Y017837D01*
X040099Y017996D02*
X039077Y017996D01*
X039078Y018154D02*
X040099Y018154D01*
X040099Y018313D02*
X039078Y018313D01*
X039078Y018471D02*
X040099Y018471D01*
X040099Y018630D02*
X039078Y018630D01*
X039079Y018788D02*
X040099Y018788D01*
X040099Y018947D02*
X039079Y018947D01*
X039079Y019105D02*
X040099Y019105D01*
X040099Y019264D02*
X039079Y019264D01*
X039080Y019422D02*
X040099Y019422D01*
X040099Y019581D02*
X039080Y019581D01*
X039080Y019739D02*
X040099Y019739D01*
X040099Y019898D02*
X039080Y019898D01*
X039081Y020056D02*
X040099Y020056D01*
X040099Y020215D02*
X039081Y020215D01*
X039081Y020373D02*
X039979Y020373D01*
X039821Y020532D02*
X039081Y020532D01*
X039182Y020690D02*
X039662Y020690D01*
X039504Y020849D02*
X039182Y020849D01*
X039182Y021007D02*
X039345Y021007D01*
X039187Y021166D02*
X039182Y021166D01*
X038824Y020929D02*
X038842Y020857D01*
X038824Y009087D01*
X039182Y009120D02*
X041843Y009120D01*
X041991Y008961D02*
X041581Y008961D01*
X041702Y008803D02*
X041870Y008803D01*
X041826Y008644D02*
X041746Y008644D01*
X041734Y008486D02*
X041838Y008486D01*
X041914Y008327D02*
X041658Y008327D01*
X040914Y008327D02*
X038262Y008327D01*
X038262Y008486D02*
X040838Y008486D01*
X040826Y008644D02*
X038262Y008644D01*
X038262Y008803D02*
X038486Y008803D01*
X038466Y008961D02*
X038108Y008961D01*
X038159Y009120D02*
X038466Y009120D01*
X038466Y009278D02*
X038221Y009278D01*
X038282Y009437D02*
X038551Y009437D01*
X038585Y009595D02*
X038344Y009595D01*
X038406Y009754D02*
X038585Y009754D01*
X038585Y009912D02*
X038467Y009912D01*
X038487Y010071D02*
X038585Y010071D01*
X038586Y010229D02*
X038487Y010229D01*
X038487Y010388D02*
X038586Y010388D01*
X038586Y010546D02*
X038487Y010546D01*
X038487Y010705D02*
X038586Y010705D01*
X038587Y010863D02*
X038487Y010863D01*
X038487Y011022D02*
X038587Y011022D01*
X038587Y011180D02*
X038487Y011180D01*
X038487Y011339D02*
X038587Y011339D01*
X038588Y011497D02*
X038487Y011497D01*
X038487Y011656D02*
X038588Y011656D01*
X038588Y011814D02*
X038487Y011814D01*
X038487Y011973D02*
X038588Y011973D01*
X038588Y012131D02*
X038487Y012131D01*
X038487Y012290D02*
X038589Y012290D01*
X038589Y012448D02*
X038487Y012448D01*
X038487Y012607D02*
X038589Y012607D01*
X038589Y012765D02*
X038487Y012765D01*
X038487Y012924D02*
X038590Y012924D01*
X038590Y013082D02*
X038487Y013082D01*
X038487Y013241D02*
X038590Y013241D01*
X038590Y013399D02*
X038487Y013399D01*
X038487Y013558D02*
X038591Y013558D01*
X038591Y013716D02*
X038487Y013716D01*
X038487Y013875D02*
X038591Y013875D01*
X038591Y014033D02*
X038487Y014033D01*
X038487Y014192D02*
X038592Y014192D01*
X038592Y014350D02*
X038487Y014350D01*
X038487Y014509D02*
X038592Y014509D01*
X038592Y014667D02*
X038487Y014667D01*
X038487Y014826D02*
X038593Y014826D01*
X038593Y014984D02*
X038487Y014984D01*
X038487Y015143D02*
X038593Y015143D01*
X038593Y015301D02*
X038512Y015301D01*
X038247Y015658D02*
X038247Y010007D01*
X037868Y009033D01*
X037868Y008618D01*
X037904Y008582D01*
X037546Y008644D02*
X025642Y008644D01*
X025793Y008803D02*
X037546Y008803D01*
X037628Y008961D02*
X025945Y008961D01*
X026097Y009120D02*
X037644Y009120D01*
X037706Y009278D02*
X026248Y009278D01*
X026400Y009437D02*
X037767Y009437D01*
X037829Y009595D02*
X026552Y009595D01*
X026703Y009754D02*
X037891Y009754D01*
X037952Y009912D02*
X026855Y009912D01*
X027006Y010071D02*
X038007Y010071D01*
X038007Y010229D02*
X027158Y010229D01*
X027310Y010388D02*
X038007Y010388D01*
X038007Y010546D02*
X027461Y010546D01*
X027613Y010705D02*
X038007Y010705D01*
X038007Y010863D02*
X027765Y010863D01*
X027916Y011022D02*
X038007Y011022D01*
X038007Y011180D02*
X028068Y011180D01*
X028271Y011339D02*
X038007Y011339D01*
X038007Y011497D02*
X028324Y011497D01*
X028304Y011656D02*
X038007Y011656D01*
X038007Y011814D02*
X028194Y011814D01*
X027737Y011814D02*
X024576Y011814D01*
X024576Y011656D02*
X027627Y011656D01*
X027485Y011497D02*
X024576Y011497D01*
X024576Y011339D02*
X027334Y011339D01*
X027182Y011180D02*
X024576Y011180D01*
X024576Y011022D02*
X027030Y011022D01*
X026879Y010863D02*
X024576Y010863D01*
X024576Y010705D02*
X026727Y010705D01*
X026576Y010546D02*
X024675Y010546D01*
X024694Y010527D02*
X024600Y010621D01*
X024576Y010621D01*
X024576Y012402D01*
X024642Y012468D01*
X024642Y012501D01*
X025151Y012501D01*
X025151Y012477D01*
X025245Y012383D01*
X025774Y012383D01*
X025868Y012477D01*
X025868Y013005D01*
X025865Y013008D01*
X025871Y013011D01*
X025876Y013015D01*
X025882Y013017D01*
X025912Y013047D01*
X025942Y013074D01*
X025945Y013080D01*
X025950Y013085D01*
X025966Y013123D01*
X026247Y013714D01*
X026252Y013718D01*
X026268Y013757D01*
X026286Y013794D01*
X026286Y013800D01*
X026289Y013806D01*
X026289Y013848D01*
X026291Y013889D01*
X026289Y013895D01*
X026289Y014167D01*
X026333Y014212D01*
X026381Y014326D01*
X026397Y014277D01*
X026427Y014218D01*
X026465Y014165D01*
X026512Y014118D01*
X026565Y014080D01*
X026623Y014050D01*
X026686Y014030D01*
X026751Y014019D01*
X026784Y014019D01*
X026784Y014437D01*
X026784Y014437D01*
X026784Y014854D01*
X026751Y014854D01*
X026686Y014844D01*
X026623Y014824D01*
X026565Y014794D01*
X026512Y014755D01*
X026465Y014709D01*
X026427Y014656D01*
X026397Y014597D01*
X026381Y014548D01*
X026333Y014662D01*
X026221Y014774D01*
X026075Y014834D01*
X025917Y014834D01*
X025771Y014774D01*
X025659Y014662D01*
X025602Y014525D01*
X025546Y014662D01*
X025511Y014697D01*
X025671Y014697D01*
X025718Y014744D01*
X025718Y025698D01*
X025671Y025745D01*
X019887Y025745D01*
X019841Y025698D01*
X019841Y014757D01*
X019847Y014750D01*
X019847Y014744D01*
X019894Y014697D01*
X022519Y014697D01*
X022490Y014656D01*
X022460Y014597D01*
X022439Y014535D01*
X022429Y014470D01*
X022429Y014437D01*
X022847Y014437D01*
X022847Y014019D01*
X022879Y014019D01*
X022944Y014030D01*
X023007Y014050D01*
X023065Y014080D01*
X023119Y014118D01*
X023165Y014165D01*
X023204Y014218D01*
X023233Y014277D01*
X023250Y014326D01*
X023297Y014212D01*
X023409Y014100D01*
X023555Y014039D01*
X023713Y014039D01*
X023859Y014100D01*
X023971Y014212D01*
X024028Y014349D01*
X024084Y014212D01*
X024196Y014100D01*
X024342Y014039D01*
X024500Y014039D01*
X024647Y014100D01*
X024758Y014212D01*
X024815Y014349D01*
X024872Y014212D01*
X024984Y014100D01*
X024999Y014094D01*
X024869Y013788D01*
X020191Y013788D01*
X020184Y013791D01*
X020144Y013788D01*
X020103Y013788D01*
X020096Y013785D01*
X020089Y013785D01*
X020052Y013767D01*
X020015Y013752D01*
X020010Y013746D01*
X019447Y013473D01*
X019409Y013458D01*
X019404Y013453D01*
X019397Y013449D01*
X019371Y013419D01*
X019342Y013390D01*
X019339Y013383D01*
X019334Y013378D01*
X019321Y013340D01*
X019305Y013302D01*
X019305Y013295D01*
X019303Y013288D01*
X019305Y013247D01*
X019305Y012325D01*
X019281Y012325D01*
X019187Y012232D01*
X019187Y011703D01*
X019281Y011609D01*
X019810Y011609D01*
X019903Y011703D01*
X019903Y012232D01*
X019810Y012325D01*
X019785Y012325D01*
X019785Y013104D01*
X020206Y013308D01*
X022491Y013308D01*
X022343Y013251D01*
X022341Y013251D01*
X022299Y013234D01*
X022257Y013217D01*
X022255Y013215D01*
X022252Y013214D01*
X022220Y013182D01*
X022188Y013151D01*
X022187Y013149D01*
X022185Y013147D01*
X022168Y013105D01*
X022149Y013064D01*
X022149Y013061D01*
X022148Y013059D01*
X022148Y013013D01*
X022147Y012968D01*
X022148Y012966D01*
X022148Y012351D01*
X022124Y012351D01*
X022030Y012258D01*
X022030Y011729D01*
X022122Y011637D01*
X022122Y010379D01*
X022037Y010294D01*
X020555Y010294D01*
X020555Y010318D01*
X020462Y010412D01*
X019933Y010412D01*
X019839Y010318D01*
X019839Y009790D01*
X019933Y009696D01*
X020462Y009696D01*
X020555Y009790D01*
X020555Y009814D01*
X022184Y009814D01*
X022272Y009851D01*
X022498Y010077D01*
X022566Y010144D01*
X022602Y010232D01*
X022602Y011635D01*
X022653Y011635D01*
X022746Y011729D01*
X022746Y012258D01*
X022653Y012351D01*
X022628Y012351D01*
X022628Y012846D01*
X022974Y012981D01*
X023926Y012981D01*
X023926Y012468D01*
X024019Y012374D01*
X024096Y012374D01*
X024096Y010621D01*
X024071Y010621D01*
X023978Y010527D01*
X023978Y009998D01*
X024071Y009905D01*
X024600Y009905D01*
X024694Y009998D01*
X024694Y010527D01*
X024694Y010388D02*
X026424Y010388D01*
X026272Y010229D02*
X024694Y010229D01*
X024694Y010071D02*
X026121Y010071D01*
X025969Y009912D02*
X024608Y009912D01*
X024336Y010263D02*
X024336Y012680D01*
X024284Y012732D01*
X024292Y012741D01*
X025510Y012741D01*
X025868Y012765D02*
X038007Y012765D01*
X038007Y012607D02*
X025868Y012607D01*
X025839Y012448D02*
X038007Y012448D01*
X038007Y012290D02*
X024576Y012290D01*
X024576Y012131D02*
X038007Y012131D01*
X038007Y011973D02*
X024576Y011973D01*
X024622Y012448D02*
X025180Y012448D01*
X025868Y012924D02*
X038007Y012924D01*
X038007Y013082D02*
X025947Y013082D01*
X026022Y013241D02*
X038007Y013241D01*
X038007Y013399D02*
X026097Y013399D01*
X026173Y013558D02*
X038007Y013558D01*
X038007Y013716D02*
X026250Y013716D01*
X026290Y013875D02*
X038007Y013875D01*
X038007Y014033D02*
X031616Y014033D01*
X031508Y014033D02*
X031508Y014033D01*
X031508Y014019D02*
X031508Y014437D01*
X031508Y014437D01*
X031508Y014019D01*
X031400Y014033D02*
X026892Y014033D01*
X026784Y014033D02*
X026784Y014033D01*
X026676Y014033D02*
X026289Y014033D01*
X026313Y014192D02*
X026446Y014192D01*
X026784Y014192D02*
X026784Y014192D01*
X026784Y014350D02*
X026784Y014350D01*
X026784Y014509D02*
X026784Y014509D01*
X026784Y014667D02*
X026784Y014667D01*
X026784Y014826D02*
X026784Y014826D01*
X026939Y014826D02*
X027471Y014826D01*
X027671Y014826D02*
X028258Y014826D01*
X028459Y014826D02*
X029045Y014826D01*
X029246Y014826D02*
X029833Y014826D01*
X030034Y014826D02*
X030620Y014826D01*
X030821Y014826D02*
X031353Y014826D01*
X031508Y014826D02*
X031508Y014826D01*
X031663Y014826D02*
X032195Y014826D01*
X032396Y014826D02*
X032982Y014826D01*
X033183Y014826D02*
X033770Y014826D01*
X033971Y014826D02*
X034557Y014826D01*
X034758Y014826D02*
X035345Y014826D01*
X035545Y014826D02*
X036132Y014826D01*
X036333Y014826D02*
X036919Y014826D01*
X037120Y014826D02*
X037707Y014826D01*
X037908Y014826D02*
X038007Y014826D01*
X038007Y014984D02*
X025718Y014984D01*
X025718Y014826D02*
X025896Y014826D01*
X026097Y014826D02*
X026629Y014826D01*
X026435Y014667D02*
X026328Y014667D01*
X026049Y014385D02*
X025996Y014437D01*
X026049Y014385D02*
X026049Y013854D01*
X025746Y013221D01*
X022929Y013221D01*
X022388Y013011D01*
X022388Y011993D01*
X022362Y011967D01*
X022362Y010280D01*
X022136Y010054D01*
X020197Y010054D01*
X019839Y010071D02*
X015984Y010071D01*
X015984Y010229D02*
X019839Y010229D01*
X019908Y010388D02*
X016893Y010388D01*
X016876Y010382D02*
X016948Y010405D01*
X017015Y010440D01*
X017076Y010484D01*
X017130Y010537D01*
X017174Y010599D01*
X017208Y010666D01*
X017232Y010738D01*
X017244Y010812D01*
X017244Y010830D01*
X016784Y010830D01*
X016784Y010870D01*
X017244Y010870D01*
X017244Y010888D01*
X017232Y010963D01*
X017208Y011034D01*
X017174Y011102D01*
X017130Y011163D01*
X017076Y011216D01*
X017015Y011261D01*
X016948Y011295D01*
X016876Y011318D01*
X016801Y011330D01*
X016784Y011330D01*
X016784Y010870D01*
X016744Y010870D01*
X016744Y011330D01*
X016726Y011330D01*
X016651Y011318D01*
X016579Y011295D01*
X016512Y011261D01*
X016451Y011216D01*
X016397Y011163D01*
X016353Y011102D01*
X016319Y011034D01*
X016295Y010963D01*
X016284Y010888D01*
X016284Y010870D01*
X016744Y010870D01*
X016744Y010830D01*
X016784Y010830D01*
X016784Y010370D01*
X016801Y010370D01*
X016876Y010382D01*
X016784Y010388D02*
X016744Y010388D01*
X016744Y010370D02*
X016744Y010830D01*
X016284Y010830D01*
X016284Y010812D01*
X016295Y010738D01*
X016319Y010666D01*
X016353Y010599D01*
X016397Y010537D01*
X016451Y010484D01*
X016512Y010440D01*
X016579Y010405D01*
X016651Y010382D01*
X016726Y010370D01*
X016744Y010370D01*
X016634Y010388D02*
X015984Y010388D01*
X016110Y010546D02*
X016391Y010546D01*
X016306Y010705D02*
X016201Y010705D01*
X016224Y010863D02*
X016744Y010863D01*
X016784Y010863D02*
X022122Y010863D01*
X022122Y010705D02*
X017221Y010705D01*
X017136Y010546D02*
X022122Y010546D01*
X022122Y010388D02*
X020486Y010388D01*
X020519Y009754D02*
X025817Y009754D01*
X025666Y009595D02*
X022473Y009595D01*
X022487Y009593D02*
X022418Y009604D01*
X022391Y009604D01*
X022391Y009167D01*
X022374Y009167D01*
X022374Y009604D01*
X022348Y009604D01*
X022278Y009593D01*
X022212Y009571D01*
X022149Y009539D01*
X022092Y009498D01*
X022043Y009448D01*
X022002Y009392D01*
X021970Y009329D01*
X021948Y009262D01*
X021937Y009193D01*
X021937Y009167D01*
X022374Y009167D01*
X022374Y009149D01*
X022391Y009149D01*
X022391Y008712D01*
X022418Y008712D01*
X022487Y008723D01*
X022554Y008745D01*
X022616Y008777D01*
X022673Y008818D01*
X022723Y008868D01*
X022764Y008924D01*
X022796Y008987D01*
X022818Y009054D01*
X022829Y009123D01*
X022829Y009149D01*
X022391Y009149D01*
X022391Y009167D01*
X022829Y009167D01*
X022829Y009193D01*
X022818Y009262D01*
X022796Y009329D01*
X022764Y009392D01*
X022723Y009448D01*
X022673Y009498D01*
X022616Y009539D01*
X022554Y009571D01*
X022487Y009593D01*
X022391Y009595D02*
X022374Y009595D01*
X022292Y009595D02*
X015984Y009595D01*
X015984Y009437D02*
X019059Y009437D01*
X019022Y009399D02*
X019142Y009519D01*
X019298Y009584D01*
X019467Y009584D01*
X019624Y009519D01*
X019744Y009399D01*
X019809Y009243D01*
X019809Y009073D01*
X019744Y008917D01*
X019624Y008797D01*
X019467Y008732D01*
X019298Y008732D01*
X019142Y008797D01*
X019022Y008917D01*
X018957Y009073D01*
X018957Y009243D01*
X019022Y009399D01*
X018972Y009278D02*
X015984Y009278D01*
X015984Y009120D02*
X018957Y009120D01*
X019004Y008961D02*
X015849Y008961D01*
X015691Y008803D02*
X019136Y008803D01*
X019629Y008803D02*
X020136Y008803D01*
X020142Y008797D02*
X020298Y008732D01*
X020467Y008732D01*
X020624Y008797D01*
X020744Y008917D01*
X020809Y009073D01*
X020809Y009243D01*
X020744Y009399D01*
X020624Y009519D01*
X020467Y009584D01*
X020298Y009584D01*
X020142Y009519D01*
X020022Y009399D01*
X019957Y009243D01*
X019957Y009073D01*
X020022Y008917D01*
X020142Y008797D01*
X020004Y008961D02*
X019762Y008961D01*
X019809Y009120D02*
X019957Y009120D01*
X019972Y009278D02*
X019794Y009278D01*
X019706Y009437D02*
X020059Y009437D01*
X019875Y009754D02*
X015984Y009754D01*
X015984Y009912D02*
X019839Y009912D01*
X020706Y009437D02*
X021059Y009437D01*
X021022Y009399D02*
X020957Y009243D01*
X020957Y009073D01*
X021022Y008917D01*
X021142Y008797D01*
X021298Y008732D01*
X021467Y008732D01*
X021624Y008797D01*
X021744Y008917D01*
X021809Y009073D01*
X021809Y009243D01*
X021744Y009399D01*
X021624Y009519D01*
X021467Y009584D01*
X021298Y009584D01*
X021142Y009519D01*
X021022Y009399D01*
X020972Y009278D02*
X020794Y009278D01*
X020809Y009120D02*
X020957Y009120D01*
X021004Y008961D02*
X020762Y008961D01*
X020629Y008803D02*
X021136Y008803D01*
X020967Y008584D02*
X020798Y008584D01*
X020642Y008519D01*
X020522Y008399D01*
X020457Y008243D01*
X020457Y008073D01*
X020522Y007917D01*
X020642Y007797D01*
X020798Y007732D01*
X020967Y007732D01*
X021124Y007797D01*
X021244Y007917D01*
X021309Y008073D01*
X021309Y008243D01*
X021244Y008399D01*
X021124Y008519D01*
X020967Y008584D01*
X021157Y008486D02*
X021608Y008486D01*
X021642Y008519D02*
X021522Y008399D01*
X021457Y008243D01*
X021457Y008073D01*
X021522Y007917D01*
X021642Y007797D01*
X021798Y007732D01*
X021967Y007732D01*
X022124Y007797D01*
X022244Y007917D01*
X022309Y008073D01*
X022309Y008243D01*
X022244Y008399D01*
X022124Y008519D01*
X021967Y008584D01*
X021798Y008584D01*
X021642Y008519D01*
X021492Y008327D02*
X021274Y008327D01*
X021309Y008169D02*
X021457Y008169D01*
X021483Y008010D02*
X021282Y008010D01*
X021178Y007852D02*
X021587Y007852D01*
X022178Y007852D02*
X022587Y007852D01*
X022642Y007797D02*
X022798Y007732D01*
X022967Y007732D01*
X023124Y007797D01*
X023244Y007917D01*
X023309Y008073D01*
X023309Y008243D01*
X023244Y008399D01*
X023124Y008519D01*
X022967Y008584D01*
X022798Y008584D01*
X022642Y008519D01*
X022522Y008399D01*
X022457Y008243D01*
X022457Y008073D01*
X022522Y007917D01*
X022642Y007797D01*
X022483Y008010D02*
X022282Y008010D01*
X022309Y008169D02*
X022457Y008169D01*
X022492Y008327D02*
X022274Y008327D01*
X022157Y008486D02*
X022608Y008486D01*
X022652Y008803D02*
X023120Y008803D01*
X023126Y008797D02*
X023282Y008732D01*
X023452Y008732D01*
X023608Y008797D01*
X023728Y008917D01*
X023793Y009073D01*
X023793Y009243D01*
X023728Y009399D01*
X023608Y009519D01*
X023452Y009584D01*
X023282Y009584D01*
X023126Y009519D01*
X023006Y009399D01*
X022941Y009243D01*
X022941Y009073D01*
X023006Y008917D01*
X023126Y008797D01*
X022988Y008961D02*
X022783Y008961D01*
X022828Y009120D02*
X022941Y009120D01*
X022956Y009278D02*
X022813Y009278D01*
X022731Y009437D02*
X023043Y009437D01*
X022391Y009437D02*
X022374Y009437D01*
X022374Y009278D02*
X022391Y009278D01*
X022374Y009149D02*
X021937Y009149D01*
X021937Y009123D01*
X021948Y009054D01*
X021970Y008987D01*
X022002Y008924D01*
X022043Y008868D01*
X022092Y008818D01*
X022149Y008777D01*
X022212Y008745D01*
X022278Y008723D01*
X022348Y008712D01*
X022374Y008712D01*
X022374Y009149D01*
X022374Y009120D02*
X022391Y009120D01*
X022374Y008961D02*
X022391Y008961D01*
X022374Y008803D02*
X022391Y008803D01*
X022114Y008803D02*
X021629Y008803D01*
X021762Y008961D02*
X021983Y008961D01*
X021938Y009120D02*
X021809Y009120D01*
X021794Y009278D02*
X021953Y009278D01*
X022034Y009437D02*
X021706Y009437D01*
X022334Y009912D02*
X024064Y009912D01*
X023978Y010071D02*
X022492Y010071D01*
X022601Y010229D02*
X023978Y010229D01*
X023978Y010388D02*
X022602Y010388D01*
X022602Y010546D02*
X023997Y010546D01*
X024096Y010705D02*
X022602Y010705D01*
X022602Y010863D02*
X024096Y010863D01*
X024096Y011022D02*
X022602Y011022D01*
X022602Y011180D02*
X024096Y011180D01*
X024096Y011339D02*
X022602Y011339D01*
X022602Y011497D02*
X024096Y011497D01*
X024096Y011656D02*
X022673Y011656D01*
X022746Y011814D02*
X024096Y011814D01*
X024096Y011973D02*
X022746Y011973D01*
X022746Y012131D02*
X024096Y012131D01*
X024096Y012290D02*
X022714Y012290D01*
X022628Y012448D02*
X023945Y012448D01*
X023926Y012607D02*
X022628Y012607D01*
X022628Y012765D02*
X023926Y012765D01*
X023926Y012924D02*
X022827Y012924D01*
X022316Y013241D02*
X020067Y013241D01*
X020151Y013548D02*
X025028Y013548D01*
X025257Y014089D01*
X025257Y014388D01*
X025209Y014437D01*
X024892Y014192D02*
X024738Y014192D01*
X024973Y014033D02*
X022955Y014033D01*
X022847Y014033D02*
X022847Y014033D01*
X022847Y014019D02*
X022847Y014437D01*
X022847Y014437D01*
X022847Y014437D01*
X022429Y014437D01*
X022429Y014404D01*
X022439Y014339D01*
X022460Y014277D01*
X022490Y014218D01*
X022528Y014165D01*
X022575Y014118D01*
X022628Y014080D01*
X022686Y014050D01*
X022749Y014030D01*
X022814Y014019D01*
X022847Y014019D01*
X022739Y014033D02*
X016000Y014033D01*
X016000Y013875D02*
X024906Y013875D01*
X024105Y014192D02*
X023951Y014192D01*
X023317Y014192D02*
X023184Y014192D01*
X022847Y014192D02*
X022847Y014192D01*
X022847Y014350D02*
X022847Y014350D01*
X022509Y014192D02*
X016000Y014192D01*
X016000Y014350D02*
X022438Y014350D01*
X022435Y014509D02*
X016000Y014509D01*
X016000Y014667D02*
X022498Y014667D01*
X020151Y013548D02*
X019545Y013254D01*
X019545Y011967D01*
X019187Y011973D02*
X016000Y011973D01*
X016000Y012131D02*
X019187Y012131D01*
X019245Y012290D02*
X016000Y012290D01*
X016000Y012448D02*
X019305Y012448D01*
X019305Y012607D02*
X016000Y012607D01*
X016000Y012765D02*
X019305Y012765D01*
X019305Y012924D02*
X016000Y012924D01*
X016000Y013082D02*
X019305Y013082D01*
X019305Y013241D02*
X016000Y013241D01*
X016000Y013399D02*
X019351Y013399D01*
X019620Y013558D02*
X016000Y013558D01*
X016000Y013716D02*
X019947Y013716D01*
X019785Y013082D02*
X022157Y013082D01*
X022148Y012924D02*
X019785Y012924D01*
X019785Y012765D02*
X022148Y012765D01*
X022148Y012607D02*
X019785Y012607D01*
X019785Y012448D02*
X022148Y012448D01*
X022062Y012290D02*
X019845Y012290D01*
X019903Y012131D02*
X022030Y012131D01*
X022030Y011973D02*
X019903Y011973D01*
X019903Y011814D02*
X022030Y011814D01*
X022103Y011656D02*
X019856Y011656D01*
X019234Y011656D02*
X016000Y011656D01*
X016000Y011814D02*
X019187Y011814D01*
X017213Y011022D02*
X022122Y011022D01*
X022122Y011180D02*
X017112Y011180D01*
X016784Y011180D02*
X016744Y011180D01*
X016744Y011022D02*
X016784Y011022D01*
X016784Y010705D02*
X016744Y010705D01*
X016744Y010546D02*
X016784Y010546D01*
X016315Y011022D02*
X016190Y011022D01*
X016084Y011180D02*
X016415Y011180D01*
X016000Y011339D02*
X022122Y011339D01*
X022122Y011497D02*
X016000Y011497D01*
X015544Y010388D02*
X012544Y010388D01*
X012684Y010546D02*
X014417Y010546D01*
X014326Y010705D02*
X012741Y010705D01*
X012741Y010863D02*
X014304Y010863D01*
X014337Y011022D02*
X012676Y011022D01*
X012504Y011180D02*
X014443Y011180D01*
X014401Y009912D02*
X013987Y009912D01*
X013955Y009945D02*
X013786Y010015D01*
X013603Y010015D01*
X013434Y009945D01*
X013304Y009815D01*
X013234Y009646D01*
X013234Y009463D01*
X013304Y009294D01*
X013434Y009165D01*
X013439Y009163D01*
X013439Y008790D01*
X013568Y008661D01*
X013745Y008485D01*
X013992Y008485D01*
X013305Y007797D01*
X013238Y007635D01*
X013238Y007460D01*
X013305Y007299D01*
X013429Y007175D01*
X013591Y007108D01*
X013766Y007108D01*
X013927Y007175D01*
X014129Y007376D02*
X016252Y007376D01*
X016386Y007535D02*
X014287Y007535D01*
X014446Y007693D02*
X023846Y007693D01*
X023695Y007535D02*
X016932Y007535D01*
X017066Y007376D02*
X018089Y007376D01*
X017924Y007218D02*
X017119Y007218D01*
X017116Y007059D02*
X017829Y007059D01*
X017776Y006901D02*
X017050Y006901D01*
X016859Y006742D02*
X018452Y006742D01*
X018452Y006584D02*
X018612Y006584D01*
X018612Y006425D02*
X018452Y006425D01*
X018452Y006267D02*
X018612Y006267D01*
X018584Y006108D02*
X018452Y006108D01*
X018505Y005950D02*
X017071Y005950D01*
X017119Y006108D02*
X018096Y006108D01*
X017928Y006267D02*
X017111Y006267D01*
X017041Y006425D02*
X017831Y006425D01*
X017778Y006584D02*
X016831Y006584D01*
X016486Y006584D02*
X013600Y006584D01*
X013548Y006742D02*
X016459Y006742D01*
X016267Y006901D02*
X013397Y006901D01*
X013386Y007218D02*
X012934Y007218D01*
X012903Y007187D02*
X013023Y007307D01*
X013088Y007463D01*
X013088Y007633D01*
X013023Y007789D01*
X012903Y007909D01*
X012747Y007974D01*
X012578Y007974D01*
X012421Y007909D01*
X012301Y007789D01*
X012237Y007633D01*
X012237Y007463D01*
X012301Y007307D01*
X012421Y007187D01*
X012578Y007122D01*
X012747Y007122D01*
X012903Y007187D01*
X013052Y007376D02*
X013273Y007376D01*
X013238Y007535D02*
X013088Y007535D01*
X013063Y007693D02*
X013262Y007693D01*
X013360Y007852D02*
X012961Y007852D01*
X013518Y008010D02*
X008489Y008010D01*
X008489Y007852D02*
X010379Y007852D01*
X010273Y007693D02*
X008609Y007693D01*
X008767Y007535D02*
X010681Y007535D01*
X010698Y007535D02*
X011256Y007535D01*
X011136Y007541D02*
X011136Y007567D01*
X011125Y007636D01*
X011103Y007703D01*
X011071Y007766D01*
X011030Y007822D01*
X010980Y007872D01*
X010924Y007913D01*
X010861Y007945D01*
X010794Y007967D01*
X010725Y007978D01*
X010698Y007978D01*
X010698Y007541D01*
X011136Y007541D01*
X011106Y007693D02*
X011285Y007693D01*
X011391Y007852D02*
X011001Y007852D01*
X010698Y007852D02*
X010681Y007852D01*
X010681Y007693D02*
X010698Y007693D01*
X011108Y007376D02*
X011289Y007376D01*
X011402Y007218D02*
X011006Y007218D01*
X010787Y006742D02*
X010579Y006742D01*
X010629Y006584D02*
X010738Y006584D01*
X010749Y006425D02*
X010620Y006425D01*
X010544Y006267D02*
X010827Y006267D01*
X011173Y006267D02*
X011191Y006267D01*
X011191Y006425D02*
X011173Y006425D01*
X011537Y006267D02*
X011845Y006267D01*
X011766Y006425D02*
X011615Y006425D01*
X011626Y006584D02*
X011756Y006584D01*
X011808Y006742D02*
X011577Y006742D01*
X011962Y007218D02*
X012391Y007218D01*
X012273Y007376D02*
X012075Y007376D01*
X012108Y007535D02*
X012237Y007535D01*
X012262Y007693D02*
X012079Y007693D01*
X011973Y007852D02*
X012364Y007852D01*
X013585Y008644D02*
X008489Y008644D01*
X008489Y008486D02*
X013743Y008486D01*
X013835Y008327D02*
X008489Y008327D01*
X008489Y008169D02*
X013677Y008169D01*
X013439Y008803D02*
X008489Y008803D01*
X008489Y008961D02*
X013439Y008961D01*
X013439Y009120D02*
X012897Y009120D01*
X012878Y009110D02*
X012946Y009144D01*
X013007Y009189D01*
X013060Y009242D01*
X013105Y009303D01*
X013139Y009371D01*
X013162Y009442D01*
X013174Y009517D01*
X013174Y009535D01*
X012714Y009535D01*
X012714Y009575D01*
X012674Y009575D01*
X012674Y010035D01*
X012656Y010035D01*
X012582Y010023D01*
X012510Y010000D01*
X012443Y009965D01*
X012381Y009921D01*
X012328Y009868D01*
X012284Y009806D01*
X012249Y009739D01*
X012226Y009667D01*
X012214Y009593D01*
X012214Y009575D01*
X012674Y009575D01*
X012674Y009535D01*
X012214Y009535D01*
X012214Y009517D01*
X012226Y009442D01*
X012249Y009371D01*
X012284Y009303D01*
X012328Y009242D01*
X012381Y009189D01*
X012443Y009144D01*
X012510Y009110D01*
X012582Y009087D01*
X012656Y009075D01*
X012674Y009075D01*
X012674Y009535D01*
X012714Y009535D01*
X012714Y009075D01*
X012732Y009075D01*
X012807Y009087D01*
X012878Y009110D01*
X012714Y009120D02*
X012674Y009120D01*
X012674Y009278D02*
X012714Y009278D01*
X012714Y009437D02*
X012674Y009437D01*
X012714Y009575D02*
X013174Y009575D01*
X013174Y009593D01*
X013162Y009667D01*
X013139Y009739D01*
X013105Y009806D01*
X013060Y009868D01*
X013007Y009921D01*
X012946Y009965D01*
X012878Y010000D01*
X012807Y010023D01*
X012732Y010035D01*
X012714Y010035D01*
X012714Y009575D01*
X012714Y009595D02*
X012674Y009595D01*
X012674Y009754D02*
X012714Y009754D01*
X012714Y009912D02*
X012674Y009912D01*
X012373Y009912D02*
X011987Y009912D01*
X011955Y009945D02*
X011786Y010015D01*
X011603Y010015D01*
X011434Y009945D01*
X011304Y009815D01*
X011234Y009646D01*
X011234Y009463D01*
X011304Y009294D01*
X011434Y009165D01*
X011603Y009095D01*
X011786Y009095D01*
X011955Y009165D01*
X012084Y009294D01*
X012154Y009463D01*
X012154Y009646D01*
X012084Y009815D01*
X011955Y009945D01*
X012110Y009754D02*
X012257Y009754D01*
X012214Y009595D02*
X012154Y009595D01*
X012143Y009437D02*
X012228Y009437D01*
X012302Y009278D02*
X012068Y009278D01*
X011845Y009120D02*
X012491Y009120D01*
X013086Y009278D02*
X013320Y009278D01*
X013245Y009437D02*
X013160Y009437D01*
X013174Y009595D02*
X013234Y009595D01*
X013279Y009754D02*
X013132Y009754D01*
X013016Y009912D02*
X013401Y009912D01*
X013955Y009945D02*
X014084Y009815D01*
X014154Y009646D01*
X014154Y009463D01*
X014084Y009294D01*
X013955Y009165D01*
X013879Y009133D01*
X013879Y008972D01*
X013927Y008925D01*
X015190Y008925D01*
X015544Y009278D01*
X015385Y009120D02*
X014845Y009120D01*
X014543Y009120D02*
X013879Y009120D01*
X013890Y008961D02*
X015227Y008961D01*
X015532Y008644D02*
X024756Y008644D01*
X024605Y008486D02*
X024182Y008486D01*
X024293Y008327D02*
X024453Y008327D01*
X023887Y008327D02*
X023870Y008327D01*
X023870Y008169D02*
X023887Y008169D01*
X023870Y008486D02*
X023887Y008486D01*
X023576Y008486D02*
X023157Y008486D01*
X023274Y008327D02*
X023465Y008327D01*
X023433Y008169D02*
X023309Y008169D01*
X023282Y008010D02*
X023458Y008010D01*
X023555Y007852D02*
X023178Y007852D01*
X023614Y008803D02*
X024908Y008803D01*
X025059Y008961D02*
X023746Y008961D01*
X023793Y009120D02*
X025211Y009120D01*
X025363Y009278D02*
X023778Y009278D01*
X023691Y009437D02*
X025514Y009437D01*
X025490Y008486D02*
X037546Y008486D01*
X037546Y008327D02*
X025339Y008327D01*
X025142Y007376D02*
X033408Y007376D01*
X033173Y007218D02*
X025312Y007218D01*
X025410Y007059D02*
X033071Y007059D01*
X033022Y006901D02*
X025463Y006901D01*
X024830Y005791D02*
X034909Y005791D01*
X034891Y005633D02*
X024856Y005633D01*
X024856Y005474D02*
X034914Y005474D01*
X034983Y005316D02*
X024844Y005316D01*
X024779Y005157D02*
X035129Y005157D01*
X035501Y005157D02*
X035501Y005157D01*
X035501Y005316D02*
X035501Y005316D01*
X035501Y005474D02*
X035501Y005474D01*
X035501Y005633D02*
X035501Y005633D01*
X035501Y005640D02*
X036111Y005640D01*
X036111Y005688D01*
X036096Y005783D01*
X036067Y005875D01*
X036023Y005960D01*
X035967Y006038D01*
X035899Y006106D01*
X035821Y006162D01*
X035735Y006206D01*
X035644Y006235D01*
X035549Y006250D01*
X035501Y006250D01*
X035501Y005640D01*
X035501Y005640D01*
X035501Y005791D02*
X035501Y005791D01*
X035501Y005950D02*
X035501Y005950D01*
X035501Y006108D02*
X035501Y006108D01*
X035896Y006108D02*
X043993Y006108D01*
X043993Y005950D02*
X036028Y005950D01*
X036094Y005791D02*
X043993Y005791D01*
X043993Y005633D02*
X036111Y005633D01*
X036089Y005474D02*
X038420Y005474D01*
X038348Y005444D02*
X038191Y005288D01*
X038107Y005084D01*
X038107Y004863D01*
X038191Y004658D01*
X038348Y004502D01*
X038552Y004417D01*
X038773Y004417D01*
X038977Y004502D01*
X039133Y004658D01*
X039218Y004863D01*
X039218Y005084D01*
X039133Y005288D01*
X038977Y005444D01*
X038773Y005529D01*
X038552Y005529D01*
X038348Y005444D01*
X038219Y005316D02*
X036019Y005316D01*
X035874Y005157D02*
X038137Y005157D01*
X038107Y004999D02*
X033897Y004999D01*
X033931Y004981D02*
X033846Y005025D01*
X033754Y005054D01*
X033660Y005069D01*
X033612Y005069D01*
X033612Y004459D01*
X033612Y004459D01*
X034222Y004459D01*
X034222Y004411D01*
X034207Y004317D01*
X034177Y004225D01*
X034133Y004140D01*
X034077Y004062D01*
X034009Y003994D01*
X033931Y003938D01*
X033846Y003894D01*
X033754Y003864D01*
X033660Y003849D01*
X033612Y003849D01*
X033612Y004459D01*
X033612Y004459D01*
X034222Y004459D01*
X034222Y004507D01*
X034207Y004602D01*
X034177Y004694D01*
X034133Y004779D01*
X034077Y004857D01*
X034009Y004925D01*
X033931Y004981D01*
X034089Y004840D02*
X038116Y004840D01*
X038182Y004682D02*
X034181Y004682D01*
X034219Y004523D02*
X038327Y004523D01*
X038998Y004523D02*
X040098Y004523D01*
X040119Y004502D02*
X040323Y004417D01*
X040544Y004417D01*
X040749Y004502D01*
X040905Y004658D01*
X040990Y004863D01*
X040990Y005084D01*
X040905Y005288D01*
X040749Y005444D01*
X040544Y005529D01*
X040323Y005529D01*
X040119Y005444D01*
X039963Y005288D01*
X039878Y005084D01*
X039878Y004863D01*
X039963Y004658D01*
X040119Y004502D01*
X039953Y004682D02*
X039143Y004682D01*
X039209Y004840D02*
X039888Y004840D01*
X039878Y004999D02*
X039218Y004999D01*
X039187Y005157D02*
X039909Y005157D01*
X039991Y005316D02*
X039106Y005316D01*
X038905Y005474D02*
X040192Y005474D01*
X040676Y005474D02*
X043993Y005474D01*
X043993Y005316D02*
X040877Y005316D01*
X040959Y005157D02*
X043993Y005157D01*
X043993Y004999D02*
X040990Y004999D01*
X040980Y004840D02*
X043993Y004840D01*
X043993Y004682D02*
X040915Y004682D01*
X040770Y004523D02*
X043993Y004523D01*
X043993Y004365D02*
X034214Y004365D01*
X034167Y004206D02*
X043993Y004206D01*
X043993Y004048D02*
X034062Y004048D01*
X033830Y003889D02*
X043993Y003889D01*
X043993Y003731D02*
X022931Y003731D01*
X022931Y003889D02*
X033393Y003889D01*
X033377Y003894D02*
X033469Y003864D01*
X033564Y003849D01*
X033612Y003849D01*
X033612Y004459D01*
X033612Y004459D01*
X033002Y004459D01*
X033002Y004411D01*
X033017Y004317D01*
X033046Y004225D01*
X033090Y004140D01*
X033146Y004062D01*
X033214Y003994D01*
X033292Y003938D01*
X033377Y003894D01*
X033612Y003889D02*
X033612Y003889D01*
X033612Y004048D02*
X033612Y004048D01*
X033612Y004206D02*
X033612Y004206D01*
X033612Y004365D02*
X033612Y004365D01*
X033612Y004459D02*
X033612Y004459D01*
X033002Y004459D01*
X033002Y004507D01*
X033017Y004602D01*
X033046Y004694D01*
X033090Y004779D01*
X033146Y004857D01*
X033214Y004925D01*
X033292Y004981D01*
X033377Y005025D01*
X033469Y005054D01*
X033564Y005069D01*
X033612Y005069D01*
X033612Y004459D01*
X033612Y004523D02*
X033612Y004523D01*
X033612Y004682D02*
X033612Y004682D01*
X033612Y004840D02*
X033612Y004840D01*
X033612Y004999D02*
X033612Y004999D01*
X033326Y004999D02*
X024713Y004999D01*
X024561Y004840D02*
X033134Y004840D01*
X033042Y004682D02*
X024356Y004682D01*
X023418Y004682D02*
X022931Y004682D01*
X022931Y004840D02*
X023212Y004840D01*
X023061Y004999D02*
X022931Y004999D01*
X022931Y005157D02*
X022995Y005157D01*
X022931Y004523D02*
X033004Y004523D01*
X033009Y004365D02*
X022931Y004365D01*
X022931Y004206D02*
X033056Y004206D01*
X033161Y004048D02*
X022931Y004048D01*
X022931Y003572D02*
X043993Y003572D01*
X043993Y003414D02*
X022931Y003414D01*
X022931Y003255D02*
X043993Y003255D01*
X043993Y003097D02*
X022931Y003097D01*
X022931Y002938D02*
X043993Y002938D01*
X043993Y002780D02*
X022931Y002780D01*
X022891Y002621D02*
X043993Y002621D01*
X043993Y002463D02*
X022676Y002463D01*
X017778Y002304D02*
X043993Y002304D01*
X043993Y002146D02*
X017782Y002146D01*
X017786Y001987D02*
X043993Y001987D01*
X043993Y001829D02*
X017783Y001829D01*
X017694Y001670D02*
X043993Y001670D01*
X043993Y001512D02*
X017433Y001512D01*
X017160Y001353D02*
X043993Y001353D01*
X043993Y006267D02*
X033813Y006267D01*
X034049Y006425D02*
X043993Y006425D01*
X043993Y006584D02*
X034152Y006584D01*
X034202Y006742D02*
X043993Y006742D01*
X043993Y006901D02*
X034202Y006901D01*
X034152Y007059D02*
X043993Y007059D01*
X043993Y007218D02*
X034050Y007218D01*
X033815Y007376D02*
X043993Y007376D01*
X042286Y008606D02*
X042286Y009016D01*
X041746Y009557D01*
X041685Y009278D02*
X039182Y009278D01*
X039097Y009437D02*
X040481Y009437D01*
X040322Y009595D02*
X039065Y009595D01*
X039065Y009754D02*
X040164Y009754D01*
X040099Y009912D02*
X039065Y009912D01*
X039065Y010071D02*
X040099Y010071D01*
X040099Y010229D02*
X039066Y010229D01*
X039066Y010388D02*
X040099Y010388D01*
X040099Y010546D02*
X039066Y010546D01*
X039066Y010705D02*
X040099Y010705D01*
X040099Y010863D02*
X039067Y010863D01*
X039067Y011022D02*
X040099Y011022D01*
X040099Y011180D02*
X039067Y011180D01*
X039067Y011339D02*
X040099Y011339D01*
X040099Y011497D02*
X039068Y011497D01*
X039068Y011656D02*
X040099Y011656D01*
X040099Y011814D02*
X039068Y011814D01*
X039068Y011973D02*
X040099Y011973D01*
X040099Y012131D02*
X039068Y012131D01*
X039069Y012290D02*
X040099Y012290D01*
X040099Y012448D02*
X039069Y012448D01*
X039069Y012607D02*
X040099Y012607D01*
X040099Y012765D02*
X039069Y012765D01*
X039070Y012924D02*
X040099Y012924D01*
X040099Y013082D02*
X039070Y013082D01*
X039070Y013241D02*
X040099Y013241D01*
X040099Y013399D02*
X039070Y013399D01*
X039071Y013558D02*
X040099Y013558D01*
X040099Y013716D02*
X039071Y013716D01*
X039071Y013875D02*
X040099Y013875D01*
X040099Y014033D02*
X039071Y014033D01*
X039072Y014192D02*
X040099Y014192D01*
X040099Y014350D02*
X039072Y014350D01*
X039072Y014509D02*
X040099Y014509D01*
X040099Y014667D02*
X039072Y014667D01*
X039073Y014826D02*
X040099Y014826D01*
X040099Y014984D02*
X039073Y014984D01*
X039073Y015143D02*
X040099Y015143D01*
X040099Y015301D02*
X039073Y015301D01*
X039074Y015460D02*
X040099Y015460D01*
X040099Y015618D02*
X039074Y015618D01*
X039074Y015777D02*
X040099Y015777D01*
X040099Y015935D02*
X039074Y015935D01*
X039075Y016094D02*
X040099Y016094D01*
X040099Y016252D02*
X039075Y016252D01*
X039075Y016411D02*
X040099Y016411D01*
X040099Y016569D02*
X039075Y016569D01*
X039076Y016728D02*
X040099Y016728D01*
X040099Y016886D02*
X039076Y016886D01*
X039076Y017045D02*
X040099Y017045D01*
X040099Y017203D02*
X039076Y017203D01*
X039076Y017362D02*
X040099Y017362D01*
X040099Y017520D02*
X039077Y017520D01*
X038597Y017520D02*
X025718Y017520D01*
X025718Y017362D02*
X038596Y017362D01*
X038596Y017203D02*
X025718Y017203D01*
X025718Y017045D02*
X038596Y017045D01*
X038596Y016886D02*
X025718Y016886D01*
X025718Y016728D02*
X038596Y016728D01*
X038595Y016569D02*
X025718Y016569D01*
X025718Y016411D02*
X038595Y016411D01*
X038595Y016252D02*
X025718Y016252D01*
X025718Y016094D02*
X038595Y016094D01*
X038592Y015935D02*
X038594Y015935D01*
X037901Y015935D02*
X025718Y015935D01*
X025718Y015777D02*
X037889Y015777D01*
X037889Y015618D02*
X025718Y015618D01*
X025718Y015460D02*
X037889Y015460D01*
X037981Y015301D02*
X025718Y015301D01*
X025718Y015143D02*
X038007Y015143D01*
X037475Y014667D02*
X037352Y014667D01*
X037337Y014192D02*
X037490Y014192D01*
X036703Y014192D02*
X036549Y014192D01*
X035916Y014192D02*
X035762Y014192D01*
X035128Y014192D02*
X034974Y014192D01*
X034990Y014667D02*
X035113Y014667D01*
X035777Y014667D02*
X035900Y014667D01*
X036564Y014667D02*
X036688Y014667D01*
X034326Y014667D02*
X034202Y014667D01*
X034187Y014192D02*
X034341Y014192D01*
X033553Y014192D02*
X033400Y014192D01*
X032766Y014192D02*
X032612Y014192D01*
X031979Y014192D02*
X031846Y014192D01*
X031508Y014192D02*
X031508Y014192D01*
X031508Y014350D02*
X031508Y014350D01*
X031508Y014509D02*
X031508Y014509D01*
X031508Y014667D02*
X031508Y014667D01*
X031857Y014667D02*
X031963Y014667D01*
X032627Y014667D02*
X032751Y014667D01*
X033415Y014667D02*
X033538Y014667D01*
X031159Y014667D02*
X031053Y014667D01*
X031037Y014192D02*
X031170Y014192D01*
X030404Y014192D02*
X030250Y014192D01*
X029616Y014192D02*
X029463Y014192D01*
X028829Y014192D02*
X028675Y014192D01*
X028690Y014667D02*
X028814Y014667D01*
X029478Y014667D02*
X029601Y014667D01*
X030265Y014667D02*
X030389Y014667D01*
X028026Y014667D02*
X027903Y014667D01*
X027239Y014667D02*
X027132Y014667D01*
X027121Y014192D02*
X027254Y014192D01*
X027888Y014192D02*
X028042Y014192D01*
X025664Y014667D02*
X025541Y014667D01*
X025718Y017679D02*
X038597Y017679D01*
X038597Y017837D02*
X025718Y017837D01*
X025718Y017996D02*
X038597Y017996D01*
X038598Y018154D02*
X025718Y018154D01*
X025718Y018313D02*
X038598Y018313D01*
X038598Y018471D02*
X025718Y018471D01*
X025718Y018630D02*
X038598Y018630D01*
X038599Y018788D02*
X025718Y018788D01*
X025718Y018947D02*
X038599Y018947D01*
X038599Y019105D02*
X025718Y019105D01*
X025718Y019264D02*
X038599Y019264D01*
X038600Y019422D02*
X025718Y019422D01*
X025718Y019581D02*
X038600Y019581D01*
X038600Y019739D02*
X025718Y019739D01*
X025718Y019898D02*
X038600Y019898D01*
X038601Y020056D02*
X025718Y020056D01*
X025718Y020215D02*
X038601Y020215D01*
X038601Y020373D02*
X025718Y020373D01*
X025718Y020532D02*
X038601Y020532D01*
X038466Y020690D02*
X025718Y020690D01*
X025718Y020849D02*
X038466Y020849D01*
X038466Y021007D02*
X025718Y021007D01*
X025718Y021166D02*
X038466Y021166D01*
X039356Y021675D02*
X039356Y021675D01*
X042422Y023702D02*
X043993Y023702D01*
X043993Y023860D02*
X042541Y023860D01*
X042583Y024019D02*
X043993Y024019D01*
X043993Y024177D02*
X042569Y024177D01*
X042490Y024336D02*
X043993Y024336D01*
X043993Y024494D02*
X042258Y024494D01*
X042360Y024653D02*
X043993Y024653D01*
X043993Y024811D02*
X042521Y024811D01*
X042583Y024970D02*
X043993Y024970D01*
X043993Y025128D02*
X042583Y025128D01*
X042523Y025287D02*
X043993Y025287D01*
X043993Y025445D02*
X042376Y025445D01*
X042241Y025604D02*
X043993Y025604D01*
X043993Y025762D02*
X042483Y025762D01*
X042566Y025921D02*
X043993Y025921D01*
X043993Y026079D02*
X042583Y026079D01*
X042544Y026238D02*
X043993Y026238D01*
X043993Y026396D02*
X042429Y026396D01*
X042434Y026713D02*
X043993Y026713D01*
X043993Y026555D02*
X039181Y026555D01*
X039181Y026713D02*
X041811Y026713D01*
X041816Y026396D02*
X039181Y026396D01*
X039191Y025762D02*
X041762Y025762D01*
X042004Y025604D02*
X039033Y025604D01*
X038376Y026872D02*
X038170Y026872D01*
X038205Y027030D02*
X038440Y027030D01*
X038440Y027189D02*
X038174Y027189D01*
X038058Y027347D02*
X038440Y027347D01*
X038440Y027506D02*
X038049Y027506D01*
X038049Y027664D02*
X038440Y027664D01*
X038440Y027823D02*
X038037Y027823D01*
X037914Y027981D02*
X038508Y027981D01*
X038666Y028140D02*
X037756Y028140D01*
X037521Y028035D02*
X037809Y027747D01*
X037809Y027037D01*
X037807Y027035D01*
X037015Y026412D02*
X036941Y026339D01*
X036812Y026210D01*
X036812Y026000D01*
X033934Y026000D01*
X033934Y026638D01*
X033949Y026638D01*
X034095Y026698D01*
X034207Y026810D01*
X034264Y026947D01*
X034321Y026810D01*
X034432Y026698D01*
X034579Y026638D01*
X034737Y026638D01*
X034883Y026698D01*
X034995Y026810D01*
X035051Y026947D01*
X035108Y026810D01*
X035197Y026722D01*
X035197Y026679D01*
X035326Y026550D01*
X035463Y026412D01*
X037015Y026412D01*
X036999Y026396D02*
X033934Y026396D01*
X033934Y026238D02*
X036840Y026238D01*
X036812Y026079D02*
X033934Y026079D01*
X033934Y026555D02*
X035321Y026555D01*
X035197Y026713D02*
X034897Y026713D01*
X035020Y026872D02*
X035083Y026872D01*
X034418Y026713D02*
X034110Y026713D01*
X034233Y026872D02*
X034295Y026872D01*
X034528Y028035D02*
X037521Y028035D01*
X038880Y027664D02*
X041860Y027664D01*
X041720Y027823D02*
X038972Y027823D01*
X038880Y027506D02*
X042015Y027506D01*
X042230Y027506D02*
X043993Y027506D01*
X043993Y027664D02*
X042385Y027664D01*
X042525Y027823D02*
X043993Y027823D01*
X043993Y027981D02*
X042583Y027981D01*
X042583Y028140D02*
X043993Y028140D01*
X043993Y028298D02*
X042519Y028298D01*
X042348Y028457D02*
X043993Y028457D01*
X043993Y028615D02*
X034287Y028615D01*
X034129Y028774D02*
X043993Y028774D01*
X043993Y028932D02*
X033970Y028932D01*
X033726Y028837D02*
X034528Y028035D01*
X034604Y028298D02*
X041726Y028298D01*
X041897Y028457D02*
X034446Y028457D01*
X033726Y028837D02*
X011322Y028837D01*
X010771Y028286D01*
X010771Y028261D01*
X010746Y028236D01*
X010746Y024126D01*
X010388Y024177D02*
X002969Y024177D01*
X002969Y024019D02*
X010388Y024019D01*
X010390Y023860D02*
X003137Y023860D01*
X003139Y023858D02*
X003045Y023952D01*
X002969Y023952D01*
X002969Y026469D01*
X003256Y026756D01*
X003289Y026756D01*
X003289Y026732D01*
X003383Y026638D01*
X003911Y026638D01*
X004005Y026732D01*
X004005Y027261D01*
X003911Y027354D01*
X003383Y027354D01*
X003289Y027261D01*
X003289Y027236D01*
X003204Y027236D01*
X003109Y027236D01*
X003021Y027200D01*
X002593Y026772D01*
X002525Y026704D01*
X002489Y026616D01*
X002489Y023924D01*
X002423Y023858D01*
X002423Y023329D01*
X002517Y023235D01*
X003045Y023235D01*
X003139Y023329D01*
X003139Y023858D01*
X003139Y023702D02*
X012312Y023702D01*
X012154Y023860D02*
X011102Y023860D01*
X011104Y024019D02*
X012029Y024019D01*
X012029Y024177D02*
X011104Y024177D01*
X011104Y024336D02*
X012029Y024336D01*
X012029Y024494D02*
X010986Y024494D01*
X010986Y024653D02*
X012029Y024653D01*
X012029Y024811D02*
X010986Y024811D01*
X010986Y024970D02*
X012029Y024970D01*
X012029Y025128D02*
X010986Y025128D01*
X010986Y025287D02*
X012029Y025287D01*
X011924Y025445D02*
X010986Y025445D01*
X010986Y025604D02*
X011891Y025604D01*
X011891Y025762D02*
X010986Y025762D01*
X010986Y025921D02*
X011891Y025921D01*
X011963Y026079D02*
X010986Y026079D01*
X010986Y026238D02*
X012554Y026238D01*
X012554Y026079D02*
X012535Y026079D01*
X012672Y026396D02*
X010986Y026396D01*
X010986Y026555D02*
X012672Y026555D01*
X012672Y026713D02*
X010986Y026713D01*
X010986Y026872D02*
X012672Y026872D01*
X012672Y027030D02*
X010986Y027030D01*
X010986Y027189D02*
X012672Y027189D01*
X012672Y027347D02*
X010986Y027347D01*
X010986Y027506D02*
X012672Y027506D01*
X012585Y027664D02*
X010986Y027664D01*
X010986Y027823D02*
X012461Y027823D01*
X012415Y027981D02*
X010986Y027981D01*
X010986Y028140D02*
X012425Y028140D01*
X012498Y028298D02*
X011122Y028298D01*
X011281Y028457D02*
X012717Y028457D01*
X013033Y028457D02*
X013717Y028457D01*
X013498Y028298D02*
X013252Y028298D01*
X013325Y028140D02*
X013425Y028140D01*
X013415Y027981D02*
X013335Y027981D01*
X013289Y027823D02*
X013461Y027823D01*
X013585Y027664D02*
X013165Y027664D01*
X013152Y027506D02*
X013850Y027506D01*
X013692Y027347D02*
X013152Y027347D01*
X013152Y027189D02*
X013533Y027189D01*
X013406Y027030D02*
X013152Y027030D01*
X013152Y026872D02*
X013406Y026872D01*
X013406Y026713D02*
X013152Y026713D01*
X013152Y026555D02*
X013406Y026555D01*
X013406Y026396D02*
X013152Y026396D01*
X013271Y026238D02*
X013406Y026238D01*
X013303Y026079D02*
X013271Y026079D01*
X012912Y025981D02*
X012912Y027987D01*
X012875Y028024D01*
X014033Y028457D02*
X014666Y028457D01*
X014691Y028469D02*
X014623Y028435D01*
X014562Y028390D01*
X014509Y028337D01*
X014464Y028276D01*
X014430Y028208D01*
X014407Y028137D01*
X014395Y028062D01*
X014395Y028044D01*
X014855Y028044D01*
X014855Y028504D01*
X014837Y028504D01*
X014763Y028492D01*
X014691Y028469D01*
X014855Y028457D02*
X014895Y028457D01*
X014895Y028298D02*
X014855Y028298D01*
X014855Y028140D02*
X014895Y028140D01*
X015084Y028457D02*
X015717Y028457D01*
X015498Y028298D02*
X015269Y028298D01*
X015342Y028140D02*
X015425Y028140D01*
X015415Y027981D02*
X015354Y027981D01*
X015311Y027823D02*
X015461Y027823D01*
X016165Y027664D02*
X016585Y027664D01*
X016700Y027506D02*
X016138Y027506D01*
X016029Y027347D02*
X016572Y027347D01*
X016413Y027189D02*
X014155Y027189D01*
X014239Y027030D02*
X013997Y027030D01*
X014145Y026872D02*
X013846Y026872D01*
X013846Y026713D02*
X014145Y026713D01*
X014145Y026555D02*
X013846Y026555D01*
X013846Y026396D02*
X014145Y026396D01*
X014145Y026238D02*
X013846Y026238D01*
X013950Y026079D02*
X014145Y026079D01*
X014145Y025921D02*
X013984Y025921D01*
X013984Y025762D02*
X014145Y025762D01*
X014145Y025604D02*
X013984Y025604D01*
X013932Y025445D02*
X014145Y025445D01*
X015222Y025445D02*
X017152Y025445D01*
X017063Y025287D02*
X015222Y025287D01*
X015221Y025128D02*
X017063Y025128D01*
X017063Y024970D02*
X015315Y024970D01*
X015904Y024811D02*
X016054Y024811D01*
X016770Y024811D02*
X017078Y024811D01*
X017120Y024653D02*
X016770Y024653D01*
X016770Y024494D02*
X017083Y024494D01*
X017047Y024336D02*
X016770Y024336D01*
X017462Y024177D02*
X017804Y024177D01*
X017804Y024019D02*
X017431Y024019D01*
X017316Y023860D02*
X017804Y023860D01*
X017804Y023702D02*
X015261Y023702D01*
X015261Y023543D02*
X017804Y023543D01*
X017804Y023385D02*
X015261Y023385D01*
X015261Y023226D02*
X017804Y023226D01*
X017804Y023068D02*
X015261Y023068D01*
X015261Y022909D02*
X017804Y022909D01*
X017666Y022751D02*
X015264Y022751D01*
X015176Y022592D02*
X017666Y022592D01*
X017666Y022434D02*
X015535Y022434D01*
X015615Y022275D02*
X017666Y022275D01*
X018382Y022275D02*
X019841Y022275D01*
X019841Y022117D02*
X015615Y022117D01*
X015615Y021958D02*
X019841Y021958D01*
X019841Y021800D02*
X015590Y021800D01*
X015358Y021641D02*
X019841Y021641D01*
X019841Y021483D02*
X015358Y021483D01*
X015358Y021324D02*
X019841Y021324D01*
X019841Y021166D02*
X015358Y021166D01*
X015358Y021007D02*
X019841Y021007D01*
X019841Y020849D02*
X015358Y020849D01*
X015358Y020690D02*
X019841Y020690D01*
X019841Y020532D02*
X015358Y020532D01*
X015358Y020373D02*
X019841Y020373D01*
X019841Y020215D02*
X015358Y020215D01*
X015358Y020056D02*
X019841Y020056D01*
X019841Y019898D02*
X015358Y019898D01*
X015358Y019739D02*
X019841Y019739D01*
X019841Y019581D02*
X015358Y019581D01*
X015358Y019422D02*
X019841Y019422D01*
X019841Y019264D02*
X015358Y019264D01*
X015358Y019105D02*
X019841Y019105D01*
X019841Y018947D02*
X015358Y018947D01*
X015358Y018788D02*
X019841Y018788D01*
X019841Y018630D02*
X015358Y018630D01*
X015358Y018471D02*
X019841Y018471D01*
X019841Y018313D02*
X015358Y018313D01*
X015358Y018154D02*
X019841Y018154D01*
X019841Y017996D02*
X015358Y017996D01*
X015358Y017837D02*
X019841Y017837D01*
X019841Y017679D02*
X015358Y017679D01*
X015358Y017520D02*
X019841Y017520D01*
X019841Y017362D02*
X015358Y017362D01*
X015358Y017203D02*
X019841Y017203D01*
X019841Y017045D02*
X015358Y017045D01*
X015358Y016886D02*
X019841Y016886D01*
X019841Y016728D02*
X015358Y016728D01*
X015358Y016569D02*
X019841Y016569D01*
X019841Y016411D02*
X015358Y016411D01*
X015358Y016252D02*
X019841Y016252D01*
X019841Y016094D02*
X015358Y016094D01*
X015403Y015935D02*
X019841Y015935D01*
X019841Y015777D02*
X015562Y015777D01*
X015720Y015618D02*
X019841Y015618D01*
X019841Y015460D02*
X015879Y015460D01*
X016000Y015301D02*
X019841Y015301D01*
X019841Y015143D02*
X016000Y015143D01*
X016000Y014984D02*
X019841Y014984D01*
X019841Y014826D02*
X016000Y014826D01*
X015560Y014984D02*
X011798Y014984D01*
X011798Y015143D02*
X015560Y015143D01*
X015415Y015301D02*
X011747Y015301D01*
X011132Y015301D02*
X010538Y015301D01*
X010538Y015143D02*
X011081Y015143D01*
X011081Y014984D02*
X010538Y014984D01*
X010538Y014826D02*
X010970Y014826D01*
X010970Y014667D02*
X010538Y014667D01*
X010538Y014509D02*
X010970Y014509D01*
X010970Y014350D02*
X010538Y014350D01*
X010538Y014192D02*
X010970Y014192D01*
X010098Y014509D02*
X002904Y014509D01*
X002881Y014667D02*
X010098Y014667D01*
X010098Y014826D02*
X002829Y014826D01*
X002829Y014984D02*
X010098Y014984D01*
X010098Y015143D02*
X002829Y015143D01*
X002829Y015301D02*
X010098Y015301D01*
X010098Y015460D02*
X002829Y015460D01*
X002829Y015618D02*
X010098Y015618D01*
X010098Y015777D02*
X002829Y015777D01*
X002829Y015935D02*
X010098Y015935D01*
X010098Y016094D02*
X002829Y016094D01*
X002829Y016252D02*
X010098Y016252D01*
X010098Y016411D02*
X002829Y016411D01*
X002864Y016569D02*
X010155Y016569D01*
X010313Y016728D02*
X003023Y016728D01*
X003181Y016886D02*
X010472Y016886D01*
X010777Y016569D02*
X014918Y016569D01*
X014918Y016411D02*
X010619Y016411D01*
X010538Y016252D02*
X014918Y016252D01*
X014918Y016094D02*
X010538Y016094D01*
X010538Y015935D02*
X014918Y015935D01*
X014940Y015777D02*
X010538Y015777D01*
X010538Y015618D02*
X015098Y015618D01*
X015047Y015669D02*
X015047Y015669D01*
X015257Y015460D02*
X010538Y015460D01*
X013651Y017045D02*
X003340Y017045D01*
X003498Y017203D02*
X013810Y017203D01*
X013875Y017362D02*
X003657Y017362D01*
X003774Y017520D02*
X013875Y017520D01*
X013875Y017679D02*
X003773Y017679D01*
X003761Y017837D02*
X013229Y017837D01*
X013180Y017996D02*
X003839Y017996D01*
X003839Y018154D02*
X013180Y018154D01*
X013180Y018313D02*
X003839Y018313D01*
X003813Y018471D02*
X013237Y018471D01*
X013319Y018630D02*
X001737Y018630D01*
X001736Y018788D02*
X013319Y018788D01*
X013319Y018947D02*
X001735Y018947D01*
X001734Y019105D02*
X013319Y019105D01*
X013319Y019264D02*
X001733Y019264D01*
X001733Y019422D02*
X002244Y019422D01*
X002290Y019375D02*
X002162Y019503D01*
X002093Y019671D01*
X002093Y019852D01*
X002162Y020019D01*
X002290Y020147D01*
X002458Y020216D01*
X002639Y020216D01*
X002806Y020147D01*
X002934Y020019D01*
X003004Y019852D01*
X003004Y019671D01*
X002934Y019503D01*
X002806Y019375D01*
X002639Y019306D01*
X002458Y019306D01*
X002290Y019375D01*
X002130Y019581D02*
X001732Y019581D01*
X001731Y019739D02*
X002093Y019739D01*
X002112Y019898D02*
X001730Y019898D01*
X001729Y020056D02*
X002199Y020056D01*
X002453Y020215D02*
X001728Y020215D01*
X001728Y020373D02*
X013319Y020373D01*
X013319Y020215D02*
X006643Y020215D01*
X006639Y020216D02*
X006458Y020216D01*
X006290Y020147D01*
X006162Y020019D01*
X006093Y019852D01*
X006093Y019671D01*
X006162Y019503D01*
X006290Y019375D01*
X006458Y019306D01*
X006639Y019306D01*
X006806Y019375D01*
X006934Y019503D01*
X007004Y019671D01*
X007004Y019852D01*
X006934Y020019D01*
X006806Y020147D01*
X006639Y020216D01*
X006453Y020215D02*
X002643Y020215D01*
X002897Y020056D02*
X006199Y020056D01*
X006112Y019898D02*
X002985Y019898D01*
X003004Y019739D02*
X006093Y019739D01*
X006130Y019581D02*
X002966Y019581D01*
X002853Y019422D02*
X006244Y019422D01*
X006853Y019422D02*
X013319Y019422D01*
X013319Y019581D02*
X006966Y019581D01*
X007004Y019739D02*
X013319Y019739D01*
X013319Y019898D02*
X006985Y019898D01*
X006897Y020056D02*
X013319Y020056D01*
X013319Y020532D02*
X001727Y020532D01*
X001726Y020690D02*
X013319Y020690D01*
X013319Y020849D02*
X001725Y020849D01*
X001724Y021007D02*
X013319Y021007D01*
X013319Y021166D02*
X001723Y021166D01*
X001723Y021324D02*
X013319Y021324D01*
X013319Y021483D02*
X001722Y021483D01*
X001721Y021641D02*
X013319Y021641D01*
X013319Y021800D02*
X001720Y021800D01*
X002185Y021958D02*
X004057Y021958D01*
X004674Y021958D02*
X013319Y021958D01*
X013422Y022117D02*
X004723Y022117D01*
X004723Y022275D02*
X013581Y022275D01*
X013739Y022434D02*
X004723Y022434D01*
X004668Y022592D02*
X013898Y022592D01*
X014056Y022751D02*
X001245Y022751D01*
X001245Y022909D02*
X014108Y022909D01*
X014108Y023068D02*
X001245Y023068D01*
X001245Y023226D02*
X014108Y023226D01*
X013544Y023385D02*
X003139Y023385D01*
X003139Y023543D02*
X012471Y023543D01*
X010506Y024494D02*
X002969Y024494D01*
X002969Y024336D02*
X010388Y024336D01*
X010506Y024653D02*
X002969Y024653D01*
X002969Y024811D02*
X006167Y024811D01*
X006200Y024778D02*
X006729Y024778D01*
X006823Y024872D01*
X006823Y025401D01*
X006729Y025495D01*
X006704Y025495D01*
X006704Y025944D01*
X006775Y026015D01*
X007490Y026015D01*
X007502Y026011D01*
X007513Y026012D01*
X007524Y026010D01*
X007549Y026015D01*
X007573Y026015D01*
X007585Y026019D01*
X007597Y026021D01*
X007607Y026026D01*
X007618Y026028D01*
X007639Y026042D01*
X007661Y026051D01*
X007670Y026060D01*
X007681Y026066D01*
X007688Y026074D01*
X007698Y026081D01*
X007711Y026101D01*
X007729Y026119D01*
X007734Y026130D01*
X007734Y026130D01*
X007747Y026139D01*
X007764Y026167D01*
X007785Y026192D01*
X007789Y026207D01*
X007864Y026328D01*
X007902Y026383D01*
X007903Y026383D01*
X007928Y026422D01*
X007954Y026461D01*
X007955Y026462D01*
X008016Y026555D01*
X008212Y026555D01*
X008306Y026649D01*
X008306Y027178D01*
X008212Y027271D01*
X007683Y027271D01*
X007590Y027178D01*
X007590Y026793D01*
X007462Y026589D01*
X007398Y026495D01*
X006628Y026495D01*
X006539Y026458D01*
X006472Y026390D01*
X006261Y026180D01*
X006224Y026091D01*
X006224Y025495D01*
X006200Y025495D01*
X006106Y025401D01*
X006106Y024872D01*
X006200Y024778D01*
X006106Y024970D02*
X002969Y024970D01*
X002969Y025128D02*
X006106Y025128D01*
X006106Y025287D02*
X002969Y025287D01*
X002969Y025445D02*
X006151Y025445D01*
X006224Y025604D02*
X002969Y025604D01*
X002969Y025762D02*
X006224Y025762D01*
X006224Y025921D02*
X002969Y025921D01*
X002969Y026079D02*
X006224Y026079D01*
X006319Y026238D02*
X002969Y026238D01*
X002969Y026396D02*
X006477Y026396D01*
X006675Y026255D02*
X007525Y026255D01*
X007569Y026307D01*
X007948Y026913D01*
X007964Y026911D02*
X007729Y026555D01*
X007525Y026255D01*
X007695Y026079D02*
X010506Y026079D01*
X010506Y025921D02*
X006704Y025921D01*
X006704Y025762D02*
X010506Y025762D01*
X010506Y025604D02*
X006704Y025604D01*
X006778Y025445D02*
X010506Y025445D01*
X010506Y025287D02*
X006823Y025287D01*
X006823Y025128D02*
X010506Y025128D01*
X010506Y024970D02*
X006823Y024970D01*
X006762Y024811D02*
X010506Y024811D01*
X010506Y026238D02*
X007808Y026238D01*
X007911Y026396D02*
X010506Y026396D01*
X010506Y026555D02*
X008016Y026555D01*
X008306Y026713D02*
X010506Y026713D01*
X010506Y026872D02*
X008306Y026872D01*
X008306Y027030D02*
X010506Y027030D01*
X010506Y027189D02*
X008295Y027189D01*
X007601Y027189D02*
X004005Y027189D01*
X004005Y027030D02*
X007590Y027030D01*
X007590Y026872D02*
X004005Y026872D01*
X003986Y026713D02*
X007539Y026713D01*
X007438Y026555D02*
X003054Y026555D01*
X003213Y026713D02*
X003308Y026713D01*
X003157Y026996D02*
X002729Y026568D01*
X002729Y023646D01*
X002781Y023593D01*
X002423Y023543D02*
X001245Y023543D01*
X001245Y023385D02*
X002423Y023385D01*
X002423Y023702D02*
X001245Y023702D01*
X001245Y023860D02*
X002425Y023860D01*
X002489Y024019D02*
X001245Y024019D01*
X001245Y024177D02*
X002489Y024177D01*
X002489Y024336D02*
X001245Y024336D01*
X001245Y024494D02*
X002489Y024494D01*
X002489Y024653D02*
X001245Y024653D01*
X001245Y024811D02*
X002489Y024811D01*
X002489Y024970D02*
X001245Y024970D01*
X001245Y025128D02*
X002489Y025128D01*
X002489Y025287D02*
X001245Y025287D01*
X001245Y025445D02*
X002489Y025445D01*
X002489Y025604D02*
X001245Y025604D01*
X001245Y025762D02*
X002489Y025762D01*
X002489Y025921D02*
X001245Y025921D01*
X001245Y026079D02*
X002489Y026079D01*
X002489Y026238D02*
X001245Y026238D01*
X001245Y026396D02*
X002489Y026396D01*
X002489Y026555D02*
X001245Y026555D01*
X001245Y026713D02*
X002534Y026713D01*
X002692Y026872D02*
X001245Y026872D01*
X001245Y027030D02*
X002851Y027030D01*
X003009Y027189D02*
X001245Y027189D01*
X001245Y027347D02*
X003375Y027347D01*
X003157Y026996D02*
X003647Y026996D01*
X003919Y027347D02*
X010506Y027347D01*
X010506Y027506D02*
X001245Y027506D01*
X001245Y027664D02*
X010506Y027664D01*
X010506Y027823D02*
X001245Y027823D01*
X001245Y027981D02*
X010506Y027981D01*
X010506Y028140D02*
X007444Y028140D01*
X007442Y028137D02*
X007570Y028265D01*
X007639Y028432D01*
X007639Y028613D01*
X007570Y028781D01*
X007442Y028909D01*
X007274Y028978D01*
X007093Y028978D01*
X006926Y028909D01*
X006798Y028781D01*
X006729Y028613D01*
X006729Y028432D01*
X006798Y028265D01*
X006926Y028137D01*
X007093Y028068D01*
X007274Y028068D01*
X007442Y028137D01*
X007584Y028298D02*
X010512Y028298D01*
X010602Y028457D02*
X007639Y028457D01*
X007639Y028615D02*
X010761Y028615D01*
X010635Y028490D02*
X010635Y028490D01*
X010919Y028774D02*
X007573Y028774D01*
X007386Y028932D02*
X011078Y028932D01*
X011119Y028973D02*
X011119Y028973D01*
X014252Y028298D02*
X014481Y028298D01*
X014408Y028140D02*
X014325Y028140D01*
X014335Y027981D02*
X014396Y027981D01*
X014439Y027823D02*
X014289Y027823D01*
X016033Y028457D02*
X016717Y028457D01*
X016498Y028298D02*
X016252Y028298D01*
X016325Y028140D02*
X016425Y028140D01*
X016415Y027981D02*
X016335Y027981D01*
X016289Y027823D02*
X016461Y027823D01*
X017165Y027664D02*
X017585Y027664D01*
X017461Y027823D02*
X017289Y027823D01*
X017335Y027981D02*
X017415Y027981D01*
X017425Y028140D02*
X017325Y028140D01*
X017252Y028298D02*
X017498Y028298D01*
X017717Y028457D02*
X017033Y028457D01*
X018033Y028457D02*
X018335Y028457D01*
X018310Y028298D02*
X018252Y028298D01*
X018750Y028140D02*
X019301Y028140D01*
X019301Y028298D02*
X018798Y028298D01*
X018750Y027981D02*
X019301Y027981D01*
X019371Y027823D02*
X018750Y027823D01*
X018750Y027664D02*
X019439Y027664D01*
X019439Y027506D02*
X018685Y027506D01*
X018526Y027347D02*
X019439Y027347D01*
X019297Y027189D02*
X018368Y027189D01*
X018083Y027030D02*
X019138Y027030D01*
X018980Y026872D02*
X018083Y026872D01*
X018401Y026713D02*
X018821Y026713D01*
X018663Y026555D02*
X018468Y026555D01*
X018468Y026396D02*
X018601Y026396D01*
X018601Y026238D02*
X018468Y026238D01*
X018429Y026079D02*
X018601Y026079D01*
X018601Y025921D02*
X018244Y025921D01*
X018244Y025762D02*
X018601Y025762D01*
X018601Y025604D02*
X018244Y025604D01*
X018244Y025445D02*
X018601Y025445D01*
X018601Y025287D02*
X018244Y025287D01*
X018244Y025128D02*
X018601Y025128D01*
X018601Y024970D02*
X018244Y024970D01*
X018244Y024811D02*
X018601Y024811D01*
X018601Y024653D02*
X018244Y024653D01*
X018244Y024494D02*
X018601Y024494D01*
X018667Y024336D02*
X018244Y024336D01*
X018244Y024177D02*
X018667Y024177D01*
X018728Y024019D02*
X018244Y024019D01*
X018244Y023860D02*
X019841Y023860D01*
X019841Y023702D02*
X018244Y023702D01*
X018244Y023543D02*
X019841Y023543D01*
X019841Y023385D02*
X018244Y023385D01*
X018244Y023226D02*
X019841Y023226D01*
X019841Y023068D02*
X018244Y023068D01*
X018244Y022909D02*
X019841Y022909D01*
X019841Y022751D02*
X018382Y022751D01*
X018382Y022592D02*
X019841Y022592D01*
X019841Y022434D02*
X018382Y022434D01*
X019323Y024019D02*
X019841Y024019D01*
X019841Y024177D02*
X019384Y024177D01*
X019384Y024336D02*
X019841Y024336D01*
X019841Y024494D02*
X019384Y024494D01*
X019339Y024653D02*
X019841Y024653D01*
X019841Y024811D02*
X019041Y024811D01*
X019041Y024970D02*
X019841Y024970D01*
X019841Y025128D02*
X019041Y025128D01*
X019041Y025287D02*
X019841Y025287D01*
X019841Y025445D02*
X019041Y025445D01*
X019041Y025604D02*
X019841Y025604D01*
X019041Y025762D02*
X026448Y025762D01*
X026448Y025604D02*
X025718Y025604D01*
X025718Y025445D02*
X026446Y025445D01*
X026445Y025287D02*
X025718Y025287D01*
X025718Y025128D02*
X026444Y025128D01*
X026443Y024970D02*
X025718Y024970D01*
X025718Y024811D02*
X026442Y024811D01*
X026440Y024653D02*
X025718Y024653D01*
X025718Y024494D02*
X026439Y024494D01*
X026438Y024336D02*
X025718Y024336D01*
X025718Y024177D02*
X026436Y024177D01*
X026437Y024019D02*
X025718Y024019D01*
X025718Y023860D02*
X026438Y023860D01*
X026440Y023702D02*
X025718Y023702D01*
X025718Y023543D02*
X026441Y023543D01*
X026442Y023385D02*
X025718Y023385D01*
X025718Y023226D02*
X026443Y023226D01*
X026444Y023068D02*
X025718Y023068D01*
X025718Y022909D02*
X026445Y022909D01*
X026446Y022751D02*
X025718Y022751D01*
X025718Y022592D02*
X026447Y022592D01*
X026448Y022434D02*
X025718Y022434D01*
X025718Y022275D02*
X026450Y022275D01*
X026451Y022117D02*
X025718Y022117D01*
X025718Y021958D02*
X026452Y021958D01*
X026453Y021800D02*
X025718Y021800D01*
X025718Y021641D02*
X026454Y021641D01*
X026455Y021483D02*
X025718Y021483D01*
X025718Y021324D02*
X026485Y021324D01*
X026493Y021306D02*
X026493Y021306D01*
X030627Y023860D02*
X030764Y023860D01*
X030911Y024336D02*
X041755Y024336D01*
X041987Y024494D02*
X030752Y024494D01*
X030594Y024653D02*
X041885Y024653D01*
X041725Y024811D02*
X030435Y024811D01*
X030277Y024970D02*
X031283Y024970D01*
X031124Y025128D02*
X030118Y025128D01*
X030114Y025287D02*
X030966Y025287D01*
X030807Y025445D02*
X030114Y025445D01*
X030114Y025604D02*
X030649Y025604D01*
X030490Y025762D02*
X030114Y025762D01*
X030114Y025921D02*
X030476Y025921D01*
X030476Y026079D02*
X030114Y026079D01*
X030114Y026238D02*
X030476Y026238D01*
X030476Y026396D02*
X030114Y026396D01*
X030114Y026555D02*
X030476Y026555D01*
X030476Y026713D02*
X030173Y026713D01*
X030296Y026872D02*
X030358Y026872D01*
X029305Y027506D02*
X019879Y027506D01*
X019879Y027664D02*
X029305Y027664D01*
X029305Y027823D02*
X019948Y027823D01*
X020017Y027981D02*
X029305Y027981D01*
X029305Y028140D02*
X020017Y028140D01*
X020017Y028298D02*
X029305Y028298D01*
X028895Y027347D02*
X028609Y027347D01*
X028725Y027189D02*
X028779Y027189D01*
X028783Y026872D02*
X028721Y026872D01*
X028598Y026713D02*
X028906Y026713D01*
X028119Y026713D02*
X027811Y026713D01*
X027933Y026872D02*
X027996Y026872D01*
X027992Y027189D02*
X027938Y027189D01*
X027821Y027347D02*
X028108Y027347D01*
X027321Y027347D02*
X027034Y027347D01*
X027150Y027189D02*
X027204Y027189D01*
X027209Y026872D02*
X027146Y026872D01*
X027023Y026713D02*
X027331Y026713D01*
X026448Y026079D02*
X019041Y026079D01*
X019041Y025921D02*
X026448Y025921D01*
X017804Y025921D02*
X015222Y025921D01*
X015222Y026079D02*
X017790Y026079D01*
X017752Y026238D02*
X015222Y026238D01*
X015222Y026219D02*
X015222Y026219D01*
X015222Y026396D02*
X017752Y026396D01*
X017752Y026555D02*
X017010Y026555D01*
X017036Y027189D02*
X017643Y027189D01*
X017643Y027347D02*
X017140Y027347D01*
X017140Y027506D02*
X017747Y027506D01*
X017804Y025762D02*
X015222Y025762D01*
X015222Y025604D02*
X017804Y025604D01*
X017804Y025445D02*
X017689Y025445D01*
X017779Y025287D02*
X017804Y025287D01*
X017804Y025128D02*
X017779Y025128D01*
X017779Y024970D02*
X017804Y024970D01*
X017804Y024811D02*
X017763Y024811D01*
X017804Y024653D02*
X017571Y024653D01*
X017535Y024494D02*
X017804Y024494D01*
X017804Y024336D02*
X017499Y024336D01*
X015222Y026401D02*
X015222Y026401D01*
X014513Y022235D02*
X014515Y020956D01*
X014508Y020949D01*
X014508Y020877D01*
X014496Y020807D01*
X014508Y020789D01*
X014508Y020188D01*
X014423Y020080D01*
X014410Y020077D01*
X014405Y020069D01*
X014174Y020069D01*
X014130Y020025D01*
X014122Y020033D01*
X014122Y021817D01*
X014318Y022028D01*
X014338Y022032D01*
X014379Y022093D01*
X014429Y022147D01*
X014428Y022151D01*
X014513Y022235D01*
X014513Y022117D02*
X014400Y022117D01*
X014513Y021958D02*
X014253Y021958D01*
X014122Y021800D02*
X014514Y021800D01*
X014514Y021641D02*
X014122Y021641D01*
X014122Y021483D02*
X014514Y021483D01*
X014515Y021324D02*
X014122Y021324D01*
X014122Y021166D02*
X014515Y021166D01*
X014515Y021007D02*
X014122Y021007D01*
X014122Y020849D02*
X014503Y020849D01*
X014508Y020690D02*
X014122Y020690D01*
X014122Y020532D02*
X014508Y020532D01*
X014508Y020373D02*
X014122Y020373D01*
X014122Y020215D02*
X014508Y020215D01*
X014161Y020056D02*
X014122Y020056D01*
X014839Y019898D02*
X014918Y019898D01*
X014918Y019739D02*
X014797Y019739D01*
X014797Y019581D02*
X014918Y019581D01*
X014918Y019422D02*
X014772Y019422D01*
X014918Y019264D02*
X014315Y019264D01*
X014315Y019105D02*
X014918Y019105D01*
X014918Y018947D02*
X014315Y018947D01*
X014315Y018788D02*
X014918Y018788D01*
X014918Y018630D02*
X014315Y018630D01*
X014315Y018471D02*
X014918Y018471D01*
X014918Y018313D02*
X014315Y018313D01*
X014315Y018154D02*
X014918Y018154D01*
X014918Y017996D02*
X014315Y017996D01*
X014315Y017837D02*
X014918Y017837D01*
X014918Y017679D02*
X014315Y017679D01*
X014315Y017520D02*
X014918Y017520D01*
X014918Y017362D02*
X014315Y017362D01*
X014315Y017203D02*
X014918Y017203D01*
X014918Y017045D02*
X014274Y017045D01*
X014115Y016886D02*
X014918Y016886D01*
X014918Y016728D02*
X013957Y016728D01*
X013875Y017837D02*
X013848Y017837D01*
X003912Y013082D02*
X001778Y013082D01*
X001778Y012924D02*
X003912Y012924D01*
X003912Y012765D02*
X001777Y012765D01*
X001776Y012607D02*
X003912Y012607D01*
X003912Y012448D02*
X001775Y012448D01*
X001775Y012290D02*
X003912Y012290D01*
X003912Y012131D02*
X001774Y012131D01*
X001773Y011973D02*
X003912Y011973D01*
X003912Y011814D02*
X001772Y011814D01*
X001772Y011656D02*
X003912Y011656D01*
X003912Y011497D02*
X001771Y011497D01*
X001770Y011339D02*
X003912Y011339D01*
X003912Y011180D02*
X001770Y011180D01*
X001769Y011022D02*
X003912Y011022D01*
X003912Y010863D02*
X001768Y010863D01*
X001767Y010705D02*
X003912Y010705D01*
X003912Y010546D02*
X001767Y010546D01*
X001766Y010388D02*
X003912Y010388D01*
X003912Y010229D02*
X001765Y010229D01*
X001764Y010071D02*
X003912Y010071D01*
X003912Y009912D02*
X001764Y009912D01*
X001763Y009754D02*
X003912Y009754D01*
X003912Y009595D02*
X001762Y009595D01*
X001762Y009437D02*
X003912Y009437D01*
X003912Y009278D02*
X001761Y009278D01*
X001760Y009120D02*
X003912Y009120D01*
X003912Y008961D02*
X001759Y008961D01*
X001759Y008803D02*
X003912Y008803D01*
X003912Y008644D02*
X001758Y008644D01*
X001757Y008486D02*
X003912Y008486D01*
X003912Y008327D02*
X001756Y008327D01*
X001756Y008169D02*
X003912Y008169D01*
X003912Y008010D02*
X001755Y008010D01*
X001754Y007852D02*
X003912Y007852D01*
X003912Y007693D02*
X001753Y007693D01*
X001753Y007535D02*
X003912Y007535D01*
X003912Y007376D02*
X001752Y007376D01*
X001780Y007218D02*
X003912Y007218D01*
X003918Y007059D02*
X001781Y007059D01*
X001783Y006901D02*
X004007Y006901D01*
X004166Y006742D02*
X002284Y006742D01*
X002338Y006584D02*
X004324Y006584D01*
X004483Y006425D02*
X002338Y006425D01*
X002338Y006267D02*
X004641Y006267D01*
X004800Y006108D02*
X002286Y006108D01*
X001785Y005950D02*
X004958Y005950D01*
X005117Y005791D02*
X001785Y005791D01*
X001785Y005633D02*
X005275Y005633D01*
X007420Y005474D02*
X001785Y005474D01*
X001785Y005316D02*
X007646Y005316D01*
X009330Y006267D02*
X009828Y006267D01*
X009752Y006425D02*
X009330Y006425D01*
X009330Y006584D02*
X009743Y006584D01*
X009793Y006742D02*
X009330Y006742D01*
X009330Y006901D02*
X009556Y006901D01*
X009545Y007059D02*
X009243Y007059D01*
X009084Y007218D02*
X009545Y007218D01*
X009545Y007376D02*
X008926Y007376D01*
X010177Y006425D02*
X010195Y006425D01*
X010195Y006267D02*
X010177Y006267D01*
X011543Y009120D02*
X008489Y009120D01*
X008563Y009278D02*
X011320Y009278D01*
X011245Y009437D02*
X008628Y009437D01*
X008629Y009595D02*
X011234Y009595D01*
X011279Y009754D02*
X008574Y009754D01*
X008436Y009912D02*
X011401Y009912D01*
X014110Y009754D02*
X014279Y009754D01*
X014234Y009595D02*
X014154Y009595D01*
X014143Y009437D02*
X014245Y009437D01*
X014320Y009278D02*
X014068Y009278D01*
X016981Y008486D02*
X019608Y008486D01*
X019642Y008519D02*
X019522Y008399D01*
X019457Y008243D01*
X019457Y008073D01*
X019522Y007917D01*
X019642Y007797D01*
X019798Y007732D01*
X019967Y007732D01*
X020124Y007797D01*
X020244Y007917D01*
X020309Y008073D01*
X020309Y008243D01*
X020244Y008399D01*
X020124Y008519D01*
X019967Y008584D01*
X019798Y008584D01*
X019642Y008519D01*
X019492Y008327D02*
X017086Y008327D01*
X017119Y008169D02*
X019457Y008169D01*
X019483Y008010D02*
X017096Y008010D01*
X017004Y007852D02*
X019587Y007852D01*
X020178Y007852D02*
X020587Y007852D01*
X020483Y008010D02*
X020282Y008010D01*
X020309Y008169D02*
X020457Y008169D01*
X020492Y008327D02*
X020274Y008327D01*
X020157Y008486D02*
X020608Y008486D01*
X017442Y002848D02*
X017455Y002790D01*
X039162Y008803D02*
X040870Y008803D01*
X040991Y008961D02*
X039182Y008961D01*
X042566Y010071D02*
X042886Y010071D01*
X042836Y010121D02*
X042965Y009991D01*
X043135Y009921D01*
X043318Y009921D01*
X043487Y009991D01*
X043616Y010121D01*
X043686Y010290D01*
X043686Y010473D01*
X043616Y010642D01*
X043487Y010771D01*
X043318Y010841D01*
X043135Y010841D01*
X042965Y010771D01*
X042836Y010642D01*
X042766Y010473D01*
X042766Y010290D01*
X042836Y010121D01*
X042791Y010229D02*
X042661Y010229D01*
X042686Y010388D02*
X042766Y010388D01*
X042796Y010546D02*
X042656Y010546D01*
X042620Y010705D02*
X042899Y010705D01*
X042620Y010863D02*
X043993Y010863D01*
X043993Y010705D02*
X043553Y010705D01*
X043656Y010546D02*
X043993Y010546D01*
X043993Y010388D02*
X043686Y010388D01*
X043661Y010229D02*
X043993Y010229D01*
X043993Y010071D02*
X043566Y010071D01*
X043993Y011022D02*
X042620Y011022D01*
X042620Y011180D02*
X043993Y011180D01*
X043993Y011339D02*
X042620Y011339D01*
X042620Y011497D02*
X043993Y011497D01*
X043993Y011656D02*
X042557Y011656D01*
X042557Y011814D02*
X043993Y011814D01*
X043993Y011973D02*
X042557Y011973D01*
X042557Y012131D02*
X043993Y012131D01*
X043993Y012290D02*
X042557Y012290D01*
X042557Y012448D02*
X043993Y012448D01*
X043993Y012607D02*
X042557Y012607D01*
X042557Y012765D02*
X043993Y012765D01*
X043993Y012924D02*
X042557Y012924D01*
X042557Y013082D02*
X043993Y013082D01*
X043993Y013241D02*
X042557Y013241D01*
X042557Y013399D02*
X043993Y013399D01*
X043993Y013558D02*
X042557Y013558D01*
X042557Y013716D02*
X043993Y013716D01*
X043993Y013875D02*
X042557Y013875D01*
X042557Y014033D02*
X043993Y014033D01*
X043993Y014192D02*
X042557Y014192D01*
X042557Y014350D02*
X043993Y014350D01*
X043993Y014509D02*
X042557Y014509D01*
X042557Y014667D02*
X043993Y014667D01*
X043993Y014826D02*
X042557Y014826D01*
X042557Y014984D02*
X043993Y014984D01*
X043993Y015143D02*
X042557Y015143D01*
X042557Y015301D02*
X043993Y015301D01*
X043993Y015460D02*
X042557Y015460D01*
X042557Y015618D02*
X043993Y015618D01*
X043993Y015777D02*
X042557Y015777D01*
X042557Y015935D02*
X043993Y015935D01*
X043993Y016094D02*
X042557Y016094D01*
X042557Y016252D02*
X043993Y016252D01*
X043993Y016411D02*
X042557Y016411D01*
X042557Y016569D02*
X043993Y016569D01*
X043993Y016728D02*
X042557Y016728D01*
X042590Y016886D02*
X043993Y016886D01*
X043993Y017045D02*
X042675Y017045D01*
X042675Y017203D02*
X043993Y017203D01*
X043993Y017362D02*
X042675Y017362D01*
X042655Y017520D02*
X043993Y017520D01*
X041722Y025287D02*
X037451Y025287D01*
X037609Y025445D02*
X041869Y025445D01*
X042546Y026872D02*
X043993Y026872D01*
X043993Y027030D02*
X042583Y027030D01*
X042564Y027189D02*
X043993Y027189D01*
X043993Y027347D02*
X042478Y027347D01*
X041767Y027347D02*
X038880Y027347D01*
X038880Y027189D02*
X038905Y027189D01*
X043993Y029091D02*
X001245Y029091D01*
X001245Y028932D02*
X002982Y028932D01*
X002926Y028909D02*
X002798Y028781D01*
X002729Y028613D01*
X002729Y028432D01*
X002798Y028265D01*
X002926Y028137D01*
X003093Y028068D01*
X003274Y028068D01*
X003442Y028137D01*
X003570Y028265D01*
X003639Y028432D01*
X003639Y028613D01*
X003570Y028781D01*
X003442Y028909D01*
X003274Y028978D01*
X003093Y028978D01*
X002926Y028909D01*
X002795Y028774D02*
X001245Y028774D01*
X001245Y028615D02*
X002729Y028615D01*
X002729Y028457D02*
X001245Y028457D01*
X001245Y028298D02*
X002784Y028298D01*
X002923Y028140D02*
X001245Y028140D01*
X003444Y028140D02*
X006923Y028140D01*
X006784Y028298D02*
X003584Y028298D01*
X003639Y028457D02*
X006729Y028457D01*
X006729Y028615D02*
X003639Y028615D01*
X003573Y028774D02*
X006795Y028774D01*
X006982Y028932D02*
X003386Y028932D01*
X006464Y026044D02*
X006675Y026255D01*
X006464Y026044D02*
X006464Y025136D01*
X002068Y022592D02*
X001245Y022592D01*
X001245Y022434D02*
X001557Y022434D01*
D19*
X025965Y027035D02*
X025965Y027036D01*
X025996Y027035D01*
X017442Y002848D02*
X017479Y002782D01*
D20*
X012190Y006540D02*
X012182Y006532D01*
X012190Y006540D02*
X012190Y006802D01*
X012016Y006976D01*
X010468Y006976D01*
X010268Y007176D01*
X009903Y007176D01*
X007169Y009529D02*
X007169Y010570D01*
X007313Y010714D01*
X009081Y010714D01*
X009579Y011212D01*
X009579Y012450D01*
X009965Y012836D01*
X010254Y012836D01*
X010318Y012900D01*
X010318Y016421D01*
X010720Y016823D01*
X013741Y016823D01*
X014095Y017177D01*
X014095Y019749D01*
X013902Y019942D01*
X013902Y021903D01*
X014205Y022230D01*
X014223Y022257D01*
X014738Y022771D01*
X014738Y023865D01*
X014684Y023897D01*
X015041Y023980D02*
X015189Y024071D01*
X015602Y024071D01*
X015881Y024071D01*
X017211Y024066D01*
X017415Y024955D01*
X017426Y025108D01*
X017421Y025091D01*
X016412Y024549D02*
X015564Y024549D01*
X015554Y024539D01*
X015001Y024661D02*
X015002Y026310D01*
X015002Y026480D01*
X015128Y026675D01*
X016798Y026656D01*
X016985Y026843D01*
X017746Y026843D01*
X017863Y026960D01*
X017863Y027311D01*
X017957Y027405D01*
X018273Y027405D01*
X018530Y027662D01*
X018530Y028341D01*
X018741Y028552D01*
X029413Y028552D01*
X029525Y028388D01*
X029525Y026855D01*
X029379Y026657D01*
X029379Y024843D01*
X029729Y024493D01*
X029729Y022112D01*
X030532Y022130D02*
X030532Y023476D01*
X030269Y023739D01*
X030883Y024052D02*
X029894Y025041D01*
X029894Y026996D01*
X029933Y027035D01*
X030696Y027010D02*
X030721Y027035D01*
X030696Y027010D02*
X030696Y025868D01*
X031497Y025066D01*
X042067Y025066D01*
X042080Y025052D01*
X042123Y025052D01*
X042123Y024052D02*
X030883Y024052D01*
X032298Y023450D02*
X033696Y022052D01*
X042123Y022052D01*
X037634Y025780D02*
X037295Y025442D01*
X032073Y025442D01*
X031459Y026056D01*
X031459Y026987D01*
X031508Y027035D01*
X033714Y026879D02*
X033714Y025855D01*
X033789Y025780D01*
X036932Y025780D01*
X037032Y025880D01*
X037032Y026119D01*
X037170Y026256D01*
X038773Y026256D01*
X038961Y026444D01*
X038961Y026933D01*
X039080Y027052D01*
X042123Y027052D01*
X042123Y026052D02*
X039170Y026052D01*
X038898Y025780D01*
X037634Y025780D01*
X038447Y026632D02*
X035555Y026632D01*
X035417Y026770D01*
X035417Y027007D01*
X035445Y027035D01*
X033870Y027035D02*
X033714Y026879D01*
X038447Y026632D02*
X038660Y026845D01*
X038660Y027822D01*
X038890Y028052D01*
X042123Y028052D01*
X019659Y028157D02*
X019659Y027240D01*
X018821Y026401D01*
X018821Y024549D01*
X019025Y024344D01*
X018024Y022522D02*
X018024Y026317D01*
X018110Y026382D01*
X016920Y027384D02*
X016920Y027979D01*
X016875Y028024D01*
X016920Y027384D02*
X016456Y026920D01*
X014440Y026920D01*
X014365Y026845D01*
X014365Y025317D01*
X014190Y025141D01*
X013614Y025141D01*
X013626Y025780D02*
X013626Y026971D01*
X014102Y027447D01*
X015818Y027447D01*
X015918Y027547D01*
X015918Y027981D01*
X015875Y028024D01*
X012249Y025743D02*
X012249Y024076D01*
X012687Y023638D01*
X013889Y023638D01*
X013902Y023625D01*
X014328Y024502D02*
X014490Y024665D01*
X014328Y024502D02*
X014328Y022711D01*
X013539Y021922D01*
X013539Y018150D01*
X014438Y019711D02*
X014547Y019882D01*
X014727Y020112D01*
X014728Y020858D01*
X014735Y020847D01*
X014732Y022410D01*
X015041Y022773D01*
X015041Y023980D01*
X015257Y022089D02*
X015138Y021971D01*
X015138Y015889D01*
X015780Y015248D01*
X015780Y010866D01*
X015764Y010850D01*
X015764Y009186D01*
X015282Y008705D01*
X013836Y008705D01*
X013659Y008881D01*
X013659Y009520D01*
X013694Y009555D01*
X011970Y011896D02*
X011970Y014050D01*
X012250Y014331D01*
X011440Y014986D02*
X011190Y014736D01*
X011190Y012208D01*
X004365Y022272D02*
X004304Y022333D01*
D21*
X002313Y022333D01*
X001399Y022049D01*
X001441Y014033D01*
X001461Y013571D01*
X001432Y007320D01*
X001460Y007239D01*
X001467Y006368D01*
X001980Y006424D01*
X001465Y006372D01*
X001465Y002119D01*
X002870Y001657D01*
X017046Y001657D01*
X017469Y001902D01*
X017442Y002848D01*
X017479Y002782D02*
X022611Y002782D01*
X022611Y005939D01*
X027965Y011536D01*
X009143Y005668D02*
X009010Y005802D01*
X009010Y006840D01*
X008169Y007681D01*
X008169Y009529D01*
D22*
X027965Y011536D03*
D23*
X016659Y008157D02*
X014287Y008157D01*
X013678Y007548D01*
D24*
X015411Y006170D02*
X016646Y006170D01*
X016659Y006157D01*
X015411Y006170D02*
X014909Y005668D01*
X009143Y005668D01*
X007735Y005668D01*
X007484Y005919D01*
X005498Y005919D01*
X004272Y007146D01*
X004272Y013029D01*
M02*
