%
M48
M72
T01C0.0236
T02C0.0315
T03C0.0354
T04C0.0394
T05C0.0400
T06C0.0551
T07C0.0787
T08C0.1299
T09C0.1378
%
T01
X39819Y6749
X37904Y8582
X38824Y9087
X41769Y11542
X39488Y12827
X41566Y15412
X42317Y17236
X38247Y15658
X31233Y16241
X31064Y19309
X29729Y22112
X30532Y22130
X32298Y23450
X30269Y23739
X25901Y23381
X25883Y23886
X25891Y24369
X25876Y24859
X25882Y25348
X25867Y25827
X25386Y25921
X24890Y25935
X24399Y25935
X23901Y25935
X23404Y25935
X22906Y25942
X22412Y25955
X21923Y25950
X21442Y25960
X20947Y25960
X20458Y25966
X19990Y25934
X19663Y25558
X19667Y25067
X19667Y24570
X19666Y24083
X19655Y23593
X19644Y23086
X19649Y22596
X19655Y22100
X19644Y21599
X19633Y21075
X19627Y20535
X19627Y20022
X19633Y19515
X19652Y19013
X19659Y18525
X19679Y18040
X19679Y17547
X19696Y17054
X19698Y16571
X19689Y16088
X19696Y15602
X19683Y15095
X19678Y14575
X20174Y14527
X20646Y14518
X21135Y14501
X21586Y14489
X22078Y14477
X24284Y12732
X25510Y12741
X27965Y11536
X24336Y10263
X22875Y10437
X22388Y11993
X19545Y11967
X18356Y11685
X20197Y10054
X17442Y2848
X8476Y6170
X9903Y7176
X6078Y7402
X2594Y6919
X1980Y6424
X10283Y11761
X11190Y12208
X11970Y11896
X9733Y13947
X9040Y12734
X12250Y14331
X11440Y14986
X11569Y17810
X13539Y18150
X14438Y19711
X14306Y20501
X12537Y21683
X10128Y22031
X8433Y20731
X8088Y18843
X8932Y17781
X3996Y15377
X2546Y14380
X4272Y13029
X3481Y18180
X4365Y22272
X2781Y23593
X3365Y24282
X6464Y25136
X8978Y24815
X10746Y24126
X10092Y23457
X12249Y25743
X12912Y25981
X13626Y25780
X13614Y25141
X14490Y24665
X15001Y24661
X15554Y24539
X16412Y24549
X16419Y25091
X17421Y25091
X19025Y24344
X18024Y22522
X17508Y21859
X18335Y20376
X15257Y22089
X15899Y23688
X14684Y23897
X13902Y23625
X18110Y26382
X17439Y27210
X19659Y28157
X13326Y27335
X9093Y26923
X7948Y26913
X7403Y26909
X3647Y26996
X17070Y15043
X25896Y15146
X25913Y15718
X25930Y16240
X25947Y16762
X25947Y17284
X25947Y17790
X25947Y18328
X25947Y18857
X25947Y19396
X25947Y19917
X25947Y20416
X25930Y20938
X25911Y21436
X25919Y21931
X25923Y22408
X25916Y22896
X34175Y26135
X36403Y26153
X34838Y28736
X38824Y20929
T02
X35501Y5640
X33612Y4459
X22847Y14437
X23634Y14437
X24421Y14437
X25209Y14437
X25996Y14437
X26784Y14437
X27571Y14437
X28358Y14437
X29146Y14437
X29933Y14437
X30721Y14437
X31508Y14437
X32295Y14437
X33083Y14437
X33870Y14437
X34658Y14437
X35445Y14437
X36232Y14437
X37020Y14437
X37807Y14437
X37807Y27035
X37020Y27035
X36232Y27035
X35445Y27035
X34658Y27035
X33870Y27035
X33083Y27035
X32295Y27035
X31508Y27035
X30721Y27035
X29933Y27035
X29146Y27035
X28358Y27035
X27571Y27035
X26784Y27035
X25996Y27035
X25209Y27035
X24421Y27035
X23634Y27035
X22847Y27035
T03
X22883Y8158
X23879Y8158
X23367Y9158
X22383Y9158
X21383Y9158
X20383Y9158
X19383Y9158
X19883Y8158
X20883Y8158
X21883Y8158
X13174Y6532
X12182Y6532
X11182Y6536
X10186Y6532
X10690Y7532
X11682Y7540
X12662Y7548
X13678Y7548
T04
X6229Y3245
X7229Y3245
X33612Y6822
X6548Y19761
X2548Y19761
X3184Y28523
X7184Y28523
T05
X16659Y6157
X16659Y7157
X16659Y8157
X14694Y9555
X13694Y9555
X12694Y9555
X11694Y9555
X12281Y10775
X14764Y10850
X15764Y10850
X16764Y10850
X8169Y9529
X7169Y9529
X6169Y9529
X5169Y9529
X12875Y28024
X13875Y28024
X14875Y28024
X15875Y28024
X16875Y28024
X17875Y28024
X42123Y28052
X42123Y27052
X42123Y26052
X42123Y25052
X42123Y24052
X42123Y23052
X42123Y22052
X42123Y21052
X42226Y10381
X43226Y10381
X41226Y10381
X41286Y8606
X42286Y8606
X43286Y8606
T06
X40434Y4973
X38662Y4973
T07
X18532Y6745
X24710Y6737
T08
X14182Y4032
X9694Y4032
T09
X19383Y5536
X23887Y5536
M30
